{
classes = (
{
code = "A Aacute Acircumflex Adieresis Agrave Aring Atilde AE B C Ccedilla D Eth E Eacute Ecircumflex Edieresis Egrave F G H I Iacute Icircumflex Idieresis Igrave J K L Lslash M N Ntilde O Oacute Ocircumflex Odieresis Ograve Oslash Otilde OE P Thorn Q R S Scaron T U Uacute Ucircumflex Udieresis Ugrave V W X Y Yacute Ydieresis Z Zcaron";
name = Uppercase;
}
);
copyright = "Copyright (c) 2014, Omnibus-Type (www.omnibus-type.com omnibus.type@gmail.com) with Reserved Font Name 'Asap'";
customParameters = (
{
name = license;
value = "This Font Software is licensed under the SIL Open Font License, Version 1.1. ";
},
{
name = licenseURL;
value = "http://scripts.sil.org/OFL";
},
{
name = "Family Alignment Zones";
value = (
"{700, 8}",
"{523, 8}",
"{0, 20}",
);
},
{
name = vendorID;
value = OMNI;
},
{
name = fsType;
value = (
    3
);
},
{
name = "Make morx table";
value = 1;
},
{
name = description;
value = "Asap Symbol is being developed from Asap Typeface";
}
);
date = "2014-11-19 04:36:41 +0000";
designer = "Tania Quind\U00F3s, Elena Gonz\U00E1lez Miranda, Marcela Romero, Pablo Cosgaya";
designerURL = "www.omnibus-type.com";
familyName = "Asap";
featurePrefixes = (
{
automatic = 1;
code = "languagesystem DFLT dflt;\012languagesystem grek dflt;\012languagesystem latn dflt;\012";
name = Languagesystems;
},
{
automatic = 1;
code = "";
name = morx;
}
);
features = (
{
automatic = 1;
code = "feature sups;\012feature frac;\012feature ordn;\012feature salt;\012feature ss01;\012feature ss02;\012feature ss03;\012feature ss04;\012feature ss05;\012";
name = aalt;
},
{
automatic = 1;
code = "sub one by onesuperior;\012sub two by twosuperior;\012sub three by threesuperior;\012";
name = sups;
},
{
automatic = 1;
code = "sub one slash four by onequarter;\012sub one slash two by onehalf;\012sub three slash four by threequarters;\012";
name = frac;
},
{
automatic = 1;

glyphs = (
{
color = 11;
glyphname = A;
lastChange = "2014-11-19 04:29:10 +0000";
layers = (
{
anchors = (
{
name = bottom;
position = "{310, 0}";
},
{
name = ogonek;
position = "{570, 0}";
},
{
name = top;
position = "{307, 700}";
}
);
layerId = "166CCA77-1BE6-4372-BC61-BAE07403C72D";
name = Regular;
paths = (
{
closed = 1;
nodes = (
"287 702 LINE SMOOTH",
"264 702 OFFCURVE",
"245 698 OFFCURVE",
"240 684 CURVE SMOOTH",
"10 33 LINE SMOOTH",
"8 26 OFFCURVE",
"7 22 OFFCURVE",
"7 17 CURVE SMOOTH",
"7 5 OFFCURVE",
"23 -2 OFFCURVE",
"58 -2 CURVE SMOOTH",
"78 -2 LINE SMOOTH",
"100 -2 OFFCURVE",
"116 3 OFFCURVE",
"121 16 CURVE SMOOTH",
"170 162 LINE",
"439 162 LINE",
"490 16 LINE SMOOTH",
"494 2 OFFCURVE",
"513 -2 OFFCURVE",
"537 -2 CURVE SMOOTH",
"560 -2 LINE SMOOTH",
"593 -2 OFFCURVE",
"606 5 OFFCURVE",
"606 17 CURVE SMOOTH",
"606 22 OFFCURVE",
"605 26 OFFCURVE",
"603 32 CURVE SMOOTH",
"374 684 LINE SMOOTH",
"369 698 OFFCURVE",
"350 702 OFFCURVE",
"326 702 CURVE SMOOTH"
);
},
{
closed = 1;
nodes = (
"311 549 OFFCURVE",
"315 527 OFFCURVE",
"321 508 CURVE SMOOTH",
"405 262 LINE",
"205 262 LINE",
"290 508 LINE SMOOTH",
"297 528 OFFCURVE",
"301 549 OFFCURVE",
"305 569 CURVE",
"308 569 LINE"
);
}
);
width = 613;
}
);
unicode = 0041;
},
{
color = 11;
glyphname = AE;
lastChange = "2014-11-19 04:29:10 +0000";
layers = (
{
anchors = (
{
name = top;
position = "{458, 700}";
}
);
layerId = "166CCA77-1BE6-4372-BC61-BAE07403C72D";
name = Regular;
paths = (
{
closed = 1;
nodes = (
"363 700 LINE SMOOTH",
"342 700 OFFCURVE",
"329 692 OFFCURVE",
"319 673 CURVE SMOOTH",
"-2 34 LINE SMOOTH",
"-5 28 OFFCURVE",
"-6 22 OFFCURVE",
"-6 17 CURVE SMOOTH",
"-6 5 OFFCURVE",
"8 -2 OFFCURVE",
"43 -2 CURVE SMOOTH",
"62 -2 LINE SMOOTH",
"83 -2 OFFCURVE",
"98 4 OFFCURVE",
"105 16 CURVE SMOOTH",
"176 162 LINE",
"448 162 LINE",
"475 29 LINE SMOOTH",
"479 9 OFFCURVE",
"490 0 OFFCURVE",
"511 0 CURVE SMOOTH",
"817 0 LINE SMOOTH",
"834 0 OFFCURVE",
"842 12 OFFCURVE",
"842 39 CURVE SMOOTH",
"842 61 LINE SMOOTH",
"842 88 OFFCURVE",
"834 100 OFFCURVE",
"817 100 CURVE SMOOTH",
"578 100 LINE",
"535 308 LINE",
"788 308 LINE SMOOTH",
"805 308 OFFCURVE",
"812 320 OFFCURVE",
"812 347 CURVE SMOOTH",
"812 369 LINE SMOOTH",
"812 397 OFFCURVE",
"805 408 OFFCURVE",
"788 408 CURVE SMOOTH",
"514 408 LINE",
"474 600 LINE",
"816 600 LINE SMOOTH",
"833 600 OFFCURVE",
"841 612 OFFCURVE",
"841 639 CURVE SMOOTH",
"841 661 LINE SMOOTH",
"841 688 OFFCURVE",
"833 700 OFFCURVE",
"816 700 CURVE SMOOTH"
);
},
{
closed = 1;
nodes = (
"377 509 LINE",
"428 262 LINE",
"226 262 LINE",
"348 510 LINE",
"372 578 LINE",
"375 578 LINE"
);
}
);
width = 915;
}
);
unicode = 00C6;
},
{
color = 11;
glyphname = B;
lastChange = "2014-11-19 04:29:10 +0000";
layers = (
{
layerId = "166CCA77-1BE6-4372-BC61-BAE07403C72D";
name = Regular;
paths = (
{
closed = 1;
nodes = (
"119 700 LINE SMOOTH",
"95 700 OFFCURVE",
"85 690 OFFCURVE",
"85 666 CURVE SMOOTH",
"85 34 LINE SMOOTH",
"85 10 OFFCURVE",
"95 0 OFFCURVE",
"119 0 CURVE SMOOTH",
"309 0 LINE SMOOTH",
"477 0 OFFCURVE",
"565 67 OFFCURVE",
"565 202 CURVE SMOOTH",
"565 310 OFFCURVE",
"462 360 OFFCURVE",
"427 367 CURVE",
"427 371 LINE",
"486 391 OFFCURVE",
"536 456 OFFCURVE",
"536 523 CURVE SMOOTH",
"536 628 OFFCURVE",
"464 700 OFFCURVE",
"307 700 CURVE SMOOTH"
);
},
{
closed = 1;
nodes = (
"399 308 OFFCURVE",
"445 272 OFFCURVE",
"445 208 CURVE SMOOTH",
"445 141 OFFCURVE",
"403 100 OFFCURVE",
"327 100 CURVE SMOOTH",
"202 100 LINE",
"202 308 LINE",
"310 308 LINE SMOOTH"
);
},
{
closed = 1;
nodes = (
"379 600 OFFCURVE",
"416 570 OFFCURVE",
"416 507 CURVE SMOOTH",
"416 452 OFFCURVE",
"369 408 OFFCURVE",
"297 408 CURVE SMOOTH",
"202 408 LINE",
"202 600 LINE",
"296 600 LINE SMOOTH"
);
}
);
width = 593;
}
);
unicode = 0042;
},
{
color = 11;
glyphname = C;
lastChange = "2014-11-19 04:29:11 +0000";
layers = (
{
anchors = (
{
name = bottom;
position = "{366, 0}";
},
{
name = top;
position = "{361, 700}";
}
);
layerId = "166CCA77-1BE6-4372-BC61-BAE07403C72D";
name = Regular;
paths = (
{
closed = 1;
nodes = (
"163 707 OFFCURVE",
"52 589 OFFCURVE",
"52 351 CURVE SMOOTH",
"52 106 OFFCURVE",
"156 -7 OFFCURVE",
"377 -7 CURVE SMOOTH",
"478 -7 OFFCURVE",
"591 29 OFFCURVE",
"591 70 CURVE SMOOTH",
"591 85 OFFCURVE",
"567 139 OFFCURVE",
"546 139 CURVE SMOOTH",
"532 139 OFFCURVE",
"477 93 OFFCURVE",
"377 93 CURVE SMOOTH",
"238 93 OFFCURVE",
"172 176 OFFCURVE",
"172 350 CURVE SMOOTH",
"172 526 OFFCURVE",
"239 606 OFFCURVE",
"380 606 CURVE SMOOTH",
"476 606 OFFCURVE",
"520 568 OFFCURVE",
"532 568 CURVE SMOOTH",
"550 568 OFFCURVE",
"579 620 OFFCURVE",
"579 641 CURVE SMOOTH",
"579 675 OFFCURVE",
"475 707 OFFCURVE",
"380 707 CURVE SMOOTH"
);
}
);
width = 619;
}
);
unicode = 0043;
},
{
color = 11;
glyphname = D;
lastChange = "2014-11-19 04:29:11 +0000";
layers = (
{
anchors = (
{
name = bottom;
position = "{329, 0}";
},
{
name = center;
position = "{348, 350}";
},
{
name = top;
position = "{321, 700}";
}
);
layerId = "166CCA77-1BE6-4372-BC61-BAE07403C72D";
name = Regular;
paths = (
{
closed = 1;
nodes = (
"119 700 LINE SMOOTH",
"95 700 OFFCURVE",
"85 690 OFFCURVE",
"85 666 CURVE SMOOTH",
"85 34 LINE SMOOTH",
"85 10 OFFCURVE",
"95 0 OFFCURVE",
"119 0 CURVE SMOOTH",
"331 0 LINE SMOOTH",
"518 0 OFFCURVE",
"645 105 OFFCURVE",
"645 350 CURVE SMOOTH",
"645 595 OFFCURVE",
"518 700 OFFCURVE",
"331 700 CURVE SMOOTH"
);
},
{
closed = 1;
nodes = (
"444 600 OFFCURVE",
"524 524 OFFCURVE",
"524 350 CURVE SMOOTH",
"524 175 OFFCURVE",
"444 100 OFFCURVE",
"327 100 CURVE SMOOTH",
"202 100 LINE",
"202 600 LINE",
"327 600 LINE SMOOTH"
);
}
);
width = 695;
}
);
unicode = 0044;
},
{
color = 11;
glyphname = Eth;
lastChange = "2014-11-19 04:29:11 +0000";
layers = (
{
layerId = "166CCA77-1BE6-4372-BC61-BAE07403C72D";
name = Regular;
paths = (
{
closed = 1;
nodes = (
"113 700 LINE SMOOTH",
"89 700 OFFCURVE",
"79 690 OFFCURVE",
"79 666 CURVE SMOOTH",
"79 407 LINE",
"29 407 LINE SMOOTH",
"12 407 OFFCURVE",
"5 395 OFFCURVE",
"5 368 CURVE SMOOTH",
"5 346 LINE SMOOTH",
"5 319 OFFCURVE",
"12 307 OFFCURVE",
"29 307 CURVE SMOOTH",
"79 307 LINE",
"79 34 LINE SMOOTH",
"79 10 OFFCURVE",
"89 0 OFFCURVE",
"113 0 CURVE SMOOTH",
"332 0 LINE SMOOTH",
"519 0 OFFCURVE",
"647 105 OFFCURVE",
"647 350 CURVE SMOOTH",
"647 595 OFFCURVE",
"519 700 OFFCURVE",
"332 700 CURVE SMOOTH"
);
},
{
closed = 1;
nodes = (
"445 600 OFFCURVE",
"527 524 OFFCURVE",
"527 350 CURVE SMOOTH",
"527 175 OFFCURVE",
"445 100 OFFCURVE",
"328 100 CURVE SMOOTH",
"196 100 LINE",
"196 307 LINE",
"284 307 LINE SMOOTH",
"301 307 OFFCURVE",
"308 319 OFFCURVE",
"308 346 CURVE SMOOTH",
"308 368 LINE SMOOTH",
"308 395 OFFCURVE",
"301 407 OFFCURVE",
"284 407 CURVE SMOOTH",
"196 407 LINE",
"196 600 LINE",
"328 600 LINE SMOOTH"
);
}
);
width = 696;
}
);
unicode = 00D0;
},
{
color = 11;
glyphname = E;
lastChange = "2014-11-19 04:29:10 +0000";
layers = (
{
anchors = (
{
name = bottom;
position = "{294, 0}";
},
{
name = ogonek;
position = "{475, 0}";
},
{
name = top;
position = "{296, 700}";
}
);
layerId = "166CCA77-1BE6-4372-BC61-BAE07403C72D";
name = Regular;
paths = (
{
closed = 1;
nodes = (
"119 700 LINE SMOOTH",
"95 700 OFFCURVE",
"85 690 OFFCURVE",
"85 666 CURVE SMOOTH",
"85 34 LINE SMOOTH",
"85 10 OFFCURVE",
"95 0 OFFCURVE",
"119 0 CURVE SMOOTH",
"477 0 LINE SMOOTH",
"494 0 OFFCURVE",
"501 12 OFFCURVE",
"501 39 CURVE SMOOTH",
"501 61 LINE SMOOTH",
"501 88 OFFCURVE",
"494 100 OFFCURVE",
"477 100 CURVE SMOOTH",
"202 100 LINE",
"202 308 LINE",
"447 308 LINE SMOOTH",
"464 308 OFFCURVE",
"471 320 OFFCURVE",
"471 347 CURVE SMOOTH",
"471 369 LINE SMOOTH",
"471 397 OFFCURVE",
"464 408 OFFCURVE",
"447 408 CURVE SMOOTH",
"202 408 LINE",
"202 600 LINE",
"476 600 LINE SMOOTH",
"493 600 OFFCURVE",
"500 612 OFFCURVE",
"500 639 CURVE SMOOTH",
"500 661 LINE SMOOTH",
"500 688 OFFCURVE",
"493 700 OFFCURVE",
"476 700 CURVE SMOOTH"
);
}
);
width = 546;
}
);
unicode = 0045;
},
{
color = 11;
glyphname = F;
lastChange = "2014-11-19 04:29:11 +0000";
layers = (
{
layerId = "166CCA77-1BE6-4372-BC61-BAE07403C72D";
name = Regular;
paths = (
{
closed = 1;
nodes = (
"119 700 LINE SMOOTH",
"95 700 OFFCURVE",
"85 690 OFFCURVE",
"85 666 CURVE SMOOTH",
"85 24 LINE SMOOTH",
"85 7 OFFCURVE",
"100 -2 OFFCURVE",
"134 -2 CURVE SMOOTH",
"153 -2 LINE SMOOTH",
"187 -2 OFFCURVE",
"202 7 OFFCURVE",
"202 24 CURVE SMOOTH",
"202 308 LINE",
"429 308 LINE SMOOTH",
"447 308 OFFCURVE",
"454 319 OFFCURVE",
"454 347 CURVE SMOOTH",
"454 369 LINE SMOOTH",
"454 396 OFFCURVE",
"447 408 OFFCURVE",
"429 408 CURVE SMOOTH",
"202 408 LINE",
"202 600 LINE",
"443 600 LINE SMOOTH",
"460 600 OFFCURVE",
"467 612 OFFCURVE",
"467 639 CURVE SMOOTH",
"467 661 LINE SMOOTH",
"467 688 OFFCURVE",
"460 700 OFFCURVE",
"443 700 CURVE SMOOTH"
);
}
);
width = 503;
}
);
unicode = 0046;
},
{
color = 11;
glyphname = G;
lastChange = "2014-11-19 04:29:11 +0000";
layers = (
{
anchors = (
{
name = bottom;
position = "{373, 0}";
},
{
name = top;
position = "{342, 700}";
}
);
layerId = "166CCA77-1BE6-4372-BC61-BAE07403C72D";
name = Regular;
paths = (
{
closed = 1;
nodes = (
"166 707 OFFCURVE",
"52 592 OFFCURVE",
"52 347 CURVE SMOOTH",
"52 106 OFFCURVE",
"160 -7 OFFCURVE",
"370 -7 CURVE SMOOTH",
"465 -7 OFFCURVE",
"597 7 OFFCURVE",
"597 68 CURVE SMOOTH",
"597 339 LINE SMOOTH",
"597 363 OFFCURVE",
"587 373 OFFCURVE",
"563 373 CURVE SMOOTH",
"376 373 LINE SMOOTH",
"358 373 OFFCURVE",
"351 362 OFFCURVE",
"351 334 CURVE SMOOTH",
"351 312 LINE SMOOTH",
"351 284 OFFCURVE",
"358 273 OFFCURVE",
"376 273 CURVE SMOOTH",
"480 273 LINE",
"480 104 LINE",
"453 97 OFFCURVE",
"415 93 OFFCURVE",
"373 93 CURVE SMOOTH",
"223 93 OFFCURVE",
"172 200 OFFCURVE",
"172 352 CURVE SMOOTH",
"172 516 OFFCURVE",
"229 606 OFFCURVE",
"380 606 CURVE SMOOTH",
"476 606 OFFCURVE",
"522 568 OFFCURVE",
"534 568 CURVE SMOOTH",
"552 568 OFFCURVE",
"581 620 OFFCURVE",
"581 641 CURVE SMOOTH",
"581 675 OFFCURVE",
"475 707 OFFCURVE",
"380 707 CURVE SMOOTH"
);
}
);
width = 672;
}
);
unicode = 0047;
},
{
color = 11;
glyphname = H;
lastChange = "2014-11-19 04:29:10 +0000";
layers = (
{
anchors = (
{
name = bottom;
position = "{378, 0}";
},
{
name = center;
position = "{373, 523}";
},
{
name = top;
position = "{367, 700}";
}
);
layerId = "166CCA77-1BE6-4372-BC61-BAE07403C72D";
name = Regular;
paths = (
{
closed = 1;
nodes = (
"579 702 LINE SMOOTH",
"545 702 OFFCURVE",
"530 693 OFFCURVE",
"530 676 CURVE SMOOTH",
"530 408 LINE",
"208 408 LINE",
"208 676 LINE SMOOTH",
"208 693 OFFCURVE",
"194 702 OFFCURVE",
"160 702 CURVE SMOOTH",
"140 702 LINE SMOOTH",
"106 702 OFFCURVE",
"91 693 OFFCURVE",
"91 676 CURVE SMOOTH",
"91 24 LINE SMOOTH",
"91 7 OFFCURVE",
"106 -2 OFFCURVE",
"140 -2 CURVE SMOOTH",
"160 -2 LINE SMOOTH",
"194 -2 OFFCURVE",
"208 7 OFFCURVE",
"208 24 CURVE SMOOTH",
"208 308 LINE",
"530 308 LINE",
"530 24 LINE SMOOTH",
"530 7 OFFCURVE",
"545 -2 OFFCURVE",
"579 -2 CURVE SMOOTH",
"599 -2 LINE SMOOTH",
"633 -2 OFFCURVE",
"647 7 OFFCURVE",
"647 24 CURVE SMOOTH",
"647 676 LINE SMOOTH",
"647 693 OFFCURVE",
"633 702 OFFCURVE",
"599 702 CURVE SMOOTH"
);
}
);
width = 733;
}
);
unicode = 0048;
},
{
color = 11;
glyphname = I;
lastChange = "2014-11-19 04:29:10 +0000";
layers = (
{
anchors = (
{
name = bottom;
position = "{140, 0}";
},
{
name = ogonek;
position = "{173, 0}";
},
{
name = top;
position = "{141, 700}";
}
);
layerId = "166CCA77-1BE6-4372-BC61-BAE07403C72D";
name = Regular;
paths = (
{
closed = 1;
nodes = (
"131 702 LINE SMOOTH",
"97 702 OFFCURVE",
"82 693 OFFCURVE",
"82 676 CURVE SMOOTH",
"82 24 LINE SMOOTH",
"82 7 OFFCURVE",
"97 -2 OFFCURVE",
"131 -2 CURVE SMOOTH",
"151 -2 LINE SMOOTH",
"185 -2 OFFCURVE",
"199 7 OFFCURVE",
"199 24 CURVE SMOOTH",
"199 676 LINE SMOOTH",
"199 693 OFFCURVE",
"185 702 OFFCURVE",
"151 702 CURVE SMOOTH"
);
}
);
width = 282;
}
);
unicode = 0049;
},
{
color = 11;
glyphname = J;
lastChange = "2014-11-19 04:29:10 +0000";
layers = (
{
anchors = (
{
name = top;
position = "{267, 700}";
}
);
layerId = "166CCA77-1BE6-4372-BC61-BAE07403C72D";
name = Regular;
paths = (
{
closed = 1;
nodes = (
"258 702 LINE SMOOTH",
"223 702 OFFCURVE",
"209 693 OFFCURVE",
"209 676 CURVE SMOOTH",
"209 209 LINE SMOOTH",
"209 129 OFFCURVE",
"175 94 OFFCURVE",
"93 94 CURVE SMOOTH",
"61 94 OFFCURVE",
"42 103 OFFCURVE",
"33 103 CURVE SMOOTH",
"11 102 OFFCURVE",
"3 41 OFFCURVE",
"3 31 CURVE SMOOTH",
"3 -3 OFFCURVE",
"82 -7 OFFCURVE",
"114 -7 CURVE SMOOTH",
"266 -7 OFFCURVE",
"326 77 OFFCURVE",
"326 204 CURVE SMOOTH",
"326 676 LINE SMOOTH",
"326 693 OFFCURVE",
"311 702 OFFCURVE",
"277 702 CURVE SMOOTH"
);
}
);
width = 402;
}
);
unicode = 004A;
},
{
color = 11;
glyphname = K;
lastChange = "2014-11-19 04:29:10 +0000";
layers = (
{
anchors = (
{
name = bottom;
position = "{292, 0}";
},
{
name = top;
position = "{297, 700}";
}
);
layerId = "166CCA77-1BE6-4372-BC61-BAE07403C72D";
name = Regular;
paths = (
{
closed = 1;
nodes = (
"477 702 LINE SMOOTH",
"452 702 OFFCURVE",
"430 699 OFFCURVE",
"421 686 CURVE SMOOTH",
"206 386 LINE",
"202 386 LINE",
"202 676 LINE SMOOTH",
"202 693 OFFCURVE",
"188 702 OFFCURVE",
"154 702 CURVE SMOOTH",
"134 702 LINE SMOOTH",
"100 702 OFFCURVE",
"85 693 OFFCURVE",
"85 676 CURVE SMOOTH",
"85 24 LINE SMOOTH",
"85 7 OFFCURVE",
"100 -2 OFFCURVE",
"134 -2 CURVE SMOOTH",
"154 -2 LINE SMOOTH",
"188 -2 OFFCURVE",
"202 7 OFFCURVE",
"202 24 CURVE SMOOTH",
"202 327 LINE",
"206 328 LINE",
"449 14 LINE SMOOTH",
"460 0 OFFCURVE",
"482 -2 OFFCURVE",
"507 -2 CURVE SMOOTH",
"539 -2 LINE SMOOTH",
"574 -2 OFFCURVE",
"588 2 OFFCURVE",
"588 12 CURVE SMOOTH",
"588 17 OFFCURVE",
"586 22 OFFCURVE",
"580 31 CURVE SMOOTH",
"313 363 LINE",
"539 668 LINE SMOOTH",
"545 676 OFFCURVE",
"548 683 OFFCURVE",
"548 688 CURVE SMOOTH",
"548 696 OFFCURVE",
"534 702 OFFCURVE",
"504 702 CURVE SMOOTH"
);
}
);
width = 576;
}
);
unicode = 004B;
},
{
color = 11;
glyphname = L;
lastChange = "2014-11-19 04:29:10 +0000";
layers = (
{
anchors = (
{
name = bottom;
position = "{265, 0}";
},
{
name = caron;
position = "{252, 700}";
},
{
name = center;
position = "{313, 335}";
},
{
name = top;
position = "{147, 701}";
}
);
layerId = "166CCA77-1BE6-4372-BC61-BAE07403C72D";
name = Regular;
paths = (
{
closed = 1;
nodes = (
"134 702 LINE SMOOTH",
"100 702 OFFCURVE",
"85 693 OFFCURVE",
"85 676 CURVE SMOOTH",
"85 34 LINE SMOOTH",
"85 10 OFFCURVE",
"95 0 OFFCURVE",
"119 0 CURVE SMOOTH",
"454 0 LINE SMOOTH",
"471 0 OFFCURVE",
"478 12 OFFCURVE",
"478 39 CURVE SMOOTH",
"478 61 LINE SMOOTH",
"478 88 OFFCURVE",
"471 100 OFFCURVE",
"454 100 CURVE SMOOTH",
"202 100 LINE",
"202 676 LINE SMOOTH",
"202 693 OFFCURVE",
"187 702 OFFCURVE",
"153 702 CURVE SMOOTH"
);
}
);
width = 484;
}
);
unicode = 004C;
},
{
color = 11;
glyphname = Lslash;
lastChange = "2014-11-19 04:29:10 +0000";
layers = (
{
layerId = "166CCA77-1BE6-4372-BC61-BAE07403C72D";
name = Regular;
paths = (
{
closed = 1;
nodes = (
"127 702 LINE SMOOTH",
"93 702 OFFCURVE",
"79 693 OFFCURVE",
"79 676 CURVE SMOOTH",
"79 388 LINE",
"32 361 LINE SMOOTH",
"17 352 OFFCURVE",
"10 341 OFFCURVE",
"10 324 CURVE SMOOTH",
"10 312 LINE SMOOTH",
"10 301 OFFCURVE",
"14 295 OFFCURVE",
"20 295 CURVE SMOOTH",
"23 295 OFFCURVE",
"27 296 OFFCURVE",
"32 300 CURVE SMOOTH",
"79 327 LINE",
"79 34 LINE SMOOTH",
"79 10 OFFCURVE",
"89 0 OFFCURVE",
"113 0 CURVE SMOOTH",
"457 0 LINE SMOOTH",
"474 0 OFFCURVE",
"481 12 OFFCURVE",
"481 39 CURVE SMOOTH",
"481 61 LINE SMOOTH",
"481 88 OFFCURVE",
"474 100 OFFCURVE",
"457 100 CURVE SMOOTH",
"195 100 LINE",
"195 398 LINE",
"294 458 LINE SMOOTH",
"309 466 OFFCURVE",
"316 478 OFFCURVE",
"316 495 CURVE SMOOTH",
"316 507 LINE SMOOTH",
"316 517 OFFCURVE",
"312 523 OFFCURVE",
"306 523 CURVE SMOOTH",
"303 523 OFFCURVE",
"299 521 OFFCURVE",
"294 518 CURVE SMOOTH",
"195 459 LINE",
"195 676 LINE SMOOTH",
"195 693 OFFCURVE",
"181 702 OFFCURVE",
"147 702 CURVE SMOOTH"
);
}
);
width = 486;
}
);
unicode = 0141;
},
{
color = 11;
glyphname = M;
lastChange = "2014-11-19 04:29:11 +0000";
layers = (
{
layerId = "166CCA77-1BE6-4372-BC61-BAE07403C72D";
name = Regular;
paths = (
{
closed = 1;
nodes = (
"672 702 LINE SMOOTH",
"646 702 OFFCURVE",
"629 695 OFFCURVE",
"621 680 CURVE SMOOTH",
"441 363 LINE",
"422 323 LINE",
"404 365 LINE",
"224 680 LINE SMOOTH",
"216 695 OFFCURVE",
"199 702 OFFCURVE",
"173 702 CURVE SMOOTH",
"130 702 LINE SMOOTH",
"96 702 OFFCURVE",
"81 693 OFFCURVE",
"81 676 CURVE SMOOTH",
"81 24 LINE SMOOTH",
"81 7 OFFCURVE",
"96 -2 OFFCURVE",
"130 -2 CURVE SMOOTH",
"146 -2 LINE SMOOTH",
"180 -2 OFFCURVE",
"195 7 OFFCURVE",
"195 24 CURVE SMOOTH",
"195 512 LINE",
"198 510 LINE",
"375 198 LINE SMOOTH",
"382 188 OFFCURVE",
"391 183 OFFCURVE",
"405 183 CURVE SMOOTH",
"440 183 LINE SMOOTH",
"455 183 OFFCURVE",
"463 188 OFFCURVE",
"470 198 CURVE SMOOTH",
"645 506 LINE",
"648 508 LINE",
"648 24 LINE SMOOTH",
"648 7 OFFCURVE",
"663 -2 OFFCURVE",
"697 -2 CURVE SMOOTH",
"714 -2 LINE SMOOTH",
"748 -2 OFFCURVE",
"762 7 OFFCURVE",
"762 24 CURVE SMOOTH",
"762 676 LINE SMOOTH",
"762 693 OFFCURVE",
"748 702 OFFCURVE",
"714 702 CURVE SMOOTH"
);
}
);
width = 843;
}
);
unicode = 004D;
},
{
color = 11;
glyphname = N;
lastChange = "2014-11-19 04:29:11 +0000";
layers = (
{
anchors = (
{
name = bottom;
position = "{360, 0}";
},
{
name = top;
position = "{360, 700}";
}
);
layerId = "166CCA77-1BE6-4372-BC61-BAE07403C72D";
name = Regular;
paths = (
{
closed = 1;
nodes = (
"573 702 LINE SMOOTH",
"539 702 OFFCURVE",
"524 693 OFFCURVE",
"524 676 CURVE SMOOTH",
"524 200 LINE",
"496 249 LINE",
"213 680 LINE SMOOTH",
"201 697 OFFCURVE",
"185 702 OFFCURVE",
"160 702 CURVE SMOOTH",
"130 702 LINE SMOOTH",
"96 702 OFFCURVE",
"81 693 OFFCURVE",
"81 676 CURVE SMOOTH",
"81 24 LINE SMOOTH",
"81 7 OFFCURVE",
"96 -2 OFFCURVE",
"130 -2 CURVE SMOOTH",
"146 -2 LINE SMOOTH",
"180 -2 OFFCURVE",
"195 7 OFFCURVE",
"195 24 CURVE SMOOTH",
"195 506 LINE",
"219 463 LINE",
"513 18 LINE SMOOTH",
"523 3 OFFCURVE",
"538 -2 OFFCURVE",
"562 -2 CURVE SMOOTH",
"590 -2 LINE SMOOTH",
"624 -2 OFFCURVE",
"638 7 OFFCURVE",
"638 24 CURVE SMOOTH",
"638 676 LINE SMOOTH",
"638 693 OFFCURVE",
"624 702 OFFCURVE",
"590 702 CURVE SMOOTH"
);
}
);
width = 719;
}
);
unicode = 004E;
},
{
color = 11;
glyphname = O;
lastChange = "2014-11-19 04:29:10 +0000";
layers = (
{
anchors = (
{
name = bottom;
position = "{367, 0}";
},
{
name = horn;
position = "{479, 682}";
},
{
name = ogonek;
position = "{443, 0}";
},
{
name = top;
position = "{366, 700}";
}
);
layerId = "166CCA77-1BE6-4372-BC61-BAE07403C72D";
name = Regular;
paths = (
{
closed = 1;
nodes = (
"163 707 OFFCURVE",
"52 584 OFFCURVE",
"52 351 CURVE SMOOTH",
"52 118 OFFCURVE",
"163 -7 OFFCURVE",
"366 -7 CURVE SMOOTH",
"569 -7 OFFCURVE",
"679 118 OFFCURVE",
"679 351 CURVE SMOOTH",
"679 584 OFFCURVE",
"569 707 OFFCURVE",
"366 707 CURVE SMOOTH"
);
},
{
closed = 1;
nodes = (
"492 606 OFFCURVE",
"559 519 OFFCURVE",
"559 351 CURVE SMOOTH",
"559 183 OFFCURVE",
"492 93 OFFCURVE",
"365 93 CURVE SMOOTH",
"239 93 OFFCURVE",
"172 183 OFFCURVE",
"172 351 CURVE SMOOTH",
"172 519 OFFCURVE",
"239 606 OFFCURVE",
"365 606 CURVE SMOOTH"
);
}
);
width = 731;
}
);
unicode = 004F;
},
{
color = 11;
glyphname = Oslash;
lastChange = "2014-11-19 04:29:11 +0000";
layers = (
{
anchors = (
{
name = top;
position = "{366, 700}";
}
);
layerId = "166CCA77-1BE6-4372-BC61-BAE07403C72D";
name = Regular;
paths = (
{
closed = 1;
nodes = (
"162 707 OFFCURVE",
"51 584 OFFCURVE",
"51 351 CURVE SMOOTH",
"51 256 OFFCURVE",
"69 180 OFFCURVE",
"105 122 CURVE",
"35 44 LINE SMOOTH",
"29 38 OFFCURVE",
"27 32 OFFCURVE",
"27 27 CURVE SMOOTH",
"27 14 OFFCURVE",
"48 -5 OFFCURVE",
"60 -5 CURVE SMOOTH",
"66 -5 OFFCURVE",
"72 -1 OFFCURVE",
"78 6 CURVE SMOOTH",
"141 76 LINE",
"193 21 OFFCURVE",
"268 -7 OFFCURVE",
"365 -7 CURVE SMOOTH",
"568 -7 OFFCURVE",
"679 118 OFFCURVE",
"679 351 CURVE SMOOTH",
"679 458 OFFCURVE",
"655 542 OFFCURVE",
"610 601 CURVE",
"666 664 LINE SMOOTH",
"672 670 OFFCURVE",
"674 675 OFFCURVE",
"674 680 CURVE SMOOTH",
"674 693 OFFCURVE",
"653 712 OFFCURVE",
"641 712 CURVE SMOOTH",
"635 712 OFFCURVE",
"629 709 OFFCURVE",
"623 702 CURVE SMOOTH",
"570 642 LINE",
"519 684 OFFCURVE",
"450 707 OFFCURVE",
"365 707 CURVE SMOOTH"
);
},
{
closed = 1;
nodes = (
"548 469 OFFCURVE",
"559 416 OFFCURVE",
"559 351 CURVE SMOOTH",
"559 183 OFFCURVE",
"492 93 OFFCURVE",
"366 93 CURVE SMOOTH",
"301 93 OFFCURVE",
"251 117 OFFCURVE",
"219 163 CURVE",
"528 509 LINE"
);
},
{
closed = 1;
nodes = (
"420 606 OFFCURVE",
"463 590 OFFCURVE",
"495 558 CURVE",
"192 219 LINE",
"179 255 OFFCURVE",
"172 299 OFFCURVE",
"172 351 CURVE SMOOTH",
"172 519 OFFCURVE",
"239 606 OFFCURVE",
"365 606 CURVE SMOOTH"
);
}
);
width = 731;
}
);
unicode = 00D8;
},
{
color = 11;
glyphname = OE;
lastChange = "2014-11-19 04:29:11 +0000";
layers = (
{
anchors = (
{
name = top;
position = "{511, 700}";
}
);
layerId = "166CCA77-1BE6-4372-BC61-BAE07403C72D";
name = Regular;
paths = (
{
closed = 1;
nodes = (
"161 707 OFFCURVE",
"52 584 OFFCURVE",
"52 351 CURVE SMOOTH",
"52 118 OFFCURVE",
"161 -7 OFFCURVE",
"361 -7 CURVE SMOOTH",
"457 -7 OFFCURVE",
"532 22 OFFCURVE",
"585 81 CURVE",
"561 116 LINE",
"561 35 LINE SMOOTH",
"561 10 OFFCURVE",
"572 0 OFFCURVE",
"596 0 CURVE SMOOTH",
"955 0 LINE SMOOTH",
"972 0 OFFCURVE",
"979 12 OFFCURVE",
"979 39 CURVE SMOOTH",
"979 61 LINE SMOOTH",
"979 88 OFFCURVE",
"972 100 OFFCURVE",
"955 100 CURVE SMOOTH",
"678 100 LINE",
"678 308 LINE",
"925 308 LINE SMOOTH",
"942 308 OFFCURVE",
"949 320 OFFCURVE",
"949 347 CURVE SMOOTH",
"949 369 LINE SMOOTH",
"949 397 OFFCURVE",
"942 408 OFFCURVE",
"925 408 CURVE SMOOTH",
"678 408 LINE",
"678 600 LINE",
"954 600 LINE SMOOTH",
"971 600 OFFCURVE",
"978 612 OFFCURVE",
"978 639 CURVE SMOOTH",
"978 661 LINE SMOOTH",
"978 688 OFFCURVE",
"971 700 OFFCURVE",
"954 700 CURVE SMOOTH",
"596 700 LINE SMOOTH",
"572 700 OFFCURVE",
"561 690 OFFCURVE",
"561 667 CURVE SMOOTH",
"561 586 LINE",
"585 620 LINE",
"531 678 OFFCURVE",
"458 707 OFFCURVE",
"361 707 CURVE SMOOTH"
);
},
{
closed = 1;
nodes = (
"492 606 OFFCURVE",
"559 519 OFFCURVE",
"559 351 CURVE SMOOTH",
"559 183 OFFCURVE",
"492 93 OFFCURVE",
"365 93 CURVE SMOOTH",
"239 93 OFFCURVE",
"172 183 OFFCURVE",
"172 351 CURVE SMOOTH",
"172 519 OFFCURVE",
"239 606 OFFCURVE",
"365 606 CURVE SMOOTH"
);
}
);
width = 1021;
}
);
unicode = 0152;
},
{
color = 11;
glyphname = P;
lastChange = "2014-11-19 04:29:10 +0000";
layers = (
{
layerId = "166CCA77-1BE6-4372-BC61-BAE07403C72D";
name = Regular;
paths = (
{
closed = 1;
nodes = (
"112 700 LINE SMOOTH",
"88 700 OFFCURVE",
"78 690 OFFCURVE",
"78 666 CURVE SMOOTH",
"78 24 LINE SMOOTH",
"78 7 OFFCURVE",
"93 -2 OFFCURVE",
"127 -2 CURVE SMOOTH",
"146 -2 LINE SMOOTH",
"180 -2 OFFCURVE",
"195 7 OFFCURVE",
"195 24 CURVE SMOOTH",
"195 282 LINE",
"328 282 LINE SMOOTH",
"381 282 OFFCURVE",
"548 307 OFFCURVE",
"548 494 CURVE SMOOTH",
"548 673 OFFCURVE",
"406 700 OFFCURVE",
"318 700 CURVE SMOOTH"
);
},
{
closed = 1;
nodes = (
"364 600 OFFCURVE",
"428 581 OFFCURVE",
"428 494 CURVE SMOOTH",
"428 401 OFFCURVE",
"361 383 OFFCURVE",
"322 383 CURVE SMOOTH",
"195 383 LINE",
"195 600 LINE",
"314 600 LINE SMOOTH"
);
}
);
width = 570;
}
);
unicode = 0050;
},
{
color = 11;
glyphname = Thorn;
lastChange = "2014-11-19 04:29:11 +0000";
layers = (
{
layerId = "166CCA77-1BE6-4372-BC61-BAE07403C72D";
name = Regular;
paths = (
{
closed = 1;
nodes = (
"127 702 LINE SMOOTH",
"93 702 OFFCURVE",
"78 693 OFFCURVE",
"78 676 CURVE SMOOTH",
"78 24 LINE SMOOTH",
"78 7 OFFCURVE",
"93 -2 OFFCURVE",
"127 -2 CURVE SMOOTH",
"146 -2 LINE SMOOTH",
"180 -2 OFFCURVE",
"195 7 OFFCURVE",
"195 24 CURVE SMOOTH",
"195 167 LINE",
"331 167 LINE SMOOTH",
"384 167 OFFCURVE",
"551 191 OFFCURVE",
"551 379 CURVE SMOOTH",
"551 558 OFFCURVE",
"409 585 OFFCURVE",
"321 585 CURVE SMOOTH",
"195 585 LINE",
"195 676 LINE SMOOTH",
"195 693 OFFCURVE",
"180 702 OFFCURVE",
"146 702 CURVE SMOOTH"
);
},
{
closed = 1;
nodes = (
"366 485 OFFCURVE",
"430 466 OFFCURVE",
"430 379 CURVE SMOOTH",
"430 286 OFFCURVE",
"363 267 OFFCURVE",
"324 267 CURVE SMOOTH",
"194 267 LINE",
"194 485 LINE",
"316 485 LINE SMOOTH"
);
}
);
width = 567;
}
);
unicode = 00DE;
},
{
color = 11;
glyphname = Q;
lastChange = "2014-11-19 04:29:11 +0000";
layers = (
{
layerId = "166CCA77-1BE6-4372-BC61-BAE07403C72D";
name = Regular;
paths = (
{
closed = 1;
nodes = (
"163 707 OFFCURVE",
"52 582 OFFCURVE",
"52 348 CURVE SMOOTH",
"52 172 OFFCURVE",
"115 59 OFFCURVE",
"238 10 CURVE SMOOTH",
"432 -67 OFFCURVE",
"631 -147 OFFCURVE",
"642 -147 CURVE SMOOTH",
"669 -147 OFFCURVE",
"689 -76 OFFCURVE",
"689 -62 CURVE SMOOTH",
"689 -55 OFFCURVE",
"684 -50 OFFCURVE",
"675 -47 CURVE SMOOTH",
"498 12 LINE",
"498 16 LINE",
"615 59 OFFCURVE",
"679 172 OFFCURVE",
"679 348 CURVE SMOOTH",
"679 581 OFFCURVE",
"569 707 OFFCURVE",
"366 707 CURVE SMOOTH"
);
},
{
closed = 1;
nodes = (
"490 606 OFFCURVE",
"559 515 OFFCURVE",
"559 348 CURVE SMOOTH",
"559 181 OFFCURVE",
"490 90 OFFCURVE",
"365 90 CURVE SMOOTH",
"241 90 OFFCURVE",
"172 180 OFFCURVE",
"172 348 CURVE SMOOTH",
"172 516 OFFCURVE",
"241 606 OFFCURVE",
"365 606 CURVE SMOOTH"
);
}
);
width = 731;
}
);
unicode = 0051;
},
{
color = 11;
glyphname = R;
lastChange = "2014-11-19 04:29:11 +0000";
layers = (
{
anchors = (
{
name = bottom;
position = "{305, 0}";
},
{
name = top;
position = "{305, 700}";
}
);
layerId = "166CCA77-1BE6-4372-BC61-BAE07403C72D";
name = Regular;
paths = (
{
closed = 1;
nodes = (
"119 700 LINE SMOOTH",
"95 700 OFFCURVE",
"85 690 OFFCURVE",
"85 666 CURVE SMOOTH",
"85 24 LINE SMOOTH",
"85 7 OFFCURVE",
"100 -2 OFFCURVE",
"134 -2 CURVE SMOOTH",
"153 -2 LINE SMOOTH",
"187 -2 OFFCURVE",
"202 7 OFFCURVE",
"202 24 CURVE SMOOTH",
"202 293 LINE",
"270 293 LINE SMOOTH",
"342 293 OFFCURVE",
"372 273 OFFCURVE",
"398 212 CURVE SMOOTH",
"475 16 LINE SMOOTH",
"480 4 OFFCURVE",
"499 -2 OFFCURVE",
"523 -2 CURVE SMOOTH",
"546 -2 LINE SMOOTH",
"581 -2 OFFCURVE",
"596 5 OFFCURVE",
"596 16 CURVE SMOOTH",
"596 20 OFFCURVE",
"595 25 OFFCURVE",
"592 32 CURVE SMOOTH",
"510 239 LINE SMOOTH",
"488 295 OFFCURVE",
"462 337 OFFCURVE",
"428 350 CURVE",
"428 354 LINE",
"497 381 OFFCURVE",
"544 436 OFFCURVE",
"544 518 CURVE SMOOTH",
"544 642 OFFCURVE",
"463 700 OFFCURVE",
"299 700 CURVE SMOOTH"
);
},
{
closed = 1;
nodes = (
"379 600 OFFCURVE",
"424 567 OFFCURVE",
"424 501 CURVE SMOOTH",
"424 443 OFFCURVE",
"376 394 OFFCURVE",
"318 394 CURVE SMOOTH",
"202 394 LINE",
"202 600 LINE",
"311 600 LINE SMOOTH"
);
}
);
width = 610;
}
);
unicode = 0052;
},
{
color = 11;
glyphname = S;
lastChange = "2014-11-19 04:29:10 +0000";
layers = (
{
anchors = (
{
name = bottom;
position = "{250, 0}";
},
{
name = top;
position = "{250, 700}";
}
);
layerId = "166CCA77-1BE6-4372-BC61-BAE07403C72D";
name = Regular;
paths = (
{
closed = 1;
nodes = (
"145 707 OFFCURVE",
"43 638 OFFCURVE",
"43 514 CURVE SMOOTH",
"43 388 OFFCURVE",
"122 349 OFFCURVE",
"200 316 CURVE SMOOTH",
"277 284 OFFCURVE",
"353 261 OFFCURVE",
"353 190 CURVE SMOOTH",
"353 125 OFFCURVE",
"299 93 OFFCURVE",
"238 93 CURVE SMOOTH",
"145 93 OFFCURVE",
"92 142 OFFCURVE",
"77 142 CURVE SMOOTH",
"61 142 OFFCURVE",
"30 95 OFFCURVE",
"30 73 CURVE SMOOTH",
"30 43 OFFCURVE",
"117 -7 OFFCURVE",
"249 -7 CURVE SMOOTH",
"373 -7 OFFCURVE",
"473 59 OFFCURVE",
"473 198 CURVE SMOOTH",
"473 334 OFFCURVE",
"373 374 OFFCURVE",
"287 408 CURVE SMOOTH",
"221 434 OFFCURVE",
"164 453 OFFCURVE",
"164 518 CURVE SMOOTH",
"164 569 OFFCURVE",
"201 606 OFFCURVE",
"277 606 CURVE SMOOTH",
"351 606 OFFCURVE",
"385 574 OFFCURVE",
"399 574 CURVE SMOOTH",
"415 574 OFFCURVE",
"441 622 OFFCURVE",
"441 642 CURVE SMOOTH",
"441 677 OFFCURVE",
"350 707 OFFCURVE",
"272 707 CURVE SMOOTH"
);
}
);
width = 500;
}
);
unicode = 0053;
},
{
color = 11;
glyphname = T;
lastChange = "2014-11-19 04:29:11 +0000";
layers = (
{
anchors = (
{
name = bottom;
position = "{275, 0}";
},
{
name = center;
position = "{275, 350}";
},
{
name = top;
position = "{275, 700}";
}
);
layerId = "166CCA77-1BE6-4372-BC61-BAE07403C72D";
name = Regular;
paths = (
{
closed = 1;
nodes = (
"39 700 LINE SMOOTH",
"22 700 OFFCURVE",
"15 688 OFFCURVE",
"15 661 CURVE SMOOTH",
"15 639 LINE SMOOTH",
"15 612 OFFCURVE",
"22 600 OFFCURVE",
"39 600 CURVE SMOOTH",
"217 600 LINE",
"217 24 LINE SMOOTH",
"217 7 OFFCURVE",
"232 -2 OFFCURVE",
"266 -2 CURVE SMOOTH",
"285 -2 LINE SMOOTH",
"320 -2 OFFCURVE",
"334 7 OFFCURVE",
"334 24 CURVE SMOOTH",
"334 600 LINE",
"510 600 LINE SMOOTH",
"527 600 OFFCURVE",
"534 612 OFFCURVE",
"534 639 CURVE SMOOTH",
"534 661 LINE SMOOTH",
"534 688 OFFCURVE",
"527 700 OFFCURVE",
"510 700 CURVE SMOOTH"
);
}
);
width = 549;
}
);
unicode = 0054;
},
{
color = 11;
glyphname = U;
lastChange = "2014-11-19 04:29:10 +0000";
layers = (
{
anchors = (
{
name = bottom;
position = "{357, 0}";
},
{
name = horn;
position = "{569, 702}";
},
{
name = ogonek;
position = "{438, 0}";
},
{
name = top;
position = "{356, 700}";
}
);
layerId = "166CCA77-1BE6-4372-BC61-BAE07403C72D";
name = Regular;
paths = (
{
closed = 1;
nodes = (
"569 702 LINE SMOOTH",
"535 702 OFFCURVE",
"520 693 OFFCURVE",
"520 676 CURVE SMOOTH",
"520 231 LINE SMOOTH",
"520 151 OFFCURVE",
"452 93 OFFCURVE",
"356 93 CURVE SMOOTH",
"261 93 OFFCURVE",
"193 150 OFFCURVE",
"193 231 CURVE SMOOTH",
"193 676 LINE SMOOTH",
"193 693 OFFCURVE",
"178 702 OFFCURVE",
"144 702 CURVE SMOOTH",
"125 702 LINE SMOOTH",
"91 702 OFFCURVE",
"76 693 OFFCURVE",
"76 676 CURVE SMOOTH",
"76 228 LINE SMOOTH",
"76 80 OFFCURVE",
"177 -7 OFFCURVE",
"356 -7 CURVE SMOOTH",
"535 -7 OFFCURVE",
"637 80 OFFCURVE",
"637 228 CURVE SMOOTH",
"637 676 LINE SMOOTH",
"637 693 OFFCURVE",
"622 702 OFFCURVE",
"588 702 CURVE SMOOTH"
);
}
);
width = 712;
}
);
unicode = 0055;
},
{
color = 11;
glyphname = V;
lastChange = "2014-11-19 04:29:11 +0000";
layers = (
{
layerId = "166CCA77-1BE6-4372-BC61-BAE07403C72D";
name = Regular;
paths = (
{
closed = 1;
nodes = (
"534 702 LINE SMOOTH",
"510 702 OFFCURVE",
"491 696 OFFCURVE",
"486 680 CURVE SMOOTH",
"321 191 LINE",
"310 146 LINE",
"306 146 LINE",
"296 190 LINE",
"133 680 LINE SMOOTH",
"127 697 OFFCURVE",
"108 702 OFFCURVE",
"84 702 CURVE SMOOTH",
"65 702 LINE SMOOTH",
"30 702 OFFCURVE",
"14 695 OFFCURVE",
"14 683 CURVE SMOOTH",
"14 678 OFFCURVE",
"15 674 OFFCURVE",
"17 668 CURVE SMOOTH",
"241 16 LINE SMOOTH",
"245 2 OFFCURVE",
"264 -2 OFFCURVE",
"288 -2 CURVE SMOOTH",
"328 -2 LINE SMOOTH",
"352 -2 OFFCURVE",
"370 2 OFFCURVE",
"375 16 CURVE SMOOTH",
"598 667 LINE SMOOTH",
"600 674 OFFCURVE",
"601 678 OFFCURVE",
"601 683 CURVE SMOOTH",
"601 695 OFFCURVE",
"586 702 OFFCURVE",
"551 702 CURVE SMOOTH"
);
}
);
width = 617;
}
);
unicode = 0056;
},
{
color = 11;
glyphname = W;
lastChange = "2014-11-19 04:29:10 +0000";
layers = (
{
anchors = (
{
name = top;
position = "{441, 700}";
}
);
layerId = "166CCA77-1BE6-4372-BC61-BAE07403C72D";
name = Regular;
paths = (
{
closed = 1;
nodes = (
"816 702 LINE SMOOTH",
"788 702 OFFCURVE",
"768 695 OFFCURVE",
"764 679 CURVE SMOOTH",
"662 263 LINE",
"654 228 OFFCURVE",
"644 185 OFFCURVE",
"634 143 CURVE",
"628 168 OFFCURVE",
"618 225 OFFCURVE",
"609 261 CURVE SMOOTH",
"505 683 LINE SMOOTH",
"502 698 OFFCURVE",
"484 702 OFFCURVE",
"459 702 CURVE SMOOTH",
"433 702 LINE SMOOTH",
"408 702 OFFCURVE",
"391 698 OFFCURVE",
"387 683 CURVE SMOOTH",
"283 263 LINE",
"275 230 OFFCURVE",
"263 189 OFFCURVE",
"255 146 CURVE",
"249 173 OFFCURVE",
"239 232 OFFCURVE",
"231 262 CURVE SMOOTH",
"127 679 LINE SMOOTH",
"123 695 OFFCURVE",
"104 702 OFFCURVE",
"75 702 CURVE SMOOTH",
"58 702 LINE SMOOTH",
"23 702 OFFCURVE",
"7 694 OFFCURVE",
"7 681 CURVE SMOOTH",
"7 677 OFFCURVE",
"8 672 OFFCURVE",
"10 667 CURVE SMOOTH",
"175 16 LINE SMOOTH",
"178 3 OFFCURVE",
"196 -2 OFFCURVE",
"221 -2 CURVE SMOOTH",
"276 -2 LINE SMOOTH",
"299 -2 OFFCURVE",
"319 3 OFFCURVE",
"323 16 CURVE SMOOTH",
"421 397 LINE",
"440 500 LINE",
"459 397 LINE",
"556 16 LINE SMOOTH",
"559 3 OFFCURVE",
"579 -2 OFFCURVE",
"603 -2 CURVE SMOOTH",
"658 -2 LINE SMOOTH",
"681 -2 OFFCURVE",
"701 3 OFFCURVE",
"704 16 CURVE SMOOTH",
"873 667 LINE SMOOTH",
"874 672 OFFCURVE",
"876 678 OFFCURVE",
"876 681 CURVE SMOOTH",
"876 694 OFFCURVE",
"860 702 OFFCURVE",
"824 702 CURVE SMOOTH"
);
}
);
width = 882;
}
);
unicode = 0057;
},
{
color = 11;
glyphname = X;
lastChange = "2014-11-19 04:29:10 +0000";
layers = (
{
layerId = "166CCA77-1BE6-4372-BC61-BAE07403C72D";
name = Regular;
paths = (
{
closed = 1;
nodes = (
"505 702 LINE SMOOTH",
"482 702 OFFCURVE",
"463 699 OFFCURVE",
"454 686 CURVE SMOOTH",
"309 468 LINE",
"169 685 LINE SMOOTH",
"160 699 OFFCURVE",
"143 702 OFFCURVE",
"118 702 CURVE SMOOTH",
"92 702 LINE SMOOTH",
"54 702 OFFCURVE",
"39 695 OFFCURVE",
"39 684 CURVE SMOOTH",
"39 678 OFFCURVE",
"42 671 OFFCURVE",
"47 663 CURVE SMOOTH",
"240 365 LINE",
"24 37 LINE SMOOTH",
"18 28 OFFCURVE",
"15 21 OFFCURVE",
"15 16 CURVE SMOOTH",
"15 4 OFFCURVE",
"31 -2 OFFCURVE",
"68 -2 CURVE SMOOTH",
"90 -2 LINE SMOOTH",
"112 -2 OFFCURVE",
"131 0 OFFCURVE",
"140 14 CURVE SMOOTH",
"305 264 LINE",
"467 15 LINE SMOOTH",
"476 1 OFFCURVE",
"493 -2 OFFCURVE",
"518 -2 CURVE SMOOTH",
"544 -2 LINE SMOOTH",
"582 -2 OFFCURVE",
"597 4 OFFCURVE",
"597 16 CURVE SMOOTH",
"597 22 OFFCURVE",
"594 29 OFFCURVE",
"589 37 CURVE SMOOTH",
"375 367 LINE",
"570 663 LINE SMOOTH",
"575 671 OFFCURVE",
"579 679 OFFCURVE",
"579 684 CURVE SMOOTH",
"579 696 OFFCURVE",
"563 702 OFFCURVE",
"525 702 CURVE SMOOTH"
);
}
);
width = 611;
}
);
unicode = 0058;
},
{
color = 11;
glyphname = Y;
lastChange = "2014-11-19 04:29:10 +0000";
layers = (
{
anchors = (
{
name = bottom;
position = "{280, 0}";
},
{
name = top;
position = "{280, 700}";
}
);
layerId = "166CCA77-1BE6-4372-BC61-BAE07403C72D";
name = Regular;
paths = (
{
closed = 1;
nodes = (
"459 702 OFFCURVE",
"439 699 OFFCURVE",
"431 686 CURVE SMOOTH",
"283 453 LINE",
"137 685 LINE SMOOTH",
"129 699 OFFCURVE",
"111 702 OFFCURVE",
"87 702 CURVE SMOOTH",
"62 702 LINE SMOOTH",
"23 702 OFFCURVE",
"8 695 OFFCURVE",
"8 684 CURVE SMOOTH",
"8 678 OFFCURVE",
"11 671 OFFCURVE",
"17 663 CURVE SMOOTH",
"222 349 LINE",
"222 24 LINE SMOOTH",
"222 7 OFFCURVE",
"236 -2 OFFCURVE",
"270 -2 CURVE SMOOTH",
"290 -2 LINE SMOOTH",
"324 -2 OFFCURVE",
"338 7 OFFCURVE",
"338 24 CURVE SMOOTH",
"338 346 LINE",
"544 663 LINE SMOOTH",
"548 671 OFFCURVE",
"552 678 OFFCURVE",
"552 684 CURVE SMOOTH",
"552 695 OFFCURVE",
"537 701 OFFCURVE",
"502 702 CURVE",
"483 702 LINE"
);
}
);
width = 559;
}
);
unicode = 0059;
},
{
color = 11;
glyphname = Z;
lastChange = "2014-11-19 04:29:10 +0000";
layers = (
{
anchors = (
{
name = bottom;
position = "{310, 0}";
},
{
name = top;
position = "{308, 700}";
}
);
layerId = "166CCA77-1BE6-4372-BC61-BAE07403C72D";
name = Regular;
paths = (
{
closed = 1;
nodes = (
"89 700 LINE SMOOTH",
"72 700 OFFCURVE",
"64 688 OFFCURVE",
"64 659 CURVE SMOOTH",
"64 641 LINE SMOOTH",
"64 612 OFFCURVE",
"72 600 OFFCURVE",
"89 600 CURVE SMOOTH",
"413 600 LINE",
"36 80 LINE SMOOTH",
"34 77 OFFCURVE",
"33 73 OFFCURVE",
"33 69 CURVE SMOOTH",
"33 46 OFFCURVE",
"50 0 OFFCURVE",
"64 0 CURVE",
"549 0 LINE SMOOTH",
"566 0 OFFCURVE",
"574 12 OFFCURVE",
"574 41 CURVE SMOOTH",
"574 59 LINE SMOOTH",
"574 88 OFFCURVE",
"566 100 OFFCURVE",
"549 100 CURVE SMOOTH",
"196 100 LINE",
"573 620 LINE SMOOTH",
"574 622 OFFCURVE",
"575 625 OFFCURVE",
"575 630 CURVE SMOOTH",
"575 653 OFFCURVE",
"557 700 OFFCURVE",
"546 700 CURVE SMOOTH"
);
}
);
width = 616;
}
);
unicode = 005A;
},
{
color = 4;
glyphname = E.ss04.alt;
lastChange = "2014-11-20 03:06:23 +0000";
layers = (
{
background = {
paths = (
{
closed = 1;
nodes = (
"114 364 LINE",
"101 361 OFFCURVE",
"96 357 OFFCURVE",
"96 351 CURVE SMOOTH",
"96 336 LINE SMOOTH",
"96 329 OFFCURVE",
"101 325 OFFCURVE",
"114 322 CURVE",
"537 237 LINE",
"543 236 OFFCURVE",
"544 236 OFFCURVE",
"546 236 CURVE SMOOTH",
"552 236 OFFCURVE",
"556 241 OFFCURVE",
"556 247 CURVE",
"556 324 LINE",
"619 324 LINE",
"627 324 LINE SMOOTH",
"644 324 OFFCURVE",
"660 311 OFFCURVE",
"660 294 CURVE SMOOTH",
"660 277 OFFCURVE",
"644 265 OFFCURVE",
"627 265 CURVE SMOOTH",
"620 265 OFFCURVE",
"619 265 OFFCURVE",
"617 263 CURVE SMOOTH",
"614 260 OFFCURVE",
"612 255 OFFCURVE",
"613 247 CURVE SMOOTH",
"613 239 OFFCURVE",
"614 234 OFFCURVE",
"616 230 CURVE SMOOTH",
"617 228 OFFCURVE",
"620 226 OFFCURVE",
"627 226 CURVE SMOOTH",
"668 226 OFFCURVE",
"700 257 OFFCURVE",
"700 294 CURVE SMOOTH",
"700 333 OFFCURVE",
"668 363 OFFCURVE",
"627 363 CURVE SMOOTH",
"624 363 LINE",
"556 363 LINE",
"556 440 LINE",
"556 446 OFFCURVE",
"552 451 OFFCURVE",
"546 451 CURVE SMOOTH",
"544 451 OFFCURVE",
"543 451 OFFCURVE",
"537 450 CURVE"
);
},
{
closed = 1;
nodes = (
"13 356 LINE SMOOTH",
"5 356 OFFCURVE",
"0 350 OFFCURVE",
"0 343 CURVE",
"0 335 OFFCURVE",
"6 330 OFFCURVE",
"13 330 CURVE",
"81 330 LINE",
"81 356 LINE"
);
},
{
closed = 1;
nodes = (
"515 67 OFFCURVE",
"518 71 OFFCURVE",
"522 71 CURVE SMOOTH",
"533 71 LINE SMOOTH",
"537 71 OFFCURVE",
"539 67 OFFCURVE",
"539 58 CURVE SMOOTH",
"539 28 LINE SMOOTH",
"539 21 OFFCURVE",
"537 17 OFFCURVE",
"533 17 CURVE SMOOTH",
"522 17 LINE SMOOTH",
"518 17 OFFCURVE",
"515 21 OFFCURVE",
"515 28 CURVE SMOOTH",
"515 58 LINE SMOOTH"
);
},
{
closed = 1;
nodes = (
"310 42 OFFCURVE",
"313 40 OFFCURVE",
"313 40 CURVE",
"329 25 LINE SMOOTH",
"332 23 OFFCURVE",
"334 25 OFFCURVE",
"334 25 CURVE",
"343 38 LINE SMOOTH",
"346 41 OFFCURVE",
"348 38 OFFCURVE",
"348 38 CURVE",
"357 25 LINE SMOOTH",
"360 22 OFFCURVE",
"362 25 OFFCURVE",
"362 25 CURVE",
"372 38 LINE SMOOTH",
"374 41 OFFCURVE",
"376 38 OFFCURVE",
"376 38 CURVE",
"385 26 LINE SMOOTH",
"388 24 OFFCURVE",
"391 24 OFFCURVE",
"391 24 CURVE",
"438 24 LINE",
"438 14 OFFCURVE",
"445 0 OFFCURVE",
"462 -1 CURVE SMOOTH",
"532 -6 LINE",
"545 -6 OFFCURVE",
"554 -3 OFFCURVE",
"559 9 CURVE SMOOTH",
"561 13 OFFCURVE",
"565 28 OFFCURVE",
"565 43 CURVE SMOOTH",
"565 58 OFFCURVE",
"561 75 OFFCURVE",
"559 79 CURVE SMOOTH",
"554 90 OFFCURVE",
"545 94 OFFCURVE",
"532 94 CURVE",
"462 89 LINE SMOOTH",
"445 88 OFFCURVE",
"438 73 OFFCURVE",
"438 64 CURVE",
"328 64 LINE SMOOTH",
"325 64 OFFCURVE",
"323 60 OFFCURVE",
"323 60 CURVE",
"312 45 LINE SMOOTH"
);
},
{
closed = 1;
nodes = (
"546 176 LINE",
"546 176 OFFCURVE",
"544 178 OFFCURVE",
"541 178 CURVE SMOOTH",
"435 178 LINE",
"435 192 LINE",
"434 193 OFFCURVE",
"433 193 OFFCURVE",
"432 192 CURVE SMOOTH",
"422 182 LINE",
"413 202 OFFCURVE",
"393 216 OFFCURVE",
"370 216 CURVE SMOOTH",
"338 216 OFFCURVE",
"313 191 OFFCURVE",
"312 160 CURVE SMOOTH",
"312 128 OFFCURVE",
"337 102 OFFCURVE",
"370 102 CURVE SMOOTH",
"393 102 OFFCURVE",
"413 116 OFFCURVE",
"421 136 CURVE",
"432 126 LINE SMOOTH",
"433 125 OFFCURVE",
"434 125 OFFCURVE",
"435 126 CURVE",
"435 141 LINE",
"454 141 LINE",
"454 141 OFFCURVE",
"457 141 OFFCURVE",
"459 143 CURVE SMOOTH",
"468 155 LINE",
"468 155 OFFCURVE",
"470 158 OFFCURVE",
"472 155 CURVE SMOOTH",
"481 142 LINE",
"481 142 OFFCURVE",
"482 140 OFFCURVE",
"485 141 CURVE",
"485 141 OFFCURVE",
"487 142 OFFCURVE",
"488 143 CURVE",
"496 155 LINE",
"496 155 OFFCURVE",
"499 157 OFFCURVE",
"500 155 CURVE SMOOTH",
"509 142 LINE",
"509 142 OFFCURVE",
"511 139 OFFCURVE",
"514 142 CURVE SMOOTH",
"523 155 LINE",
"523 155 OFFCURVE",
"525 157 OFFCURVE",
"527 155 CURVE SMOOTH",
"536 142 LINE",
"536 142 OFFCURVE",
"538 139 OFFCURVE",
"540 142 CURVE SMOOTH",
"556 156 LINE",
"556 156 OFFCURVE",
"558 159 OFFCURVE",
"557 161 CURVE SMOOTH"
);
},
{
closed = 1;
nodes = (
"341 142 OFFCURVE",
"333 151 OFFCURVE",
"333 160 CURVE SMOOTH",
"333 169 OFFCURVE",
"341 177 OFFCURVE",
"350 177 CURVE SMOOTH",
"360 177 OFFCURVE",
"368 169 OFFCURVE",
"368 160 CURVE SMOOTH",
"368 150 OFFCURVE",
"360 142 OFFCURVE",
"350 142 CURVE SMOOTH"
);
},
{
closed = 1;
nodes = (
"103 255 OFFCURVE",
"96 247 OFFCURVE",
"96 238 CURVE SMOOTH",
"96 17 LINE SMOOTH",
"96 8 OFFCURVE",
"103 0 OFFCURVE",
"113 0 CURVE SMOOTH",
"145 0 LINE",
"145 255 LINE",
"113 255 LINE SMOOTH"
);
},
{
closed = 1;
nodes = (
"273 238 LINE SMOOTH",
"273 247 OFFCURVE",
"266 255 OFFCURVE",
"256 255 CURVE SMOOTH",
"182 255 LINE",
"182 0 LINE",
"256 0 LINE SMOOTH",
"266 0 OFFCURVE",
"273 8 OFFCURVE",
"273 17 CURVE SMOOTH"
);
},
{
closed = 1;
nodes = (
"234 232 OFFCURVE",
"238 237 OFFCURVE",
"245 237 CURVE SMOOTH",
"251 237 OFFCURVE",
"255 232 OFFCURVE",
"255 227 CURVE SMOOTH",
"255 221 OFFCURVE",
"251 216 OFFCURVE",
"245 216 CURVE SMOOTH",
"238 216 OFFCURVE",
"234 221 OFFCURVE",
"234 227 CURVE SMOOTH"
);
},
{
closed = 1;
nodes = (
"234 198 OFFCURVE",
"238 203 OFFCURVE",
"245 203 CURVE SMOOTH",
"251 203 OFFCURVE",
"255 198 OFFCURVE",
"255 193 CURVE SMOOTH",
"255 186 OFFCURVE",
"251 182 OFFCURVE",
"245 182 CURVE SMOOTH",
"238 182 OFFCURVE",
"234 186 OFFCURVE",
"234 193 CURVE SMOOTH"
);
},
{
closed = 1;
nodes = (
"234 164 OFFCURVE",
"238 169 OFFCURVE",
"245 169 CURVE SMOOTH",
"251 169 OFFCURVE",
"255 164 OFFCURVE",
"255 159 CURVE SMOOTH",
"255 153 OFFCURVE",
"251 148 OFFCURVE",
"245 148 CURVE SMOOTH",
"238 148 OFFCURVE",
"234 153 OFFCURVE",
"234 159 CURVE SMOOTH"
);
},
{
closed = 1;
nodes = (
"269 508 LINE SMOOTH",
"269 517 OFFCURVE",
"277 521 OFFCURVE",
"294 521 CURVE SMOOTH",
"306 521 LINE SMOOTH",
"321 521 OFFCURVE",
"329 517 OFFCURVE",
"329 508 CURVE SMOOTH",
"329 473 LINE SMOOTH",
"329 464 OFFCURVE",
"321 460 OFFCURVE",
"306 460 CURVE SMOOTH",
"294 460 LINE SMOOTH",
"277 460 OFFCURVE",
"269 464 OFFCURVE",
"269 473 CURVE SMOOTH"
);
},
{
closed = 1;
nodes = (
"275 576 OFFCURVE",
"279 600 OFFCURVE",
"301 624 CURVE SMOOTH",
"311 635 OFFCURVE",
"342 662 OFFCURVE",
"342 681 CURVE SMOOTH",
"342 695 OFFCURVE",
"333 703 OFFCURVE",
"314 703 CURVE SMOOTH",
"305 703 OFFCURVE",
"294 701 OFFCURVE",
"283 697 CURVE SMOOTH",
"273 693 OFFCURVE",
"255 685 OFFCURVE",
"255 685 CURVE SMOOTH",
"250 685 OFFCURVE",
"245 689 OFFCURVE",
"239 697 CURVE SMOOTH",
"233 705 OFFCURVE",
"231 712 OFFCURVE",
"231 716 CURVE SMOOTH",
"231 727 OFFCURVE",
"253 740 OFFCURVE",
"268 745 CURVE SMOOTH",
"283 752 OFFCURVE",
"301 754 OFFCURVE",
"319 754 CURVE SMOOTH",
"345 754 OFFCURVE",
"365 748 OFFCURVE",
"381 735 CURVE SMOOTH",
"396 722 OFFCURVE",
"403 706 OFFCURVE",
"403 685 CURVE",
"403 663 OFFCURVE",
"396 645 OFFCURVE",
"380 630 CURVE SMOOTH",
"373 624 OFFCURVE",
"367 618 OFFCURVE",
"359 613 CURVE SMOOTH",
"323 584 OFFCURVE",
"327 570 OFFCURVE",
"326 558 CURVE SMOOTH",
"326 550 OFFCURVE",
"318 547 OFFCURVE",
"312 547 CURVE SMOOTH",
"293 547 LINE SMOOTH",
"280 547 OFFCURVE",
"275 551 OFFCURVE",
"275 559 CURVE SMOOTH"
);
}
);
};
layerId = "166CCA77-1BE6-4372-BC61-BAE07403C72D";
name = Regular;
paths = (
{
closed = 1;
nodes = (
"114 364 LINE SMOOTH",
"101 361 OFFCURVE",
"96 357 OFFCURVE",
"96 351 CURVE SMOOTH",
"96 336 LINE SMOOTH",
"96 329 OFFCURVE",
"101 325 OFFCURVE",
"114 322 CURVE SMOOTH",
"537 237 LINE SMOOTH",
"543 236 OFFCURVE",
"544 236 OFFCURVE",
"546 236 CURVE SMOOTH",
"552 236 OFFCURVE",
"556 241 OFFCURVE",
"556 247 CURVE SMOOTH",
"556 324 LINE",
"627 324 LINE SMOOTH",
"644 324 OFFCURVE",
"660 311 OFFCURVE",
"660 294 CURVE SMOOTH",
"660 277 OFFCURVE",
"644 265 OFFCURVE",
"627 265 CURVE SMOOTH",
"620 265 OFFCURVE",
"619 265 OFFCURVE",
"617 263 CURVE SMOOTH",
"614.531 260.531 OFFCURVE",
"612.74 256.708 OFFCURVE",
"612.74 250.974 CURVE SMOOTH",
"612.74 249.74 OFFCURVE",
"612.823 248.417 OFFCURVE",
"613 247 CURVE SMOOTH",
"613 239 OFFCURVE",
"614 234 OFFCURVE",
"616 230 CURVE SMOOTH",
"617 228 OFFCURVE",
"620 226 OFFCURVE",
"627 226 CURVE SMOOTH",
"668 226 OFFCURVE",
"700 257 OFFCURVE",
"700 294 CURVE SMOOTH",
"700 333 OFFCURVE",
"668 363 OFFCURVE",
"627 363 CURVE SMOOTH",
"556 363 LINE",
"556 440 LINE SMOOTH",
"556 446 OFFCURVE",
"552 451 OFFCURVE",
"546 451 CURVE SMOOTH",
"544 451 OFFCURVE",
"543 451 OFFCURVE",
"537 450 CURVE"
);
},
{
closed = 1;
nodes = (
"13 356 LINE SMOOTH",
"5 356 OFFCURVE",
"0 350 OFFCURVE",
"0 343 CURVE SMOOTH",
"0 335 OFFCURVE",
"6 330 OFFCURVE",
"13 330 CURVE SMOOTH",
"81 330 LINE",
"81 356 LINE"
);
},
{
closed = 1;
nodes = (
"515 67 OFFCURVE",
"518 71 OFFCURVE",
"522 71 CURVE SMOOTH",
"533 71 LINE SMOOTH",
"537 71 OFFCURVE",
"539 67 OFFCURVE",
"539 58 CURVE SMOOTH",
"539 28 LINE SMOOTH",
"539 21 OFFCURVE",
"537 17 OFFCURVE",
"533 17 CURVE SMOOTH",
"522 17 LINE SMOOTH",
"518 17 OFFCURVE",
"515 21 OFFCURVE",
"515 28 CURVE SMOOTH",
"515 58 LINE SMOOTH"
);
},
{
closed = 1;
nodes = (
"311 43 OFFCURVE",
"312 41 OFFCURVE",
"313 40 CURVE SMOOTH",
"329 25 LINE SMOOTH",
"331 24 OFFCURVE",
"333 24 OFFCURVE",
"334 25 CURVE",
"343 38 LINE SMOOTH",
"345 40 OFFCURVE",
"347 39 OFFCURVE",
"348 38 CURVE",
"357 25 LINE SMOOTH",
"359 23 OFFCURVE",
"361 24 OFFCURVE",
"362 25 CURVE",
"372 38 LINE SMOOTH",
"373 40 OFFCURVE",
"375 39 OFFCURVE",
"376 38 CURVE",
"385 26 LINE SMOOTH",
"387 25 OFFCURVE",
"390 24 OFFCURVE",
"391 24 CURVE SMOOTH",
"438 24 LINE",
"438 14 OFFCURVE",
"445 0 OFFCURVE",
"462 -1 CURVE SMOOTH",
"532 -6 LINE",
"545 -6 OFFCURVE",
"554 -3 OFFCURVE",
"559 9 CURVE SMOOTH",
"561 13 OFFCURVE",
"565 28 OFFCURVE",
"565 43 CURVE SMOOTH",
"565 58 OFFCURVE",
"561 75 OFFCURVE",
"559 79 CURVE SMOOTH",
"554 90 OFFCURVE",
"545 94 OFFCURVE",
"532 94 CURVE",
"462 89 LINE SMOOTH",
"445 88 OFFCURVE",
"438 73 OFFCURVE",
"438 64 CURVE",
"328 64 LINE SMOOTH",
"326 64 OFFCURVE",
"324 62 OFFCURVE",
"323 60 CURVE",
"312 45 LINE SMOOTH"
);
},
{
closed = 1;
nodes = (
"546 176 LINE",
"545 177 OFFCURVE",
"543 178 OFFCURVE",
"541 178 CURVE SMOOTH",
"435 178 LINE",
"435 192 LINE",
"434 193 OFFCURVE",
"433 193 OFFCURVE",
"432 192 CURVE SMOOTH",
"422 182 LINE",
"413 202 OFFCURVE",
"393 216 OFFCURVE",
"370 216 CURVE SMOOTH",
"338 216 OFFCURVE",
"313 191 OFFCURVE",
"312 160 CURVE SMOOTH",
"312 128 OFFCURVE",
"337 102 OFFCURVE",
"370 102 CURVE SMOOTH",
"393 102 OFFCURVE",
"413 116 OFFCURVE",
"421 136 CURVE",
"432 126 LINE SMOOTH",
"433 125 OFFCURVE",
"434 125 OFFCURVE",
"435 126 CURVE",
"435 141 LINE",
"454 141 LINE SMOOTH",
"455 141 OFFCURVE",
"458 142 OFFCURVE",
"459 143 CURVE SMOOTH",
"468 155 LINE",
"469 156 OFFCURVE",
"471 157 OFFCURVE",
"472 155 CURVE SMOOTH",
"481 142 LINE",
"481 141 OFFCURVE",
"483 140 OFFCURVE",
"485 141 CURVE",
"486 141 OFFCURVE",
"487 142 OFFCURVE",
"488 143 CURVE",
"496 155 LINE",
"497 156 OFFCURVE",
"499 156 OFFCURVE",
"500 155 CURVE SMOOTH",
"509 142 LINE",
"510 141 OFFCURVE",
"512 140 OFFCURVE",
"514 142 CURVE SMOOTH",
"523 155 LINE",
"524 156 OFFCURVE",
"526 156 OFFCURVE",
"527 155 CURVE SMOOTH",
"536 142 LINE",
"537 141 OFFCURVE",
"539 140 OFFCURVE",
"540 142 CURVE SMOOTH",
"556 156 LINE",
"557 157 OFFCURVE",
"558 160 OFFCURVE",
"557 161 CURVE SMOOTH"
);
},
{
closed = 1;
nodes = (
"341 142 OFFCURVE",
"333 151 OFFCURVE",
"333 160 CURVE SMOOTH",
"333 169 OFFCURVE",
"341 177 OFFCURVE",
"350 177 CURVE SMOOTH",
"360 177 OFFCURVE",
"368 169 OFFCURVE",
"368 160 CURVE SMOOTH",
"368 150 OFFCURVE",
"360 142 OFFCURVE",
"350 142 CURVE SMOOTH"
);
},
{
closed = 1;
nodes = (
"103 255 OFFCURVE",
"96 247 OFFCURVE",
"96 238 CURVE SMOOTH",
"96 17 LINE SMOOTH",
"96 8 OFFCURVE",
"103 0 OFFCURVE",
"113 0 CURVE SMOOTH",
"145 0 LINE",
"145 255 LINE",
"113 255 LINE SMOOTH"
);
},
{
closed = 1;
nodes = (
"273 238 LINE SMOOTH",
"273 247 OFFCURVE",
"266 255 OFFCURVE",
"256 255 CURVE SMOOTH",
"182 255 LINE",
"182 0 LINE",
"256 0 LINE SMOOTH",
"266 0 OFFCURVE",
"273 8 OFFCURVE",
"273 17 CURVE SMOOTH"
);
},
{
closed = 1;
nodes = (
"234 232 OFFCURVE",
"238 237 OFFCURVE",
"245 237 CURVE SMOOTH",
"251 237 OFFCURVE",
"255 232 OFFCURVE",
"255 227 CURVE SMOOTH",
"255 221 OFFCURVE",
"251 216 OFFCURVE",
"245 216 CURVE SMOOTH",
"238 216 OFFCURVE",
"234 221 OFFCURVE",
"234 227 CURVE SMOOTH"
);
},
{
closed = 1;
nodes = (
"234 198 OFFCURVE",
"238 203 OFFCURVE",
"245 203 CURVE SMOOTH",
"251 203 OFFCURVE",
"255 198 OFFCURVE",
"255 193 CURVE SMOOTH",
"255 186 OFFCURVE",
"251 182 OFFCURVE",
"245 182 CURVE SMOOTH",
"238 182 OFFCURVE",
"234 186 OFFCURVE",
"234 193 CURVE SMOOTH"
);
},
{
closed = 1;
nodes = (
"234 164 OFFCURVE",
"238 169 OFFCURVE",
"245 169 CURVE SMOOTH",
"251 169 OFFCURVE",
"255 164 OFFCURVE",
"255 159 CURVE SMOOTH",
"255 153 OFFCURVE",
"251 148 OFFCURVE",
"245 148 CURVE SMOOTH",
"238 148 OFFCURVE",
"234 153 OFFCURVE",
"234 159 CURVE SMOOTH"
);
},
{
closed = 1;
nodes = (
"269 508 LINE SMOOTH",
"269 517 OFFCURVE",
"277 521 OFFCURVE",
"294 521 CURVE SMOOTH",
"306 521 LINE SMOOTH",
"321 521 OFFCURVE",
"329 517 OFFCURVE",
"329 508 CURVE SMOOTH",
"329 473 LINE SMOOTH",
"329 464 OFFCURVE",
"321 460 OFFCURVE",
"306 460 CURVE SMOOTH",
"294 460 LINE SMOOTH",
"277 460 OFFCURVE",
"269 464 OFFCURVE",
"269 473 CURVE SMOOTH"
);
},
{
closed = 1;
nodes = (
"275 576 OFFCURVE",
"279 600 OFFCURVE",
"301 624 CURVE SMOOTH",
"302.814 625.995 OFFCURVE",
"305.318 628.516 OFFCURVE",
"308.203 631.421 CURVE SMOOTH",
"321.225 644.53 OFFCURVE",
"342 665.446 OFFCURVE",
"342 681 CURVE SMOOTH",
"342 695 OFFCURVE",
"333 703 OFFCURVE",
"314 703 CURVE SMOOTH",
"305 703 OFFCURVE",
"294 701 OFFCURVE",
"283 697 CURVE SMOOTH",
"280.881 696.092 OFFCURVE",
"278.211 694.908 OFFCURVE",
"275.297 693.616 CURVE SMOOTH",
"268.586 690.642 OFFCURVE",
"260.578 687.092 OFFCURVE",
"255 685 CURVE SMOOTH",
"250 685 OFFCURVE",
"245 689 OFFCURVE",
"239 697 CURVE SMOOTH",
"233 705 OFFCURVE",
"231 712 OFFCURVE",
"231 716 CURVE SMOOTH",
"231 727 OFFCURVE",
"253 740 OFFCURVE",
"268 745 CURVE SMOOTH",
"283 752 OFFCURVE",
"301 754 OFFCURVE",
"319 754 CURVE SMOOTH",
"345 754 OFFCURVE",
"365 748 OFFCURVE",
"381 735 CURVE SMOOTH",
"396 722 OFFCURVE",
"403 706 OFFCURVE",
"403 685 CURVE SMOOTH",
"403 663 OFFCURVE",
"396 645 OFFCURVE",
"380 630 CURVE SMOOTH",
"378.304 628.546 OFFCURVE",
"376.666 627.092 OFFCURVE",
"375.044 625.652 CURVE SMOOTH",
"369.974 621.151 OFFCURVE",
"365.061 616.788 OFFCURVE",
"359 613 CURVE SMOOTH",
"327.098 587.301 OFFCURVE",
"326.608 573.382 OFFCURVE",
"326.214 562.195 CURVE SMOOTH",
"326.163 560.758 OFFCURVE",
"326.114 559.366 OFFCURVE",
"326 558 CURVE SMOOTH",
"326 550 OFFCURVE",
"318 547 OFFCURVE",
"312 547 CURVE SMOOTH",
"293 547 LINE SMOOTH",
"280 547 OFFCURVE",
"275 551 OFFCURVE",
"275 559 CURVE SMOOTH"
);
}
);
width = 700;
}
);
},
{
color = 0;
glyphname = A.ss01;
lastChange = "2014-11-21 23:12:47 +0000";
layers = (
{
anchors = (
{
name = ogonek;
position = "{659, 10}";
},
{
name = top;
position = "{375, 523}";
}
);
background = {
anchors = (
{
name = ogonek;
position = "{659, 10}";
},
{
name = top;
position = "{375, 523}";
}
);
paths = (
{
closed = 1;
nodes = (
"303 393 LINE",
"275 393 LINE",
"261 22 LINE SMOOTH",
"260 8 OFFCURVE",
"248 0 OFFCURVE",
"224 0 CURVE SMOOTH",
"200 0 OFFCURVE",
"186 8 OFFCURVE",
"186 22 CURVE SMOOTH",
"186 393 LINE",
"167 393 LINE",
"167 22 LINE SMOOTH",
"167 8 OFFCURVE",
"151 0 OFFCURVE",
"127 0 CURVE SMOOTH",
"103 0 OFFCURVE",
"91 8 OFFCURVE",
"91 22 CURVE",
"76 393 LINE",
"56 393 OFFCURVE",
"42 406 OFFCURVE",
"41 432 CURVE",
"35 669 LINE SMOOTH",
"35 695 OFFCURVE",
"44 716 OFFCURVE",
"75 727 CURVE SMOOTH",
"103 737 OFFCURVE",
"143 760 OFFCURVE",
"143 778 CURVE SMOOTH",
"143 796 LINE",
"139 799 OFFCURVE",
"131 805 OFFCURVE",
"130 826 CURVE SMOOTH",
"127 889 LINE SMOOTH",
"126 914 OFFCURVE",
"150 930 OFFCURVE",
"176 930 CURVE SMOOTH",
"201 930 OFFCURVE",
"225 914 OFFCURVE",
"224 889 CURVE SMOOTH",
"221 826 LINE",
"221 805 OFFCURVE",
"213 799 OFFCURVE",
"208 796 CURVE",
"208 778 LINE SMOOTH",
"208 760 OFFCURVE",
"249 737 OFFCURVE",
"276 727 CURVE SMOOTH",
"307 716 OFFCURVE",
"318 695 OFFCURVE",
"317 669 CURVE SMOOTH",
"311 429 LINE",
"314 429 LINE SMOOTH",
"326 429 OFFCURVE",
"333 423 OFFCURVE",
"336 414 CURVE SMOOTH",
"466 26 LINE",
"467 23 OFFCURVE",
"469 18 OFFCURVE",
"469 14 CURVE SMOOTH",
"469 6 OFFCURVE",
"460 0 OFFCURVE",
"453 0 CURVE SMOOTH",
"444 0 OFFCURVE",
"439 4 OFFCURVE",
"435 14 CURVE"
);
},
{
closed = 1;
nodes = (
"316 15 LINE",
"316 5 OFFCURVE",
"324 0 OFFCURVE",
"341 0 CURVE SMOOTH",
"364 0 OFFCURVE",
"370 1 OFFCURVE",
"372 15 CURVE SMOOTH",
"386 102 LINE",
"330 264 LINE"
);
},
{
closed = 1;
nodes = (
"634 398 OFFCURVE",
"634 398 OFFCURVE",
"632 395 CURVE",
"541 271 LINE",
"400 279 LINE",
"444 148 LINE",
"460 144 OFFCURVE",
"481 142 OFFCURVE",
"497 142 CURVE SMOOTH",
"554 142 LINE",
"565 15 LINE",
"565 5 OFFCURVE",
"580 0 OFFCURVE",
"596 0 CURVE SMOOTH",
"613 0 OFFCURVE",
"620 5 OFFCURVE",
"620 15 CURVE",
"619 166 LINE",
"643 281 LINE",
"686 281 LINE SMOOTH",
"696 281 OFFCURVE",
"703 284 OFFCURVE",
"711 298 CURVE SMOOTH",
"715 305 OFFCURVE",
"718 314 OFFCURVE",
"718 320 CURVE SMOOTH",
"718 324 OFFCURVE",
"715 326 OFFCURVE",
"709 329 CURVE SMOOTH",
"640 365 LINE",
"640 393 LINE SMOOTH",
"640 397 OFFCURVE",
"639 398 OFFCURVE",
"637 398 CURVE SMOOTH"
);
}
);
};
layerId = "166CCA77-1BE6-4372-BC61-BAE07403C72D";
name = Regular;
paths = (
{
closed = 1;
nodes = (
"303 393 LINE",
"275 393 LINE",
"261 22 LINE SMOOTH",
"260.496 8.643 OFFCURVE",
"248 0 OFFCURVE",
"224 0 CURVE SMOOTH",
"200 0 OFFCURVE",
"186 8 OFFCURVE",
"186 22 CURVE SMOOTH",
"186 393 LINE",
"167 393 LINE",
"167 22 LINE SMOOTH",
"167 8 OFFCURVE",
"151 0 OFFCURVE",
"127 0 CURVE SMOOTH",
"103 0 OFFCURVE",
"91 8 OFFCURVE",
"91 22 CURVE SMOOTH",
"76 393 LINE",
"56 393 OFFCURVE",
"42 406 OFFCURVE",
"41 432 CURVE SMOOTH",
"39 511 OFFCURVE",
"35 632 OFFCURVE",
"35 669 CURVE SMOOTH",
"35 695 OFFCURVE",
"44 716 OFFCURVE",
"75 727 CURVE SMOOTH",
"103 737 OFFCURVE",
"143 760 OFFCURVE",
"143 778 CURVE SMOOTH",
"143 796 LINE",
"139 799 OFFCURVE",
"131 805 OFFCURVE",
"130 826 CURVE SMOOTH",
"127.633 875.773 OFFCURVE",
"126.97 887.864 OFFCURVE",
"126.97 890.547 CURVE SMOOTH",
"126.97 914.753 OFFCURVE",
"150.54 930 OFFCURVE",
"176 930 CURVE SMOOTH",
"200.417 930 OFFCURVE",
"224.029 914.737 OFFCURVE",
"224.029 890.733 CURVE SMOOTH",
"224.029 889.278 OFFCURVE",
"223.392 876.295 OFFCURVE",
"221 826 CURVE",
"221 805 OFFCURVE",
"213 799 OFFCURVE",
"208 796 CURVE",
"208 778 LINE SMOOTH",
"208 760 OFFCURVE",
"249 737 OFFCURVE",
"276 727 CURVE SMOOTH",
"307 716 OFFCURVE",
"317 694.992 OFFCURVE",
"317 669 CURVE SMOOTH",
"317 631 OFFCURVE",
"313 509 OFFCURVE",
"311 429 CURVE",
"314 429 LINE SMOOTH",
"326 429 OFFCURVE",
"333 423 OFFCURVE",
"336 414 CURVE SMOOTH",
"466 26 LINE SMOOTH",
"466.909 23.277 OFFCURVE",
"469 17.137 OFFCURVE",
"469 14 CURVE SMOOTH",
"469 6 OFFCURVE",
"460 0 OFFCURVE",
"453 0 CURVE SMOOTH",
"444 0 OFFCURVE",
"439 4 OFFCURVE",
"435 14 CURVE SMOOTH"
);
},
{
closed = 1;
nodes = (
"319.224 72.244 OFFCURVE",
"316.004 15.779 OFFCURVE",
"316.004 14.628 CURVE SMOOTH",
"316.004 5.15 OFFCURVE",
"324.212 0 OFFCURVE",
"341 0 CURVE SMOOTH",
"364 0 OFFCURVE",
"370 1 OFFCURVE",
"372 15 CURVE SMOOTH",
"386 102 LINE",
"330 264 LINE"
);
},
{
closed = 1;
nodes = (
"634.6 398 OFFCURVE",
"633.6 397.4 OFFCURVE",
"632 395 CURVE SMOOTH",
"541 271 LINE",
"400 279 LINE",
"444 148 LINE",
"460 144 OFFCURVE",
"481 142 OFFCURVE",
"497 142 CURVE SMOOTH",
"554 142 LINE",
"565 15 LINE SMOOTH",
"565 5 OFFCURVE",
"580 0 OFFCURVE",
"596 0 CURVE SMOOTH",
"613 0 OFFCURVE",
"620 5 OFFCURVE",
"620 15 CURVE SMOOTH",
"619 166 LINE",
"643 281 LINE",
"686 281 LINE SMOOTH",
"696 281 OFFCURVE",
"703 284 OFFCURVE",
"711 298 CURVE SMOOTH",
"715 305 OFFCURVE",
"718 314 OFFCURVE",
"718 320 CURVE SMOOTH",
"718 324 OFFCURVE",
"715 326 OFFCURVE",
"709 329 CURVE SMOOTH",
"640 365 LINE",
"640 393 LINE SMOOTH",
"640 397 OFFCURVE",
"639 398 OFFCURVE",
"637 398 CURVE SMOOTH"
);
}
);
width = 730;
}
);
},
{
color = 0;
glyphname = B.ss01;
lastChange = "2014-11-21 23:16:22 +0000";
layers = (
{
background = {
paths = (
{
closed = 1;
nodes = (
"500 268 OFFCURVE",
"547 250 OFFCURVE",
"595 238 CURVE",
"584 224 LINE",
"380 245 LINE",
"380 231 OFFCURVE",
"392 212 OFFCURVE",
"406 206 CURVE",
"394 13 LINE",
"394 4 OFFCURVE",
"402 0 OFFCURVE",
"416 0 CURVE SMOOTH",
"432 0 OFFCURVE",
"441 4 OFFCURVE",
"443 13 CURVE",
"462 129 LINE",
"492 116 OFFCURVE",
"525 110 OFFCURVE",
"550 110 CURVE SMOOTH",
"597 110 LINE",
"606 13 LINE",
"606 4 OFFCURVE",
"619 0 OFFCURVE",
"633 0 CURVE SMOOTH",
"649 0 OFFCURVE",
"658 4 OFFCURVE",
"658 13 CURVE",
"658 146 LINE",
"674 222 LINE",
"713 222 LINE SMOOTH",
"725 222 OFFCURVE",
"732 227 OFFCURVE",
"737 237 CURVE SMOOTH",
"741 245 OFFCURVE",
"743 251 OFFCURVE",
"743 256 CURVE SMOOTH",
"743 260 OFFCURVE",
"739 265 OFFCURVE",
"734 268 CURVE SMOOTH",
"676 301 LINE",
"676 328 LINE SMOOTH",
"676 330 OFFCURVE",
"674 332 OFFCURVE",
"672 332 CURVE SMOOTH",
"670 332 OFFCURVE",
"668 331 OFFCURVE",
"666 329 CURVE",
"614 263 LINE",
"564 275 OFFCURVE",
"518 292 OFFCURVE",
"467 319 CURVE",
"384 363 OFFCURVE",
"310 418 OFFCURVE",
"310 418 CURVE",
"308 419 LINE",
"309 423 OFFCURVE",
"310 427 OFFCURVE",
"310 431 CURVE",
"317 672 LINE SMOOTH",
"318 697 OFFCURVE",
"307 719 OFFCURVE",
"277 730 CURVE SMOOTH",
"249 740 OFFCURVE",
"209 762 OFFCURVE",
"209 782 CURVE SMOOTH",
"209 797 LINE",
"213 799 OFFCURVE",
"221 806 OFFCURVE",
"222 827 CURVE",
"222 827 OFFCURVE",
"223 866 OFFCURVE",
"224 890 CURVE SMOOTH",
"225 914 OFFCURVE",
"202 930 OFFCURVE",
"176 930 CURVE SMOOTH",
"149 930 OFFCURVE",
"126 914 OFFCURVE",
"127 890 CURVE SMOOTH",
"128 866 OFFCURVE",
"130 827 OFFCURVE",
"130 827 CURVE",
"130 806 OFFCURVE",
"138 799 OFFCURVE",
"142 797 CURVE",
"142 782 LINE SMOOTH",
"142 762 OFFCURVE",
"102 740 OFFCURVE",
"74 730 CURVE SMOOTH",
"44 719 OFFCURVE",
"35 697 OFFCURVE",
"35 672 CURVE SMOOTH",
"41 431 LINE SMOOTH",
"42 412 OFFCURVE",
"50 393 OFFCURVE",
"75 393 CURVE SMOOTH",
"76 393 OFFCURVE",
"91 22 OFFCURVE",
"91 22 CURVE",
"92 7 OFFCURVE",
"103 0 OFFCURVE",
"127 0 CURVE SMOOTH",
"150 0 OFFCURVE",
"166 8 OFFCURVE",
"166 22 CURVE SMOOTH",
"166 389 LINE",
"185 389 LINE",
"185 22 LINE SMOOTH",
"185 8 OFFCURVE",
"201 0 OFFCURVE",
"225 0 CURVE SMOOTH",
"249 0 OFFCURVE",
"260 7 OFFCURVE",
"261 22 CURVE",
"276 393 LINE",
"282 393 OFFCURVE",
"287 394 OFFCURVE",
"291 396 CURVE",
"305 386 OFFCURVE",
"375 335 OFFCURVE",
"452 294 CURVE"
);
},
{
closed = 0;
nodes = (
"276 393 LINE"
);
}
);
};
layerId = "166CCA77-1BE6-4372-BC61-BAE07403C72D";
name = Regular;
paths = (
{
closed = 1;
nodes = (
"490.927 264.018 OFFCURVE",
"595 238 CURVE",
"584 224 LINE",
"380 245 LINE",
"380 231 OFFCURVE",
"392 212 OFFCURVE",
"406 206 CURVE",
"396.832 58.505 OFFCURVE",
"393.992 13.562 OFFCURVE",
"394.001 12.811 CURVE SMOOTH",
"394.001 3.944 OFFCURVE",
"402.099 0 OFFCURVE",
"416 0 CURVE SMOOTH",
"432 0 OFFCURVE",
"441 4 OFFCURVE",
"443 13 CURVE SMOOTH",
"462 129 LINE",
"492 116 OFFCURVE",
"525 110 OFFCURVE",
"550 110 CURVE SMOOTH",
"597 110 LINE",
"606 13 LINE SMOOTH",
"606.84 3.946 OFFCURVE",
"619 0 OFFCURVE",
"633 0 CURVE SMOOTH",
"649 0 OFFCURVE",
"658 4 OFFCURVE",
"658 13 CURVE SMOOTH",
"658 146 LINE",
"674 222 LINE",
"713 222 LINE SMOOTH",
"725 222 OFFCURVE",
"732 227 OFFCURVE",
"737 237 CURVE SMOOTH",
"741 245 OFFCURVE",
"743 251 OFFCURVE",
"743 256 CURVE SMOOTH",
"743 260 OFFCURVE",
"739 265 OFFCURVE",
"734 268 CURVE SMOOTH",
"676 301 LINE",
"676 328 LINE SMOOTH",
"676 330.486 OFFCURVE",
"674.486 332 OFFCURVE",
"672 332 CURVE SMOOTH",
"669.814 332 OFFCURVE",
"667.53 330.942 OFFCURVE",
"666 329 CURVE SMOOTH",
"614 263 LINE",
"521.112 285.293 OFFCURVE",
"414.264 339.884 OFFCURVE",
"308 419 CURVE",
"309 423 OFFCURVE",
"310 427 OFFCURVE",
"310 431 CURVE SMOOTH",
"316.169 643.053 OFFCURVE",
"317.062 671.85 OFFCURVE",
"317.062 674.983 CURVE SMOOTH",
"317.062 698.741 OFFCURVE",
"305.801 719.44 OFFCURVE",
"277 730 CURVE SMOOTH",
"249 740 OFFCURVE",
"209 762 OFFCURVE",
"209 782 CURVE SMOOTH",
"209 797 LINE",
"213 799 OFFCURVE",
"221 806 OFFCURVE",
"222 827 CURVE SMOOTH",
"222.831 844.447 OFFCURVE",
"224.031 873.548 OFFCURVE",
"224.031 891.503 CURVE SMOOTH",
"224.031 914.666 OFFCURVE",
"201.453 930 OFFCURVE",
"176 930 CURVE SMOOTH",
"149.567 930 OFFCURVE",
"126.969 914.665 OFFCURVE",
"126.969 891.503 CURVE SMOOTH",
"126.969 889.336 OFFCURVE",
"129.155 844.738 OFFCURVE",
"130 827 CURVE SMOOTH",
"131 806 OFFCURVE",
"138 799 OFFCURVE",
"142 797 CURVE",
"142 782 LINE SMOOTH",
"142 762 OFFCURVE",
"102 740 OFFCURVE",
"74 730 CURVE SMOOTH",
"44 719 OFFCURVE",
"35 697 OFFCURVE",
"35 672 CURVE SMOOTH",
"35 655.344 OFFCURVE",
"35.92 632.035 OFFCURVE",
"41 431 CURVE SMOOTH",
"41.478 411.98 OFFCURVE",
"50 393 OFFCURVE",
"75 393 CURVE",
"91 22 LINE SMOOTH",
"92 7 OFFCURVE",
"103 0 OFFCURVE",
"127 0 CURVE SMOOTH",
"150 0 OFFCURVE",
"166 8 OFFCURVE",
"166 22 CURVE SMOOTH",
"166 389 LINE",
"185 389 LINE",
"185 22 LINE SMOOTH",
"185 8 OFFCURVE",
"201 0 OFFCURVE",
"225 0 CURVE SMOOTH",
"249 0 OFFCURVE",
"260 7 OFFCURVE",
"261 22 CURVE SMOOTH",
"276 393 LINE",
"282 393 OFFCURVE",
"287 394 OFFCURVE",
"291 396 CURVE",
"394.216 322.295 OFFCURVE"
);
}
);
width = 730;
}
);
},
{
color = 0;
glyphname = C.ss01;
lastChange = "2014-11-21 23:18:40 +0000";
layers = (
{
background = {
paths = (
{
closed = 1;
nodes = (
"451 31 LINE",
"452 20 OFFCURVE",
"452 19 OFFCURVE",
"452 17 CURVE SMOOTH",
"452 6 OFFCURVE",
"440 0 OFFCURVE",
"419 0 CURVE SMOOTH",
"394 0 OFFCURVE",
"380 4 OFFCURVE",
"375 22 CURVE",
"343 231 LINE",
"265 357 LINE",
"215 218 LINE",
"206 195 OFFCURVE",
"195 176 OFFCURVE",
"178 148 CURVE",
"159 117 OFFCURVE",
"96 21 OFFCURVE",
"96 21 CURVE",
"92 15 OFFCURVE",
"85 12 OFFCURVE",
"78 12 CURVE SMOOTH",
"70 12 OFFCURVE",
"62 15 OFFCURVE",
"48 25 CURVE SMOOTH",
"36 34 OFFCURVE",
"30 42 OFFCURVE",
"30 51 CURVE SMOOTH",
"30 57 OFFCURVE",
"34 65 OFFCURVE",
"59 106 CURVE",
"131 225 LINE",
"179 451 LINE",
"197 624 LINE",
"142 572 LINE",
"129 462 LINE",
"126 438 OFFCURVE",
"115 430 OFFCURVE",
"98 430 CURVE SMOOTH",
"80 430 OFFCURVE",
"66 446 OFFCURVE",
"66 462 CURVE",
"66 469 OFFCURVE",
"74 530 OFFCURVE",
"77 552 CURVE",
"79 572 LINE SMOOTH",
"81 590 OFFCURVE",
"88 608 OFFCURVE",
"97 620 CURVE",
"175 721 LINE",
"192 745 OFFCURVE",
"212 758 OFFCURVE",
"228 764 CURVE SMOOTH",
"240 769 OFFCURVE",
"252 778 OFFCURVE",
"252 793 CURVE",
"243 801 OFFCURVE",
"238 810 OFFCURVE",
"238 825 CURVE SMOOTH",
"238 832 OFFCURVE",
"239 845 OFFCURVE",
"240 859 CURVE",
"242 891 LINE SMOOTH",
"244 915 OFFCURVE",
"260 930 OFFCURVE",
"287 930 CURVE SMOOTH",
"314 930 OFFCURVE",
"337 912 OFFCURVE",
"337 891 CURVE SMOOTH",
"337 883 OFFCURVE",
"335 870 OFFCURVE",
"333 853 CURVE",
"329 818 LINE",
"327 804 OFFCURVE",
"320 794 OFFCURVE",
"308 790 CURVE",
"306 759 LINE",
"323 752 OFFCURVE",
"338 738 OFFCURVE",
"351 716 CURVE SMOOTH",
"370 684 OFFCURVE",
"422 593 OFFCURVE",
"422 593 CURVE",
"506 568 LINE",
"521 563 OFFCURVE",
"527 556 OFFCURVE",
"527 542 CURVE SMOOTH",
"527 536 OFFCURVE",
"525 527 OFFCURVE",
"522 523 CURVE SMOOTH",
"514 513 OFFCURVE",
"507 507 OFFCURVE",
"496 507 CURVE SMOOTH",
"491 507 OFFCURVE",
"486 508 OFFCURVE",
"482 509 CURVE SMOOTH",
"408 528 LINE SMOOTH",
"390 533 OFFCURVE",
"382 537 OFFCURVE",
"372 550 CURVE",
"335 606 LINE",
"326 457 LINE",
"417 278 LINE",
"423 264 OFFCURVE",
"424 259 OFFCURVE",
"427 236 CURVE"
);
}
);
};
layerId = "166CCA77-1BE6-4372-BC61-BAE07403C72D";
name = Regular;
paths = (
{
closed = 1;
nodes = (
"451 31 LINE SMOOTH",
"452 20 OFFCURVE",
"452 19 OFFCURVE",
"452 17 CURVE SMOOTH",
"452 6 OFFCURVE",
"440 0 OFFCURVE",
"419 0 CURVE SMOOTH",
"394 0 OFFCURVE",
"380 4 OFFCURVE",
"375 22 CURVE SMOOTH",
"343 231 LINE",
"265 357 LINE",
"215 218 LINE SMOOTH",
"206 195 OFFCURVE",
"195 176 OFFCURVE",
"178 148 CURVE SMOOTH",
"96 21 LINE SMOOTH",
"92 15 OFFCURVE",
"85 12 OFFCURVE",
"78 12 CURVE SMOOTH",
"70 12 OFFCURVE",
"62 15 OFFCURVE",
"48 25 CURVE SMOOTH",
"36 34 OFFCURVE",
"30 42 OFFCURVE",
"30 51 CURVE SMOOTH",
"30 57 OFFCURVE",
"34 65 OFFCURVE",
"59 106 CURVE SMOOTH",
"131 225 LINE",
"179 451 LINE",
"197 624 LINE",
"142 572 LINE",
"129 462 LINE SMOOTH",
"126 438 OFFCURVE",
"115 430 OFFCURVE",
"98 430 CURVE SMOOTH",
"80 430 OFFCURVE",
"66 446 OFFCURVE",
"66 462 CURVE SMOOTH",
"66 468.719 OFFCURVE",
"69.993 496.34 OFFCURVE",
"79 572 CURVE SMOOTH",
"81 590 OFFCURVE",
"88 608 OFFCURVE",
"97 620 CURVE SMOOTH",
"175 721 LINE SMOOTH",
"192.493 743.651 OFFCURVE",
"212 758 OFFCURVE",
"228 764 CURVE SMOOTH",
"240 769 OFFCURVE",
"252 778 OFFCURVE",
"252 793 CURVE",
"243 801 OFFCURVE",
"238 810 OFFCURVE",
"238 825 CURVE SMOOTH",
"238 826.691 OFFCURVE",
"239.229 846.963 OFFCURVE",
"242 891 CURVE SMOOTH",
"244 915 OFFCURVE",
"260 930 OFFCURVE",
"287 930 CURVE SMOOTH",
"314 930 OFFCURVE",
"337 912 OFFCURVE",
"337 891 CURVE SMOOTH",
"337 882.049 OFFCURVE",
"334.029 861.443 OFFCURVE",
"329 818 CURVE SMOOTH",
"327 804 OFFCURVE",
"320 794 OFFCURVE",
"308 790 CURVE",
"306 759 LINE",
"323 752 OFFCURVE",
"338 738 OFFCURVE",
"351 716 CURVE SMOOTH",
"422 593 LINE",
"506 568 LINE SMOOTH",
"521 563 OFFCURVE",
"527 556 OFFCURVE",
"527 542 CURVE SMOOTH",
"527 523.154 OFFCURVE",
"512.492 507 OFFCURVE",
"496 507 CURVE SMOOTH",
"491 507 OFFCURVE",
"486 508 OFFCURVE",
"482 509 CURVE SMOOTH",
"408 528 LINE SMOOTH",
"390 533 OFFCURVE",
"382 537 OFFCURVE",
"372 550 CURVE SMOOTH",
"335 606 LINE",
"326 457 LINE",
"417 278 LINE SMOOTH",
"423 264 OFFCURVE",
"424 259 OFFCURVE",
"427 236 CURVE SMOOTH"
);
}
);
width = 540;
}
);
},
{
color = 0;
glyphname = D.ss01;
lastChange = "2014-11-22 01:07:13 +0000";
layers = (
{
background = {
paths = (
{
closed = 1;
nodes = (
"430 542 LINE",
"430 542 OFFCURVE",
"440 523 OFFCURVE",
"459 523 CURVE SMOOTH",
"537 523 LINE",
"537 448 LINE",
"494 448 OFFCURVE",
"460 424 OFFCURVE",
"459 381 CURVE",
"450 98 LINE",
"450 88 OFFCURVE",
"459 69 OFFCURVE",
"479 69 CURVE",
"479 69 OFFCURVE",
"711 69 OFFCURVE",
"711 69 CURVE",
"731 69 OFFCURVE",
"740 88 OFFCURVE",
"740 98 CURVE",
"731 381 LINE SMOOTH",
"730 419 OFFCURVE",
"699 448 OFFCURVE",
"663 448 CURVE SMOOTH",
"653 448 LINE",
"653 534 LINE SMOOTH",
"653 548 OFFCURVE",
"649 554 OFFCURVE",
"640 554 CURVE",
"624 554 LINE",
"624 577 OFFCURVE",
"612 591 OFFCURVE",
"585 591 CURVE SMOOTH",
"479 591 LINE",
"411 691 LINE",
"398 707 OFFCURVE",
"379 722 OFFCURVE",
"358 730 CURVE SMOOTH",
"329 741 OFFCURVE",
"290 762 OFFCURVE",
"290 782 CURVE SMOOTH",
"290 797 LINE",
"294 799 OFFCURVE",
"302 806 OFFCURVE",
"303 827 CURVE",
"303 827 OFFCURVE",
"304 866 OFFCURVE",
"305 890 CURVE SMOOTH",
"306 914 OFFCURVE",
"283 930 OFFCURVE",
"257 930 CURVE SMOOTH",
"230 930 OFFCURVE",
"207 914 OFFCURVE",
"208 890 CURVE SMOOTH",
"209 866 OFFCURVE",
"211 827 OFFCURVE",
"211 827 CURVE",
"211 806 OFFCURVE",
"219 799 OFFCURVE",
"223 797 CURVE",
"223 782 LINE SMOOTH",
"223 762 OFFCURVE",
"194 742 OFFCURVE",
"170 735 CURVE",
"135 725 OFFCURVE",
"88 692 OFFCURVE",
"58 663 CURVE",
"-9 792 LINE",
"-15 804 OFFCURVE",
"-24 811 OFFCURVE",
"-36 811 CURVE",
"-51 811 OFFCURVE",
"-64 798 OFFCURVE",
"-64 783 CURVE",
"-64 776 OFFCURVE",
"-61 770 OFFCURVE",
"-56 760 CURVE",
"20 611 LINE",
"26 600 OFFCURVE",
"40 593 OFFCURVE",
"58 593 CURVE",
"72 593 OFFCURVE",
"84 595 OFFCURVE",
"100 607 CURVE",
"149 643 LINE",
"169 22 LINE",
"170 7 OFFCURVE",
"184 0 OFFCURVE",
"208 0 CURVE SMOOTH",
"232 0 OFFCURVE",
"247 8 OFFCURVE",
"247 22 CURVE SMOOTH",
"247 389 LINE",
"266 389 LINE",
"266 22 LINE SMOOTH",
"266 8 OFFCURVE",
"282 0 OFFCURVE",
"306 0 CURVE SMOOTH",
"330 0 OFFCURVE",
"341 7 OFFCURVE",
"342 22 CURVE",
"362 623 LINE"
);
},
{
closed = 1;
nodes = (
"569 448 LINE",
"569 523 LINE",
"621 523 LINE",
"621 448 LINE"
);
},
{
closed = 1;
nodes = (
"647 51 OFFCURVE",
"635 40 OFFCURVE",
"635 25 CURVE SMOOTH",
"635 11 OFFCURVE",
"647 0 OFFCURVE",
"661 0 CURVE SMOOTH",
"676 0 OFFCURVE",
"687 11 OFFCURVE",
"687 25 CURVE SMOOTH",
"687 40 OFFCURVE",
"676 51 OFFCURVE",
"661 51 CURVE SMOOTH"
);
},
{
closed = 1;
nodes = (
"516 51 OFFCURVE",
"504 40 OFFCURVE",
"504 25 CURVE SMOOTH",
"504 11 OFFCURVE",
"516 0 OFFCURVE",
"530 0 CURVE SMOOTH",
"544 0 OFFCURVE",
"556 11 OFFCURVE",
"556 25 CURVE SMOOTH",
"556 40 OFFCURVE",
"544 51 OFFCURVE",
"530 51 CURVE SMOOTH"
);
}
);
};
guideLines = (
{
position = "{263, 741}";
}
);
layerId = "166CCA77-1BE6-4372-BC61-BAE07403C72D";
name = Regular;
paths = (
{
closed = 1;
nodes = (
"430 542 LINE SMOOTH",
"442.191 527.479 OFFCURVE",
"449.684 523 OFFCURVE",
"461.79 523 CURVE SMOOTH",
"537 523 LINE",
"537 448 LINE",
"494 448 OFFCURVE",
"460 424 OFFCURVE",
"459 381 CURVE SMOOTH",
"456 286.667 OFFCURVE",
"450 112.176 OFFCURVE",
"450 98 CURVE SMOOTH",
"450 88 OFFCURVE",
"459 69 OFFCURVE",
"479 69 CURVE SMOOTH",
"711 69 LINE SMOOTH",
"731 69 OFFCURVE",
"740 88 OFFCURVE",
"740 98 CURVE SMOOTH",
"740 112.176 OFFCURVE",
"734 286.667 OFFCURVE",
"731 381 CURVE SMOOTH",
"730 419 OFFCURVE",
"699 448 OFFCURVE",
"663 448 CURVE SMOOTH",
"653 448 LINE",
"653 534 LINE SMOOTH",
"653 548 OFFCURVE",
"649 554 OFFCURVE",
"640 554 CURVE SMOOTH",
"624 554 LINE",
"624 577 OFFCURVE",
"612 591 OFFCURVE",
"585 591 CURVE SMOOTH",
"479 591 LINE",
"411 691 LINE",
"398 707 OFFCURVE",
"379 722 OFFCURVE",
"358 730 CURVE SMOOTH",
"329 741 OFFCURVE",
"290 762 OFFCURVE",
"290 782 CURVE SMOOTH",
"290 797 LINE",
"294 799 OFFCURVE",
"301.726 806.015 OFFCURVE",
"303 827 CURVE SMOOTH",
"304 843.467 OFFCURVE",
"305.031 883.548 OFFCURVE",
"305.031 891.503 CURVE SMOOTH",
"305.031 914.666 OFFCURVE",
"282.453 930 OFFCURVE",
"257 930 CURVE SMOOTH",
"230.567 930 OFFCURVE",
"207.969 914.665 OFFCURVE",
"207.969 891.503 CURVE SMOOTH",
"207.969 889.336 OFFCURVE",
"209.957 845.727 OFFCURVE",
"211 827 CURVE SMOOTH",
"212.168 806.033 OFFCURVE",
"219 799 OFFCURVE",
"223 797 CURVE",
"223 782 LINE SMOOTH",
"223 762 OFFCURVE",
"194 742 OFFCURVE",
"170 735 CURVE SMOOTH",
"135 725 OFFCURVE",
"88 692 OFFCURVE",
"58 663 CURVE",
"-9 792 LINE SMOOTH",
"-15 804 OFFCURVE",
"-24 811 OFFCURVE",
"-36 811 CURVE SMOOTH",
"-51 811 OFFCURVE",
"-64 798 OFFCURVE",
"-64 783 CURVE SMOOTH",
"-64 776 OFFCURVE",
"-61 770 OFFCURVE",
"-56 760 CURVE SMOOTH",
"20 611 LINE SMOOTH",
"26.452 599.171 OFFCURVE",
"39.48 593 OFFCURVE",
"58 593 CURVE SMOOTH",
"72 593 OFFCURVE",
"84 595 OFFCURVE",
"100 607 CURVE SMOOTH",
"149 643 LINE",
"169 22 LINE SMOOTH",
"170 7 OFFCURVE",
"184 0 OFFCURVE",
"208 0 CURVE SMOOTH",
"232 0 OFFCURVE",
"247 8 OFFCURVE",
"247 22 CURVE SMOOTH",
"247 389 LINE",
"266 389 LINE",
"266 22 LINE SMOOTH",
"266 8 OFFCURVE",
"282 0 OFFCURVE",
"306 0 CURVE SMOOTH",
"330 0 OFFCURVE",
"341 7 OFFCURVE",
"342 22 CURVE SMOOTH",
"362 623 LINE"
);
},
{
closed = 1;
nodes = (
"569 448 LINE",
"569 523 LINE",
"621 523 LINE",
"621 448 LINE"
);
},
{
closed = 1;
nodes = (
"647 51 OFFCURVE",
"635 40 OFFCURVE",
"635 25 CURVE SMOOTH",
"635 11 OFFCURVE",
"647 0 OFFCURVE",
"661 0 CURVE SMOOTH",
"676 0 OFFCURVE",
"687 11 OFFCURVE",
"687 25 CURVE SMOOTH",
"687 40 OFFCURVE",
"676 51 OFFCURVE",
"661 51 CURVE SMOOTH"
);
},
{
closed = 1;
nodes = (
"516 51 OFFCURVE",
"504 40 OFFCURVE",
"504 25 CURVE SMOOTH",
"504 11 OFFCURVE",
"516 0 OFFCURVE",
"530 0 CURVE SMOOTH",
"544 0 OFFCURVE",
"556 11 OFFCURVE",
"556 25 CURVE SMOOTH",
"556 40 OFFCURVE",
"544 51 OFFCURVE",
"530 51 CURVE SMOOTH"
);
}
);
width = 800;
}
);
},
{
color = 0;
glyphname = E.ss01;
lastChange = "2014-12-10 22:08:12 +0000";
layers = (
{
background = {
paths = (
{
closed = 1;
nodes = (
"460.378 747.215 OFFCURVE",
"493.111 758.795 OFFCURVE",
"493.111 778.295 CURVE SMOOTH",
"493.171 796.623 LINE",
"488.845 798.868 OFFCURVE",
"481.055 802.575 OFFCURVE",
"480.187 823.243 CURVE SMOOTH",
"479.466 841.61 OFFCURVE",
"478.233 872.419 OFFCURVE",
"477.482 889.894 CURVE SMOOTH",
"476.509 913.863 OFFCURVE",
"499.826 929.984 OFFCURVE",
"526.335 929.984 CURVE SMOOTH",
"552.795 929.984 OFFCURVE",
"576.274 913.78 OFFCURVE",
"575.134 889.894 CURVE SMOOTH",
"574.305 872.478 OFFCURVE",
"573.107 841.644 OFFCURVE",
"572.434 823.243 CURVE SMOOTH",
"571.621 802.575 OFFCURVE",
"563.827 798.868 OFFCURVE",
"559.501 796.595 CURVE",
"559.431 778.295 LINE SMOOTH",
"559.431 758.795 OFFCURVE",
"598.224 746.809 OFFCURVE",
"625.004 737.557 CURVE SMOOTH",
"657.15 726.509 OFFCURVE",
"657.15 694.1 OFFCURVE",
"657.15 668.778 CURVE SMOOTH",
"657.15 431.717 LINE SMOOTH",
"657.15 412.311 OFFCURVE",
"650.439 393.3 OFFCURVE",
"625.428 393.29 CURVE",
"609.842 21.971 LINE SMOOTH",
"609.3 7.499 OFFCURVE",
"597.777 0.197 OFFCURVE",
"573.868 0.197 CURVE SMOOTH",
"550.172 0.197 OFFCURVE",
"534.698 8.071 OFFCURVE",
"534.698 21.973 CURVE SMOOTH",
"534.753 389.316 LINE",
"515.168 389.316 LINE",
"515.224 21.973 LINE SMOOTH",
"515.224 8.071 OFFCURVE",
"499.804 0.197 OFFCURVE",
"475.939 0.197 CURVE SMOOTH",
"452.027 0.197 OFFCURVE",
"440.566 7.5 OFFCURVE",
"439.969 21.973 CURVE SMOOTH",
"417.016 620.798 LINE",
"357.831 541.846 LINE SMOOTH",
"345.875 527.109 OFFCURVE",
"336.906 522.743 OFFCURVE",
"318.591 522.743 CURVE SMOOTH",
"193.563 522.743 LINE SMOOTH",
"175.058 522.743 OFFCURVE",
"159.855 537.946 OFFCURVE",
"159.855 556.397 CURVE SMOOTH",
"159.842 574.869 OFFCURVE",
"174.015 588.367 OFFCURVE",
"192.463 588.367 CURVE SMOOTH",
"296.919 588.367 LINE",
"367.899 695.992 LINE SMOOTH",
"383.721 719.983 OFFCURVE",
"399.31 730.692 OFFCURVE",
"424.831 737.557 CURVE SMOOTH"
);
}
);
};
layerId = "166CCA77-1BE6-4372-BC61-BAE07403C72D";
name = Regular;
paths = (
{
closed = 1;
nodes = (
"598.224 746.809 OFFCURVE",
"559.431 758.795 OFFCURVE",
"559.431 778.295 CURVE SMOOTH",
"559.501 796.595 LINE",
"563.827 798.868 OFFCURVE",
"571.621 802.575 OFFCURVE",
"572.434 823.243 CURVE SMOOTH",
"573.107 841.644 OFFCURVE",
"574.305 872.478 OFFCURVE",
"575.134 889.894 CURVE SMOOTH",
"576.274 913.78 OFFCURVE",
"552.795 929.984 OFFCURVE",
"526.335 929.984 CURVE SMOOTH",
"499.826 929.984 OFFCURVE",
"476.509 913.863 OFFCURVE",
"477.482 889.894 CURVE SMOOTH",
"478.233 872.419 OFFCURVE",
"479.466 841.61 OFFCURVE",
"480.187 823.243 CURVE SMOOTH",
"481.055 802.575 OFFCURVE",
"488.845 798.868 OFFCURVE",
"493.171 796.623 CURVE",
"493.111 778.295 LINE SMOOTH",
"493.111 758.795 OFFCURVE",
"460.378 747.215 OFFCURVE",
"424.831 737.557 CURVE SMOOTH",
"399.31 730.692 OFFCURVE",
"383.721 719.983 OFFCURVE",
"367.899 695.992 CURVE SMOOTH",
"296.919 588.367 LINE",
"192.463 588.367 LINE SMOOTH",
"174.015 588.367 OFFCURVE",
"159.842 574.869 OFFCURVE",
"159.855 556.397 CURVE SMOOTH",
"159.846 554 LINE",
"143 554 LINE SMOOTH",
"134 554 OFFCURVE",
"130 548 OFFCURVE",
"130 534 CURVE SMOOTH",
"130 448 LINE",
"120 448 LINE SMOOTH",
"84 448 OFFCURVE",
"53 419 OFFCURVE",
"52 381 CURVE SMOOTH",
"49 286.667 OFFCURVE",
"43 112.333 OFFCURVE",
"43 98 CURVE SMOOTH",
"43 88 OFFCURVE",
"52 69 OFFCURVE",
"72 69 CURVE SMOOTH",
"304 69 LINE SMOOTH",
"324 69 OFFCURVE",
"333 88 OFFCURVE",
"333 98 CURVE SMOOTH",
"333 112.333 OFFCURVE",
"327 286.667 OFFCURVE",
"324 381 CURVE SMOOTH",
"323 424 OFFCURVE",
"289 448 OFFCURVE",
"246 448 CURVE",
"246 523 LINE",
"318.591 523 LINE SMOOTH",
"336.906 523 OFFCURVE",
"345.875 527.109 OFFCURVE",
"357.831 541.846 CURVE SMOOTH",
"417.016 620.798 LINE",
"439.969 21.973 LINE SMOOTH",
"440.566 7.5 OFFCURVE",
"452.027 0.197 OFFCURVE",
"475.939 0.197 CURVE SMOOTH",
"499.804 0.197 OFFCURVE",
"515.224 8.071 OFFCURVE",
"515.224 21.973 CURVE",
"515.168 389.316 LINE",
"534.753 389.316 LINE",
"534.698 21.973 LINE SMOOTH",
"534.698 8.071 OFFCURVE",
"550.172 0.197 OFFCURVE",
"573.868 0.197 CURVE SMOOTH",
"597.777 0.197 OFFCURVE",
"609.3 7.499 OFFCURVE",
"609.842 21.971 CURVE SMOOTH",
"625.428 393.29 LINE",
"650.439 393.3 OFFCURVE",
"657.15 412.311 OFFCURVE",
"657.15 431.717 CURVE SMOOTH",
"657.15 668.778 LINE SMOOTH",
"657.15 707.624 OFFCURVE",
"651.267 728.531 OFFCURVE",
"625.004 737.557 CURVE"
);
},
{
closed = 1;
nodes = (
"162 448 LINE",
"162 523 LINE",
"214 523 LINE",
"214 448 LINE"
);
},
{
closed = 1;
nodes = (
"107 51 OFFCURVE",
"96 40 OFFCURVE",
"96 25 CURVE SMOOTH",
"96 11 OFFCURVE",
"107 0 OFFCURVE",
"122 0 CURVE SMOOTH",
"136 0 OFFCURVE",
"148 11 OFFCURVE",
"148 25 CURVE SMOOTH",
"148 40 OFFCURVE",
"136 51 OFFCURVE",
"122 51 CURVE SMOOTH"
);
},
{
closed = 1;
nodes = (
"239 51 OFFCURVE",
"227 40 OFFCURVE",
"227 25 CURVE SMOOTH",
"227 11 OFFCURVE",
"239 0 OFFCURVE",
"253 0 CURVE SMOOTH",
"267 0 OFFCURVE",
"279 11 OFFCURVE",
"279 25 CURVE SMOOTH",
"279 40 OFFCURVE",
"267 51 OFFCURVE",
"253 51 CURVE SMOOTH"
);
}
);
width = 700;
}
);
},
{
color = 0;
glyphname = F.ss01;
lastChange = "2014-12-12 17:12:57 +0000";
layers = (
{
background = {
paths = (
{
closed = 1;
nodes = (
"456.378 747.215 OFFCURVE",
"489.111 758.795 OFFCURVE",
"489.111 778.295 CURVE SMOOTH",
"489.171 796.623 LINE",
"484.845 798.868 OFFCURVE",
"477.055 802.575 OFFCURVE",
"476.187 823.243 CURVE",
"476.187 823.243 OFFCURVE",
"474.511 865.956 OFFCURVE",
"473.482 889.894 CURVE SMOOTH",
"472.509 913.863 OFFCURVE",
"495.826 929.984 OFFCURVE",
"522.335 929.984 CURVE SMOOTH",
"548.795 929.984 OFFCURVE",
"572.274 913.78 OFFCURVE",
"571.134 889.894 CURVE SMOOTH",
"570 866.037 OFFCURVE",
"568.434 823.243 OFFCURVE",
"568.434 823.243 CURVE",
"567.621 802.575 OFFCURVE",
"559.827 798.868 OFFCURVE",
"555.501 796.595 CURVE",
"555.431 778.295 LINE SMOOTH",
"555.431 758.795 OFFCURVE",
"594.224 746.809 OFFCURVE",
"621.004 737.557 CURVE SMOOTH",
"653.15 726.509 OFFCURVE",
"653.15 694.1 OFFCURVE",
"653.15 668.778 CURVE SMOOTH",
"653.15 431.717 LINE",
"651.634 412.37 OFFCURVE",
"646.439 393.3 OFFCURVE",
"621.428 393.29 CURVE SMOOTH",
"620.941 393.29 OFFCURVE",
"605.842 21.971 OFFCURVE",
"605.842 21.971 CURVE",
"605.3 7.499 OFFCURVE",
"593.777 0.197 OFFCURVE",
"569.868 0.197 CURVE SMOOTH",
"546.172 0.197 OFFCURVE",
"530.698 8.071 OFFCURVE",
"530.698 21.973 CURVE SMOOTH",
"530.753 389.316 LINE",
"511.168 389.316 LINE",
"511.224 21.973 LINE SMOOTH",
"511.224 8.071 OFFCURVE",
"495.804 0.197 OFFCURVE",
"471.939 0.197 CURVE SMOOTH",
"448.027 0.197 OFFCURVE",
"436.566 7.5 OFFCURVE",
"435.969 21.973 CURVE SMOOTH",
"413.016 620.798 LINE",
"333.596 540.161 LINE",
"333.596 540.161 OFFCURVE",
"324.236 528.743 OFFCURVE",
"300.591 528.743 CURVE SMOOTH",
"150.563 528.743 LINE SMOOTH",
"132.058 528.743 OFFCURVE",
"116.855 543.946 OFFCURVE",
"116.855 562.397 CURVE SMOOTH",
"116.842 580.869 OFFCURVE",
"131.015 594.367 OFFCURVE",
"149.463 594.367 CURVE SMOOTH",
"278.919 594.367 LINE",
"278.919 594.367 OFFCURVE",
"354.758 685.091 OFFCURVE",
"363.899 695.992 CURVE SMOOTH",
"373.043 706.948 OFFCURVE",
"386.193 728.24 OFFCURVE",
"420.831 737.557 CURVE SMOOTH"
);
}
);
};
layerId = "166CCA77-1BE6-4372-BC61-BAE07403C72D";
name = Regular;
paths = (
{
closed = 1;
nodes = (
"35 336 OFFCURVE",
"24 326 OFFCURVE",
"24 314 CURVE SMOOTH",
"24 293.667 OFFCURVE",
"45.333 131.333 OFFCURVE",
"56 40 CURVE SMOOTH",
"58 19 OFFCURVE",
"69 -1 OFFCURVE",
"98 -1 CURVE SMOOTH",
"201 -1 LINE SMOOTH",
"230 -1 OFFCURVE",
"241 19 OFFCURVE",
"244 40 CURVE SMOOTH",
"254.333 131.333 OFFCURVE",
"275 293.667 OFFCURVE",
"275 314 CURVE SMOOTH",
"275 325 OFFCURVE",
"264 336 OFFCURVE",
"248 336 CURVE SMOOTH",
"51 336 LINE SMOOTH"
);
},
{
closed = 1;
nodes = (
"178 475 OFFCURVE",
"169 484 OFFCURVE",
"161 484 CURVE SMOOTH",
"157 484 OFFCURVE",
"154 484 OFFCURVE",
"149 482 CURVE SMOOTH",
"130 473 LINE SMOOTH",
"122 469 OFFCURVE",
"119 463 OFFCURVE",
"119 454 CURVE SMOOTH",
"119 449 OFFCURVE",
"121 441 OFFCURVE",
"127 428 CURVE SMOOTH",
"132 417 LINE SMOOTH",
"141 398 OFFCURVE",
"149 388 OFFCURVE",
"159 388 CURVE SMOOTH",
"162 388 OFFCURVE",
"166 389 OFFCURVE",
"170 391 CURVE SMOOTH",
"187 399 LINE SMOOTH",
"197 404 OFFCURVE",
"200 407 OFFCURVE",
"200 418 CURVE SMOOTH",
"200 425 OFFCURVE",
"197 435 OFFCURVE",
"192 446 CURVE SMOOTH",
"187 456 LINE SMOOTH"
);
},
{
closed = 1;
nodes = (
"387.893 728.608 OFFCURVE",
"381.293 713.105 OFFCURVE",
"365.64 686.958 CURVE SMOOTH",
"307 589 LINE",
"202 589 LINE SMOOTH",
"183 589 OFFCURVE",
"169 573 OFFCURVE",
"169 557 CURVE SMOOTH",
"169 538 OFFCURVE",
"184 523 OFFCURVE",
"203 523 CURVE SMOOTH",
"331 523 LINE SMOOTH",
"351 523 OFFCURVE",
"355.612 528.825 OFFCURVE",
"362 538 CURVE SMOOTH",
"413.42 611.522 LINE",
"438 22 LINE SMOOTH",
"438.589 6.978 OFFCURVE",
"450 0 OFFCURVE",
"474 0 CURVE SMOOTH",
"497 0 OFFCURVE",
"513 8 OFFCURVE",
"513 22 CURVE SMOOTH",
"513 389 LINE",
"532 389 LINE",
"532 22 LINE SMOOTH",
"532 8 OFFCURVE",
"548 0 OFFCURVE",
"572 0 CURVE SMOOTH",
"596 0 OFFCURVE",
"607.393 6.979 OFFCURVE",
"608 22 CURVE SMOOTH",
"623.186 393.3 LINE",
"646.439 393.3 OFFCURVE",
"653.15 412.311 OFFCURVE",
"653.15 431.717 CURVE SMOOTH",
"653.15 668.778 LINE SMOOTH",
"653.15 707.624 OFFCURVE",
"647.267 728.531 OFFCURVE",
"621.004 737.557 CURVE",
"594.224 746.809 OFFCURVE",
"555.431 758.795 OFFCURVE",
"555.431 778.295 CURVE SMOOTH",
"555.501 796.595 LINE",
"559.827 798.868 OFFCURVE",
"567.621 802.575 OFFCURVE",
"568.434 823.243 CURVE SMOOTH",
"569.107 841.644 OFFCURVE",
"570.305 872.478 OFFCURVE",
"571.134 889.894 CURVE SMOOTH",
"572.274 913.78 OFFCURVE",
"548.795 929.984 OFFCURVE",
"522.335 929.984 CURVE SMOOTH",
"495.826 929.984 OFFCURVE",
"472.509 913.863 OFFCURVE",
"473.482 889.894 CURVE SMOOTH",
"474.233 872.419 OFFCURVE",
"475.466 841.61 OFFCURVE",
"476.187 823.243 CURVE SMOOTH",
"477.055 802.575 OFFCURVE",
"484.845 798.868 OFFCURVE",
"489.171 796.623 CURVE",
"489.111 778.295 LINE SMOOTH",
"489.111 758.795 OFFCURVE",
"456.378 747.215 OFFCURVE",
"420.831 737.557 CURVE SMOOTH"
);
}
);
width = 696;
}
);
rightMetricsKey = "=E.ss01";
},
{
color = 0;
glyphname = G.ss01;
lastChange = "2014-12-10 22:19:25 +0000";
layers = (
{
background = {
paths = (
{
closed = 1;
nodes = (
"850.833 693.859 OFFCURVE",
"841.414 715.488 OFFCURVE",
"811.259 726.343 CURVE SMOOTH",
"782.889 736.466 OFFCURVE",
"742.826 758.907 OFFCURVE",
"742.826 778.368 CURVE SMOOTH",
"742.826 797.209 LINE",
"747.212 799.401 OFFCURVE",
"755.009 805.871 OFFCURVE",
"755.874 826.552 CURVE SMOOTH",
"758.527 889.975 LINE SMOOTH",
"759.772 913.877 OFFCURVE",
"736.222 930.065 OFFCURVE",
"709.695 930.065 CURVE SMOOTH",
"683.22 930.065 OFFCURVE",
"659.834 913.905 OFFCURVE",
"660.863 889.975 CURVE SMOOTH",
"663.568 826.552 LINE SMOOTH",
"664.435 805.871 OFFCURVE",
"672.23 799.401 OFFCURVE",
"676.562 797.209 CURVE",
"676.562 778.368 LINE SMOOTH",
"676.562 758.907 OFFCURVE",
"636.553 736.466 OFFCURVE",
"608.186 726.343 CURVE SMOOTH",
"577.978 715.488 OFFCURVE",
"568.665 693.859 OFFCURVE",
"568.665 668.494 CURVE SMOOTH",
"573.754 463.663 LINE",
"505.649 463.663 LINE",
"505.269 640.695 LINE SMOOTH",
"505.269 662.812 OFFCURVE",
"491.898 678.212 OFFCURVE",
"462.77 682.977 CURVE SMOOTH",
"435.107 687.47 OFFCURVE",
"418.648 706.851 OFFCURVE",
"418.648 729.184 CURVE SMOOTH",
"418.648 740.931 LINE",
"422.437 742.664 OFFCURVE",
"432.399 746.697 OFFCURVE",
"433.211 767.433 CURVE SMOOTH",
"435.972 834.13 LINE SMOOTH",
"435.972 858.06 OFFCURVE",
"413.342 874.247 OFFCURVE",
"386.976 874.247 CURVE SMOOTH",
"360.721 874.247 OFFCURVE",
"338.092 858.06 OFFCURVE",
"338.092 834.13 CURVE SMOOTH",
"340.797 767.433 LINE SMOOTH",
"341.609 746.697 OFFCURVE",
"351.571 742.664 OFFCURVE",
"355.416 740.931 CURVE",
"355.416 729.184 LINE SMOOTH",
"355.416 706.851 OFFCURVE",
"338.956 687.47 OFFCURVE",
"311.238 682.977 CURVE SMOOTH",
"282.166 678.212 OFFCURVE",
"268.795 661.783 OFFCURVE",
"268.795 640.695 CURVE SMOOTH",
"268.307 463.663 LINE",
"15.589 463.663 LINE SMOOTH",
"5.627 463.663 OFFCURVE",
"0.646 454.621 OFFCURVE",
"0.646 436.568 CURVE SMOOTH",
"0.646 417.428 LINE SMOOTH",
"0.646 399.375 OFFCURVE",
"5.627 390.333 OFFCURVE",
"15.589 390.333 CURVE SMOOTH",
"609.377 390.333 LINE",
"624.698 21.624 LINE SMOOTH",
"625.238 7.116 OFFCURVE",
"636.825 -0.166 OFFCURVE",
"660.699 -0.166 CURVE SMOOTH",
"684.52 -0.166 OFFCURVE",
"700.004 7.712 OFFCURVE",
"700.004 21.624 CURVE SMOOTH",
"699.949 389.169 LINE",
"719.549 389.169 LINE",
"719.493 21.624 LINE SMOOTH",
"719.493 7.712 OFFCURVE",
"734.924 -0.166 OFFCURVE",
"758.743 -0.166 CURVE SMOOTH",
"782.672 -0.166 OFFCURVE",
"794.151 7.116 OFFCURVE",
"794.692 21.624 CURVE SMOOTH",
"809.743 393.094 LINE",
"835.241 393.094 OFFCURVE",
"844.391 411.905 OFFCURVE",
"844.879 431.316 CURVE SMOOTH",
"850.833 668.494 LINE SMOOTH"
);
}
);
};
layerId = "166CCA77-1BE6-4372-BC61-BAE07403C72D";
name = Regular;
paths = (
{
closed = 1;
nodes = (
"179 700 OFFCURVE",
"230 750 OFFCURVE",
"230 815 CURVE SMOOTH",
"230 879 OFFCURVE",
"179 930 OFFCURVE",
"114 930 CURVE SMOOTH",
"50 930 OFFCURVE",
"0 879 OFFCURVE",
"0 815 CURVE SMOOTH",
"0 750 OFFCURVE",
"50 700 OFFCURVE",
"114 700 CURVE SMOOTH"
);
},
{
closed = 1;
nodes = (
"67 729 OFFCURVE",
"29 767 OFFCURVE",
"29 815 CURVE SMOOTH",
"29 862 OFFCURVE",
"67 900 OFFCURVE",
"114 900 CURVE SMOOTH",
"162 900 OFFCURVE",
"200 862 OFFCURVE",
"200 815 CURVE SMOOTH",
"200 767 OFFCURVE",
"162 729 OFFCURVE",
"114 729 CURVE SMOOTH"
);
},
{
closed = 1;
nodes = (
"112 792 LINE SMOOTH",
"117 792 OFFCURVE",
"119 792 OFFCURVE",
"120 796 CURVE SMOOTH",
"121.662 802.647 OFFCURVE",
"127.293 807.396 OFFCURVE",
"133.309 812.468 CURVE SMOOTH",
"141.774 819.606 OFFCURVE",
"151 827.386 OFFCURVE",
"151 842 CURVE SMOOTH",
"151 861 OFFCURVE",
"138 872 OFFCURVE",
"115 872 CURVE SMOOTH",
"102 872 OFFCURVE",
"84 868 OFFCURVE",
"84 858 CURVE SMOOTH",
"84 855 OFFCURVE",
"90 845 OFFCURVE",
"94 845 CURVE SMOOTH",
"94.618 845 OFFCURVE",
"95.713 845.477 OFFCURVE",
"97.228 846.137 CURVE SMOOTH",
"100.613 847.613 OFFCURVE",
"106.09 850 OFFCURVE",
"113 850 CURVE SMOOTH",
"122 850 OFFCURVE",
"125 846 OFFCURVE",
"125 841 CURVE SMOOTH",
"125 836 OFFCURVE",
"118 830 OFFCURVE",
"110 821 CURVE SMOOTH",
"103.797 814.022 OFFCURVE",
"99 805.632 OFFCURVE",
"99 796 CURVE SMOOTH",
"99 792 OFFCURVE",
"101 792 OFFCURVE",
"108 792 CURVE SMOOTH"
);
},
{
closed = 1;
nodes = (
"106 781 LINE SMOOTH",
"100 781 OFFCURVE",
"96 779 OFFCURVE",
"96 775 CURVE SMOOTH",
"96 759 LINE SMOOTH",
"96 756 OFFCURVE",
"100 754 OFFCURVE",
"106 754 CURVE SMOOTH",
"112 754 LINE SMOOTH",
"119 754 OFFCURVE",
"122 756 OFFCURVE",
"122 759 CURVE SMOOTH",
"122 775 LINE SMOOTH",
"122 779 OFFCURVE",
"119 781 OFFCURVE",
"112 781 CURVE SMOOTH"
);
},
{
closed = 1;
nodes = (
"850.833 693.859 OFFCURVE",
"841.414 715.488 OFFCURVE",
"811.259 726.343 CURVE SMOOTH",
"782.889 736.466 OFFCURVE",
"742.826 758.907 OFFCURVE",
"742.826 778.368 CURVE SMOOTH",
"742.826 797.209 LINE",
"747.212 799.401 OFFCURVE",
"755.009 805.871 OFFCURVE",
"755.874 826.552 CURVE SMOOTH",
"758.527 889.975 LINE SMOOTH",
"759.772 913.877 OFFCURVE",
"736.222 930.065 OFFCURVE",
"709.695 930.065 CURVE SMOOTH",
"683.22 930.065 OFFCURVE",
"659.834 913.905 OFFCURVE",
"660.863 889.975 CURVE SMOOTH",
"663.568 826.552 LINE SMOOTH",
"664.435 805.871 OFFCURVE",
"672.23 799.401 OFFCURVE",
"676.562 797.209 CURVE",
"676.562 778.368 LINE SMOOTH",
"676.562 758.907 OFFCURVE",
"636.553 736.466 OFFCURVE",
"608.186 726.343 CURVE SMOOTH",
"577.978 715.488 OFFCURVE",
"568.665 693.859 OFFCURVE",
"568.665 668.494 CURVE SMOOTH",
"573.754 463.663 LINE",
"505.649 463.663 LINE",
"505.269 640.695 LINE SMOOTH",
"505.269 662.812 OFFCURVE",
"491.898 678.212 OFFCURVE",
"462.77 682.977 CURVE SMOOTH",
"435.107 687.47 OFFCURVE",
"418.648 706.851 OFFCURVE",
"418.648 729.184 CURVE SMOOTH",
"418.648 740.931 LINE",
"422.437 742.664 OFFCURVE",
"432.399 746.697 OFFCURVE",
"433.211 767.433 CURVE SMOOTH",
"435.972 834.13 LINE SMOOTH",
"435.972 858.06 OFFCURVE",
"413.342 874.247 OFFCURVE",
"386.976 874.247 CURVE SMOOTH",
"360.721 874.247 OFFCURVE",
"338.092 858.06 OFFCURVE",
"338.092 834.13 CURVE SMOOTH",
"340.797 767.433 LINE SMOOTH",
"341.609 746.697 OFFCURVE",
"351.571 742.664 OFFCURVE",
"355.416 740.931 CURVE",
"355.416 729.184 LINE SMOOTH",
"355.416 706.851 OFFCURVE",
"338.956 687.47 OFFCURVE",
"311.238 682.977 CURVE SMOOTH",
"282.166 678.212 OFFCURVE",
"268.795 661.783 OFFCURVE",
"268.795 640.695 CURVE SMOOTH",
"268.307 463.663 LINE",
"15.589 463.663 LINE SMOOTH",
"5.627 463.663 OFFCURVE",
"0.646 454.621 OFFCURVE",
"0.646 436.568 CURVE SMOOTH",
"0.646 417.428 LINE SMOOTH",
"0.646 399.375 OFFCURVE",
"5.627 390.333 OFFCURVE",
"15.589 390.333 CURVE SMOOTH",
"609.377 390.333 LINE",
"624.698 21.624 LINE SMOOTH",
"625.238 7.116 OFFCURVE",
"636.825 -0.166 OFFCURVE",
"660.699 -0.166 CURVE SMOOTH",
"684.52 -0.166 OFFCURVE",
"700.004 7.712 OFFCURVE",
"700.004 21.624 CURVE SMOOTH",
"699.949 389.169 LINE",
"719.549 389.169 LINE",
"719.493 21.624 LINE SMOOTH",
"719.493 7.712 OFFCURVE",
"734.924 -0.166 OFFCURVE",
"758.743 -0.166 CURVE SMOOTH",
"782.672 -0.166 OFFCURVE",
"794.151 7.116 OFFCURVE",
"794.692 21.624 CURVE SMOOTH",
"809.743 393.094 LINE",
"835.241 393.094 OFFCURVE",
"844.391 411.905 OFFCURVE",
"844.879 431.316 CURVE SMOOTH",
"850.833 668.494 LINE SMOOTH"
);
}
);
width = 880;
}
);
},
{
color = 0;
glyphname = H.ss01;
lastChange = "2014-11-22 01:24:16 +0000";
layers = (
{
background = {
paths = (
{
closed = 1;
nodes = (
"48 475 LINE",
"49 475 OFFCURVE",
"68 22 OFFCURVE",
"68 22 CURVE",
"69 7 OFFCURVE",
"80 0 OFFCURVE",
"104 0 CURVE SMOOTH",
"127 0 OFFCURVE",
"143 8 OFFCURVE",
"143 22 CURVE SMOOTH",
"143 389 LINE",
"162 389 LINE",
"162 22 LINE SMOOTH",
"162 8 OFFCURVE",
"178 0 OFFCURVE",
"202 0 CURVE SMOOTH",
"226 0 OFFCURVE",
"237 7 OFFCURVE",
"238 22 CURVE",
"257 513 LINE",
"268 513 OFFCURVE",
"289 532 OFFCURVE",
"299 551 CURVE",
"304 560 OFFCURVE",
"305 568 OFFCURVE",
"305 576 CURVE",
"304 588 OFFCURVE",
"300 607 OFFCURVE",
"296 622 CURVE",
"276 702 LINE SMOOTH",
"271 723 OFFCURVE",
"258 740 OFFCURVE",
"229 744 CURVE SMOOTH",
"200 749 OFFCURVE",
"183 768 OFFCURVE",
"183 791 CURVE SMOOTH",
"183 797 LINE",
"187 799 OFFCURVE",
"197 806 OFFCURVE",
"198 827 CURVE SMOOTH",
"201 890 LINE",
"201 914 OFFCURVE",
"178 930 OFFCURVE",
"152 930 CURVE SMOOTH",
"126 930 OFFCURVE",
"103 914 OFFCURVE",
"103 890 CURVE",
"106 827 LINE SMOOTH",
"107 806 OFFCURVE",
"117 799 OFFCURVE",
"120 797 CURVE",
"120 791 LINE SMOOTH",
"120 768 OFFCURVE",
"104 749 OFFCURVE",
"76 744 CURVE SMOOTH",
"47 740 OFFCURVE",
"37 723 OFFCURVE",
"34 702 CURVE SMOOTH",
"9 546 LINE",
"8 538 OFFCURVE",
"6 525 OFFCURVE",
"6 523 CURVE SMOOTH",
"6 494 OFFCURVE",
"16 475 OFFCURVE",
"33 475 CURVE"
);
},
{
closed = 1;
nodes = (
"220 630 OFFCURVE",
"227 633 OFFCURVE",
"234 633 CURVE SMOOTH",
"248 633 OFFCURVE",
"261 621 OFFCURVE",
"261 607 CURVE SMOOTH",
"261 601 OFFCURVE",
"260 595 OFFCURVE",
"256 591 CURVE",
"219 553 LINE",
"206 540 LINE",
"201 535 OFFCURVE",
"195 533 OFFCURVE",
"190 533 CURVE",
"52 533 LINE",
"52 571 OFFCURVE",
"68 591 OFFCURVE",
"111 591 CURVE",
"201 591 LINE",
"199 594 OFFCURVE",
"198 598 OFFCURVE",
"198 601 CURVE",
"198 603 OFFCURVE",
"199 607 OFFCURVE",
"204 613 CURVE",
"215 625 LINE"
);
}
);
};
layerId = "166CCA77-1BE6-4372-BC61-BAE07403C72D";
name = Regular;
paths = (
{
closed = 1;
nodes = (
"48 475 LINE",
"68 22 LINE SMOOTH",
"69 7 OFFCURVE",
"80 0 OFFCURVE",
"104 0 CURVE SMOOTH",
"127 0 OFFCURVE",
"143 8 OFFCURVE",
"143 22 CURVE SMOOTH",
"143 389 LINE",
"162 389 LINE",
"162 22 LINE SMOOTH",
"162 8 OFFCURVE",
"178 0 OFFCURVE",
"202 0 CURVE SMOOTH",
"226 0 OFFCURVE",
"237 7 OFFCURVE",
"238 22 CURVE SMOOTH",
"257 513 LINE",
"268 513 OFFCURVE",
"289 532 OFFCURVE",
"299 551 CURVE SMOOTH",
"304 560 OFFCURVE",
"305 568 OFFCURVE",
"305 576 CURVE SMOOTH",
"305 588.774 OFFCURVE",
"297.87 615.433 OFFCURVE",
"276 702 CURVE SMOOTH",
"271 723 OFFCURVE",
"258 740 OFFCURVE",
"229 744 CURVE SMOOTH",
"200 749 OFFCURVE",
"183 768 OFFCURVE",
"183 791 CURVE SMOOTH",
"183 797 LINE",
"187 799 OFFCURVE",
"197 806 OFFCURVE",
"198 827 CURVE SMOOTH",
"199 848 OFFCURVE",
"201 879 OFFCURVE",
"201 890 CURVE SMOOTH",
"201 914 OFFCURVE",
"178 930 OFFCURVE",
"152 930 CURVE SMOOTH",
"126 930 OFFCURVE",
"103 914 OFFCURVE",
"103 890 CURVE SMOOTH",
"103 879 OFFCURVE",
"105 848 OFFCURVE",
"106 827 CURVE SMOOTH",
"107 806 OFFCURVE",
"117 799 OFFCURVE",
"120 797 CURVE",
"120 791 LINE SMOOTH",
"120 768 OFFCURVE",
"104 749 OFFCURVE",
"76 744 CURVE SMOOTH",
"47 740 OFFCURVE",
"37 723 OFFCURVE",
"34 702 CURVE SMOOTH",
"20.367 616.556 OFFCURVE",
"6 536.084 OFFCURVE",
"6 516.987 CURVE SMOOTH",
"6 494 OFFCURVE",
"16 475 OFFCURVE",
"33 475 CURVE SMOOTH"
);
},
{
closed = 1;
nodes = (
"220 630 OFFCURVE",
"227 633 OFFCURVE",
"234 633 CURVE SMOOTH",
"248 633 OFFCURVE",
"261 621 OFFCURVE",
"261 607 CURVE SMOOTH",
"261 601 OFFCURVE",
"260 595 OFFCURVE",
"256 591 CURVE SMOOTH",
"206 540 LINE SMOOTH",
"201 535 OFFCURVE",
"195 533 OFFCURVE",
"190 533 CURVE SMOOTH",
"52 533 LINE",
"52 571 OFFCURVE",
"68 591 OFFCURVE",
"111 591 CURVE SMOOTH",
"201 591 LINE",
"199 594 OFFCURVE",
"198 598 OFFCURVE",
"198 601 CURVE SMOOTH",
"198 603 OFFCURVE",
"199 607 OFFCURVE",
"204 613 CURVE SMOOTH",
"215 625 LINE SMOOTH"
);
}
);
width = 310;
}
);
},
{
color = 0;
glyphname = I.ss01;
lastChange = "2014-11-22 01:33:03 +0000";
layers = (
{
background = {
paths = (
{
closed = 1;
nodes = (
"168 623 LINE",
"180 702 OFFCURVE",
"203 738 OFFCURVE",
"207 767 CURVE",
"208 797 LINE",
"205 799 OFFCURVE",
"195 806 OFFCURVE",
"194 827 CURVE SMOOTH",
"191 890 LINE",
"191 914 OFFCURVE",
"214 930 OFFCURVE",
"240 930 CURVE SMOOTH",
"266 930 OFFCURVE",
"289 914 OFFCURVE",
"289 890 CURVE",
"288 827 LINE SMOOTH",
"288 805 OFFCURVE",
"281 797 OFFCURVE",
"269 794 CURVE",
"270 767 LINE",
"270 740 OFFCURVE",
"290 721 OFFCURVE",
"298 691 CURVE",
"303 672 OFFCURVE",
"306 655 OFFCURVE",
"306 637 CURVE",
"367 561 LINE",
"439 561 LINE",
"455 561 OFFCURVE",
"468 548 OFFCURVE",
"468 531 CURVE",
"474 528 OFFCURVE",
"478 524 OFFCURVE",
"481 519 CURVE SMOOTH",
"482 518 OFFCURVE",
"522 466 OFFCURVE",
"573 401 CURVE",
"579 419 OFFCURVE",
"591 431 OFFCURVE",
"618 431 CURVE",
"649 431 OFFCURVE",
"665 414 OFFCURVE",
"665 390 CURVE",
"662 345 LINE SMOOTH",
"661 328 OFFCURVE",
"653 322 OFFCURVE",
"646 319 CURVE",
"648 305 LINE",
"675 270 OFFCURVE",
"702 235 OFFCURVE",
"726 204 CURVE",
"745 204 OFFCURVE",
"759 199 OFFCURVE",
"771 186 CURVE SMOOTH",
"871 73 LINE SMOOTH",
"874 69 OFFCURVE",
"876 66 OFFCURVE",
"876 63 CURVE SMOOTH",
"876 57 OFFCURVE",
"869 53 OFFCURVE",
"844 53 CURVE SMOOTH",
"821 53 OFFCURVE",
"812 55 OFFCURVE",
"803 64 CURVE SMOOTH",
"789 78 LINE",
"642 78 LINE",
"590 78 OFFCURVE",
"563 98 OFFCURVE",
"552 148 CURVE",
"506 430 LINE",
"450 500 LINE",
"365 500 LINE",
"355 500 OFFCURVE",
"345 504 OFFCURVE",
"336 510 CURVE",
"310 534 LINE",
"303 458 LINE",
"391 278 LINE",
"397 264 OFFCURVE",
"398 259 OFFCURVE",
"401 236 CURVE",
"424 31 LINE",
"425 20 OFFCURVE",
"425 19 OFFCURVE",
"425 17 CURVE SMOOTH",
"425 6 OFFCURVE",
"414 0 OFFCURVE",
"393 0 CURVE SMOOTH",
"368 0 OFFCURVE",
"354 4 OFFCURVE",
"349 22 CURVE",
"317 231 LINE",
"239 357 LINE",
"189 218 LINE",
"180 195 OFFCURVE",
"169 176 OFFCURVE",
"152 148 CURVE",
"133 117 OFFCURVE",
"70 21 OFFCURVE",
"70 21 CURVE",
"66 15 OFFCURVE",
"59 12 OFFCURVE",
"52 12 CURVE SMOOTH",
"44 12 OFFCURVE",
"36 15 OFFCURVE",
"22 25 CURVE SMOOTH",
"10 34 OFFCURVE",
"4 42 OFFCURVE",
"4 51 CURVE SMOOTH",
"4 57 OFFCURVE",
"8 65 OFFCURVE",
"33 106 CURVE",
"105 225 LINE",
"135 417 LINE"
);
},
{
closed = 1;
nodes = (
"741 51 OFFCURVE",
"729 40 OFFCURVE",
"729 25 CURVE SMOOTH",
"729 11 OFFCURVE",
"741 0 OFFCURVE",
"755 0 CURVE SMOOTH",
"770 0 OFFCURVE",
"781 11 OFFCURVE",
"781 25 CURVE SMOOTH",
"781 40 OFFCURVE",
"770 51 OFFCURVE",
"755 51 CURVE SMOOTH"
);
},
{
closed = 1;
nodes = (
"610 51 OFFCURVE",
"598 40 OFFCURVE",
"598 25 CURVE SMOOTH",
"598 11 OFFCURVE",
"610 0 OFFCURVE",
"624 0 CURVE SMOOTH",
"638 0 OFFCURVE",
"650 11 OFFCURVE",
"650 25 CURVE SMOOTH",
"650 40 OFFCURVE",
"638 51 OFFCURVE",
"624 51 CURVE SMOOTH"
);
}
);
};
layerId = "166CCA77-1BE6-4372-BC61-BAE07403C72D";
name = Regular;
paths = (
{
closed = 1;
nodes = (
"168 623 LINE SMOOTH",
"175.379 671.581 OFFCURVE",
"186.918 703.9 OFFCURVE",
"195.641 728.331 CURVE SMOOTH",
"201.102 743.629 OFFCURVE",
"206.626 755.767 OFFCURVE",
"207 767 CURVE SMOOTH",
"208 797 LINE",
"205 799 OFFCURVE",
"195 806 OFFCURVE",
"194 827 CURVE SMOOTH",
"193 848 OFFCURVE",
"191 878 OFFCURVE",
"191 890 CURVE SMOOTH",
"191 914 OFFCURVE",
"214 930 OFFCURVE",
"240 930 CURVE SMOOTH",
"266 930 OFFCURVE",
"289 914 OFFCURVE",
"289 890 CURVE SMOOTH",
"289 878 OFFCURVE",
"288.333 848 OFFCURVE",
"288 827 CURVE SMOOTH",
"288 805 OFFCURVE",
"281 797 OFFCURVE",
"269 794 CURVE",
"270 767 LINE SMOOTH",
"270 751.416 OFFCURVE",
"276.663 738.497 OFFCURVE",
"283.836 724.59 CURVE SMOOTH",
"296.792 699.467 OFFCURVE",
"306 670.539 OFFCURVE",
"306 637 CURVE",
"367 561 LINE",
"439 561 LINE SMOOTH",
"455 561 OFFCURVE",
"468 548 OFFCURVE",
"468 531 CURVE",
"474 528 OFFCURVE",
"477.522 523.461 OFFCURVE",
"481 519 CURVE SMOOTH",
"573 401 LINE",
"579 419 OFFCURVE",
"591 431 OFFCURVE",
"618 431 CURVE SMOOTH",
"649 431 OFFCURVE",
"665 414 OFFCURVE",
"665 390 CURVE SMOOTH",
"665 384 OFFCURVE",
"663 360 OFFCURVE",
"662 345 CURVE SMOOTH",
"661 328 OFFCURVE",
"653 322 OFFCURVE",
"646 319 CURVE",
"648 305 LINE",
"726 204 LINE",
"745 204 OFFCURVE",
"759 199 OFFCURVE",
"771 186 CURVE SMOOTH",
"871 73 LINE SMOOTH",
"873.817 69.817 OFFCURVE",
"876 66 OFFCURVE",
"876 63 CURVE SMOOTH",
"876 57 OFFCURVE",
"869 53 OFFCURVE",
"844 53 CURVE SMOOTH",
"821 53 OFFCURVE",
"812 55 OFFCURVE",
"803 64 CURVE SMOOTH",
"789 78 LINE",
"642 78 LINE SMOOTH",
"590 78 OFFCURVE",
"560.216 97.631 OFFCURVE",
"552 148 CURVE SMOOTH",
"506 430 LINE",
"450 500 LINE",
"365 500 LINE SMOOTH",
"351.764 500 OFFCURVE",
"343.893 502.714 OFFCURVE",
"336 510 CURVE SMOOTH",
"310 534 LINE",
"303 458 LINE",
"391 278 LINE SMOOTH",
"397 264 OFFCURVE",
"398 259 OFFCURVE",
"401 236 CURVE SMOOTH",
"424 31 LINE SMOOTH",
"425 20 OFFCURVE",
"425 19 OFFCURVE",
"425 17 CURVE SMOOTH",
"425 6 OFFCURVE",
"414 0 OFFCURVE",
"393 0 CURVE SMOOTH",
"368 0 OFFCURVE",
"354 4 OFFCURVE",
"349 22 CURVE SMOOTH",
"317 231 LINE",
"239 357 LINE",
"189 218 LINE SMOOTH",
"180 195 OFFCURVE",
"169 176 OFFCURVE",
"152 148 CURVE SMOOTH",
"70 21 LINE SMOOTH",
"66 15 OFFCURVE",
"59 12 OFFCURVE",
"52 12 CURVE SMOOTH",
"44 12 OFFCURVE",
"36 15 OFFCURVE",
"22 25 CURVE SMOOTH",
"10 34 OFFCURVE",
"4 42 OFFCURVE",
"4 51 CURVE SMOOTH",
"4 57 OFFCURVE",
"8 65 OFFCURVE",
"33 106 CURVE SMOOTH",
"105 225 LINE"
);
},
{
closed = 1;
nodes = (
"741 51 OFFCURVE",
"729 40 OFFCURVE",
"729 25 CURVE SMOOTH",
"729 11 OFFCURVE",
"741 0 OFFCURVE",
"755 0 CURVE SMOOTH",
"770 0 OFFCURVE",
"781 11 OFFCURVE",
"781 25 CURVE SMOOTH",
"781 40 OFFCURVE",
"770 51 OFFCURVE",
"755 51 CURVE SMOOTH"
);
},
{
closed = 1;
nodes = (
"610 51 OFFCURVE",
"598 40 OFFCURVE",
"598 25 CURVE SMOOTH",
"598 11 OFFCURVE",
"610 0 OFFCURVE",
"624 0 CURVE SMOOTH",
"638 0 OFFCURVE",
"650 11 OFFCURVE",
"650 25 CURVE SMOOTH",
"650 40 OFFCURVE",
"638 51 OFFCURVE",
"624 51 CURVE SMOOTH"
);
}
);
width = 880;
}
);
},
{
color = 0;
glyphname = J.ss01;
lastChange = "2014-11-22 01:37:49 +0000";
layers = (
{
background = {
paths = (
{
closed = 1;
nodes = (
"307 431 LINE",
"279 470 OFFCURVE",
"261 496 OFFCURVE",
"247 517 CURVE SMOOTH",
"229 543 OFFCURVE",
"217 558 OFFCURVE",
"188 558 CURVE",
"187 581 LINE",
"194 584 OFFCURVE",
"202 590 OFFCURVE",
"203 607 CURVE SMOOTH",
"205 660 LINE SMOOTH",
"205 660 OFFCURVE",
"208 700 OFFCURVE",
"159 700 CURVE SMOOTH",
"110 700 OFFCURVE",
"113 660 OFFCURVE",
"113 660 CURVE",
"115 607 LINE SMOOTH",
"117 590 OFFCURVE",
"125 584 OFFCURVE",
"131 581 CURVE",
"130 558 LINE",
"96 558 OFFCURVE",
"80 540 OFFCURVE",
"75 516 CURVE",
"54 307 LINE",
"52 295 OFFCURVE",
"63 286 OFFCURVE",
"79 286 CURVE",
"79 286 OFFCURVE",
"88 22 OFFCURVE",
"88 22 CURVE",
"89 7 OFFCURVE",
"93 0 OFFCURVE",
"117 0 CURVE SMOOTH",
"141 0 OFFCURVE",
"151 8 OFFCURVE",
"151 22 CURVE",
"151 263 LINE",
"168 263 LINE",
"168 22 LINE SMOOTH",
"168 8 OFFCURVE",
"178 0 OFFCURVE",
"201 0 CURVE SMOOTH",
"226 0 OFFCURVE",
"231 7 OFFCURVE",
"232 22 CURVE",
"241 427 LINE",
"264 396 LINE",
"272 384 OFFCURVE",
"292 378 OFFCURVE",
"311 378 CURVE",
"355 378 LINE",
"355 378 OFFCURVE",
"370 22 OFFCURVE",
"370 22 CURVE",
"371 7 OFFCURVE",
"382 0 OFFCURVE",
"406 0 CURVE SMOOTH",
"430 0 OFFCURVE",
"446 8 OFFCURVE",
"446 22 CURVE SMOOTH",
"446 389 LINE",
"465 389 LINE",
"465 22 LINE SMOOTH",
"465 8 OFFCURVE",
"481 0 OFFCURVE",
"504 0 CURVE SMOOTH",
"528 0 OFFCURVE",
"539 7 OFFCURVE",
"540 22 CURVE",
"540 22 OFFCURVE",
"555 393 OFFCURVE",
"556 393 CURVE SMOOTH",
"581 393 OFFCURVE",
"589 412 OFFCURVE",
"590 431 CURVE SMOOTH",
"596 672 LINE SMOOTH",
"596 697 OFFCURVE",
"587 719 OFFCURVE",
"557 730 CURVE SMOOTH",
"529 740 OFFCURVE",
"489 762 OFFCURVE",
"489 782 CURVE SMOOTH",
"489 797 LINE",
"493 799 OFFCURVE",
"501 806 OFFCURVE",
"501 827 CURVE",
"501 827 OFFCURVE",
"503 866 OFFCURVE",
"504 890 CURVE SMOOTH",
"505 914 OFFCURVE",
"482 930 OFFCURVE",
"455 930 CURVE SMOOTH",
"429 930 OFFCURVE",
"406 914 OFFCURVE",
"407 890 CURVE SMOOTH",
"408 866 OFFCURVE",
"409 827 OFFCURVE",
"409 827 CURVE",
"410 806 OFFCURVE",
"418 799 OFFCURVE",
"422 797 CURVE",
"422 782 LINE SMOOTH",
"422 762 OFFCURVE",
"382 740 OFFCURVE",
"354 730 CURVE SMOOTH",
"324 719 OFFCURVE",
"314 697 OFFCURVE",
"314 672 CURVE",
"320 431 LINE"
);
}
);
};
layerId = "166CCA77-1BE6-4372-BC61-BAE07403C72D";
name = Regular;
paths = (
{
closed = 1;
nodes = (
"307 431 LINE",
"247 517 LINE SMOOTH",
"229 543 OFFCURVE",
"217 558 OFFCURVE",
"188 558 CURVE",
"187 581 LINE",
"194 584 OFFCURVE",
"202 590 OFFCURVE",
"203 607 CURVE SMOOTH",
"204.843 655.359 OFFCURVE",
"205.052 660.831 OFFCURVE",
"205.052 662.952 CURVE SMOOTH",
"205.052 680.014 OFFCURVE",
"192.954 700 OFFCURVE",
"159 700 CURVE SMOOTH",
"124.55 700 OFFCURVE",
"112.939 679.046 OFFCURVE",
"112.939 662.227 CURVE SMOOTH",
"112.939 660.304 OFFCURVE",
"113.096 651.374 OFFCURVE",
"115 607 CURVE SMOOTH",
"115.73 589.986 OFFCURVE",
"125 584 OFFCURVE",
"131 581 CURVE",
"130 558 LINE",
"96 558 OFFCURVE",
"77.475 539.062 OFFCURVE",
"75 516 CURVE SMOOTH",
"59.46 371.196 OFFCURVE",
"53.766 308.96 OFFCURVE",
"53.766 304.373 CURVE SMOOTH",
"53.766 293.71 OFFCURVE",
"64.191 286 OFFCURVE",
"79 286 CURVE",
"88 22 LINE SMOOTH",
"89 7 OFFCURVE",
"93 0 OFFCURVE",
"117 0 CURVE SMOOTH",
"141 0 OFFCURVE",
"151 8 OFFCURVE",
"151 22 CURVE SMOOTH",
"151 263 LINE",
"168 263 LINE",
"168 22 LINE SMOOTH",
"168 8 OFFCURVE",
"178 0 OFFCURVE",
"201 0 CURVE SMOOTH",
"226 0 OFFCURVE",
"231.644 5.971 OFFCURVE",
"232 22 CURVE SMOOTH",
"241 427 LINE",
"264 396 LINE SMOOTH",
"272.314 383.529 OFFCURVE",
"286.75 378 OFFCURVE",
"311 378 CURVE SMOOTH",
"355 378 LINE",
"370 22 LINE SMOOTH",
"371 7 OFFCURVE",
"382 0 OFFCURVE",
"406 0 CURVE SMOOTH",
"430 0 OFFCURVE",
"446 8 OFFCURVE",
"446 22 CURVE SMOOTH",
"446 389 LINE",
"465 389 LINE",
"465 22 LINE SMOOTH",
"465 8 OFFCURVE",
"481 0 OFFCURVE",
"504 0 CURVE SMOOTH",
"528 0 OFFCURVE",
"539.354 7.024 OFFCURVE",
"540 22 CURVE SMOOTH",
"556 393 LINE",
"581 393 OFFCURVE",
"589 412 OFFCURVE",
"590 431 CURVE SMOOTH",
"596 672 LINE SMOOTH",
"596 697 OFFCURVE",
"587 719 OFFCURVE",
"557 730 CURVE SMOOTH",
"529 740 OFFCURVE",
"489 762 OFFCURVE",
"489 782 CURVE SMOOTH",
"489 797 LINE",
"493 799 OFFCURVE",
"499.766 806.036 OFFCURVE",
"501 827 CURVE SMOOTH",
"502.032 844.542 OFFCURVE",
"504.031 883.911 OFFCURVE",
"504.031 891.503 CURVE SMOOTH",
"504.031 914.665 OFFCURVE",
"481.433 930 OFFCURVE",
"455 930 CURVE SMOOTH",
"429.547 930 OFFCURVE",
"406.969 914.666 OFFCURVE",
"406.969 891.503 CURVE SMOOTH",
"406.969 884.404 OFFCURVE",
"408 837.859 OFFCURVE",
"409 827 CURVE SMOOTH",
"410.928 806.065 OFFCURVE",
"418 799 OFFCURVE",
"422 797 CURVE",
"422 782 LINE SMOOTH",
"422 762 OFFCURVE",
"382 740 OFFCURVE",
"354 730 CURVE SMOOTH",
"324 719 OFFCURVE",
"314 697 OFFCURVE",
"314 672 CURVE SMOOTH",
"320 431 LINE"
);
}
);
width = 620;
}
);
},
{
color = 0;
glyphname = K.ss01;
lastChange = "2014-11-22 01:39:18 +0000";
layers = (
{
background = {
paths = (
{
closed = 1;
nodes = (
"297 14 LINE",
"297 7 OFFCURVE",
"303 0 OFFCURVE",
"314 0 CURVE",
"324 0 OFFCURVE",
"330 7 OFFCURVE",
"330 14 CURVE",
"330 411 LINE",
"345 415 OFFCURVE",
"354 431 OFFCURVE",
"354 442 CURVE",
"354 449 OFFCURVE",
"353 454 OFFCURVE",
"344 465 CURVE",
"269 537 LINE",
"269 601 LINE",
"279 621 OFFCURVE",
"289 649 OFFCURVE",
"290 670 CURVE SMOOTH",
"291 693 OFFCURVE",
"295 711 OFFCURVE",
"301 720 CURVE",
"304 725 LINE",
"306 724 OFFCURVE",
"314 720 OFFCURVE",
"319 720 CURVE SMOOTH",
"324 720 OFFCURVE",
"330 722 OFFCURVE",
"335 728 CURVE SMOOTH",
"382 790 LINE SMOOTH",
"386 796 OFFCURVE",
"388 802 OFFCURVE",
"388 810 CURVE SMOOTH",
"388 826 OFFCURVE",
"380 841 OFFCURVE",
"365 852 CURVE SMOOTH",
"353 861 OFFCURVE",
"343 863 OFFCURVE",
"332 863 CURVE SMOOTH",
"320 863 OFFCURVE",
"308 858 OFFCURVE",
"301 848 CURVE SMOOTH",
"263 788 LINE SMOOTH",
"257 778 OFFCURVE",
"255 772 OFFCURVE",
"255 767 CURVE SMOOTH",
"255 764 OFFCURVE",
"256 762 OFFCURVE",
"257 760 CURVE",
"250 751 LINE",
"240 740 OFFCURVE",
"235 734 OFFCURVE",
"223 728 CURVE SMOOTH",
"188 711 OFFCURVE",
"173 700 OFFCURVE",
"160 678 CURVE SMOOTH",
"53 500 LINE SMOOTH",
"47 490 OFFCURVE",
"40 466 OFFCURVE",
"40 446 CURVE SMOOTH",
"40 422 OFFCURVE",
"48 385 OFFCURVE",
"55 362 CURVE SMOOTH",
"90 239 LINE",
"100 22 LINE SMOOTH",
"101 7 OFFCURVE",
"112 0 OFFCURVE",
"136 0 CURVE SMOOTH",
"160 0 OFFCURVE",
"175 8 OFFCURVE",
"175 22 CURVE SMOOTH",
"176 429 LINE",
"212 496 LINE",
"297 420 LINE"
);
}
);
};
layerId = "166CCA77-1BE6-4372-BC61-BAE07403C72D";
name = Regular;
paths = (
{
closed = 1;
nodes = (
"297 14 LINE SMOOTH",
"297 7 OFFCURVE",
"303 0 OFFCURVE",
"314 0 CURVE SMOOTH",
"324 0 OFFCURVE",
"330 7 OFFCURVE",
"330 14 CURVE SMOOTH",
"330 411 LINE",
"345 415 OFFCURVE",
"354 431 OFFCURVE",
"354 442 CURVE SMOOTH",
"354 449 OFFCURVE",
"353 454 OFFCURVE",
"344 465 CURVE SMOOTH",
"269 537 LINE",
"269 601 LINE",
"279 621 OFFCURVE",
"289 649 OFFCURVE",
"290 670 CURVE SMOOTH",
"291 693 OFFCURVE",
"295 711 OFFCURVE",
"301 720 CURVE SMOOTH",
"304 725 LINE",
"306 724 OFFCURVE",
"314 720 OFFCURVE",
"319 720 CURVE SMOOTH",
"324 720 OFFCURVE",
"330 722 OFFCURVE",
"335 728 CURVE SMOOTH",
"382 790 LINE SMOOTH",
"386 796 OFFCURVE",
"388 802 OFFCURVE",
"388 810 CURVE SMOOTH",
"388 826 OFFCURVE",
"380 841 OFFCURVE",
"365 852 CURVE SMOOTH",
"353 861 OFFCURVE",
"343 863 OFFCURVE",
"332 863 CURVE SMOOTH",
"320 863 OFFCURVE",
"308 858 OFFCURVE",
"301 848 CURVE SMOOTH",
"263 788 LINE SMOOTH",
"257 778 OFFCURVE",
"255 772 OFFCURVE",
"255 767 CURVE SMOOTH",
"255 764 OFFCURVE",
"256 762 OFFCURVE",
"257 760 CURVE",
"248.176 748.99 LINE SMOOTH",
"240.344 739.218 OFFCURVE",
"234.248 733.624 OFFCURVE",
"223 728 CURVE SMOOTH",
"188 711 OFFCURVE",
"173 700 OFFCURVE",
"160 678 CURVE SMOOTH",
"53 500 LINE SMOOTH",
"47 490 OFFCURVE",
"40 466 OFFCURVE",
"40 446 CURVE SMOOTH",
"40 422 OFFCURVE",
"48 385 OFFCURVE",
"55 362 CURVE SMOOTH",
"90 239 LINE",
"100 22 LINE SMOOTH",
"101 7 OFFCURVE",
"112 0 OFFCURVE",
"136 0 CURVE SMOOTH",
"160 0 OFFCURVE",
"175 8 OFFCURVE",
"175 22 CURVE SMOOTH",
"176 429 LINE",
"212 496 LINE",
"297 420 LINE"
);
}
);
width = 398;
}
);
},
{
color = 0;
glyphname = L.ss01;
lastChange = "2014-11-22 01:40:25 +0000";
layers = (
{
background = {
paths = (
{
closed = 1;
nodes = (
"389 313 OFFCURVE",
"372 320 OFFCURVE",
"349 320 CURVE SMOOTH",
"349 320 OFFCURVE",
"344 320 OFFCURVE",
"341 320 CURVE",
"341 343 OFFCURVE",
"326 359 OFFCURVE",
"300 359 CURVE SMOOTH",
"255 359 LINE",
"222 498 LINE SMOOTH",
"213 535 OFFCURVE",
"197 550 OFFCURVE",
"182 562 CURVE SMOOTH",
"168 575 OFFCURVE",
"160 587 OFFCURVE",
"160 609 CURVE SMOOTH",
"160 618 LINE",
"165 619 OFFCURVE",
"181 631 OFFCURVE",
"181 648 CURVE",
"181 713 LINE",
"181 737 OFFCURVE",
"155 754 OFFCURVE",
"130 754 CURVE SMOOTH",
"106 754 OFFCURVE",
"82 737 OFFCURVE",
"82 713 CURVE SMOOTH",
"82 649 LINE SMOOTH",
"82 628 OFFCURVE",
"94 620 OFFCURVE",
"98 618 CURVE",
"98 600 LINE SMOOTH",
"98 574 OFFCURVE",
"73 528 OFFCURVE",
"73 528 CURVE",
"51 528 OFFCURVE",
"40 522 OFFCURVE",
"40 511 CURVE",
"40 501 OFFCURVE",
"44 468 OFFCURVE",
"47 447 CURVE",
"71 261 LINE SMOOTH",
"74 239 OFFCURVE",
"86 219 OFFCURVE",
"113 219 CURVE SMOOTH",
"125 219 LINE",
"332 219 LINE",
"397 14 LINE",
"401 3 OFFCURVE",
"411 0 OFFCURVE",
"437 0 CURVE SMOOTH",
"464 0 OFFCURVE",
"473 3 OFFCURVE",
"473 11 CURVE",
"473 13 OFFCURVE",
"470 23 OFFCURVE",
"467 34 CURVE",
"395 290 LINE SMOOTH"
);
},
{
closed = 1;
nodes = (
"529 700 OFFCURVE",
"580 750 OFFCURVE",
"580 815 CURVE SMOOTH",
"580 879 OFFCURVE",
"529 930 OFFCURVE",
"464 930 CURVE SMOOTH",
"400 930 OFFCURVE",
"350 879 OFFCURVE",
"350 815 CURVE SMOOTH",
"350 750 OFFCURVE",
"400 700 OFFCURVE",
"464 700 CURVE SMOOTH"
);
},
{
closed = 1;
nodes = (
"417 729 OFFCURVE",
"379 767 OFFCURVE",
"379 815 CURVE SMOOTH",
"379 862 OFFCURVE",
"417 900 OFFCURVE",
"464 900 CURVE SMOOTH",
"512 900 OFFCURVE",
"550 862 OFFCURVE",
"550 815 CURVE SMOOTH",
"550 767 OFFCURVE",
"512 729 OFFCURVE",
"464 729 CURVE"
);
},
{
closed = 1;
nodes = (
"514 823 OFFCURVE",
"507 827 OFFCURVE",
"500 827 CURVE SMOOTH",
"478 827 LINE",
"478 866 LINE SMOOTH",
"478 873 OFFCURVE",
"473 880 OFFCURVE",
"464 880 CURVE SMOOTH",
"455 880 OFFCURVE",
"451 873 OFFCURVE",
"451 866 CURVE",
"451 866 OFFCURVE",
"451 814 OFFCURVE",
"451 814 CURVE SMOOTH",
"451 806 OFFCURVE",
"457 801 OFFCURVE",
"464 801 CURVE SMOOTH",
"500 801 LINE SMOOTH",
"507 801 OFFCURVE",
"514 805 OFFCURVE",
"514 814 CURVE SMOOTH"
);
}
);
};
layerId = "166CCA77-1BE6-4372-BC61-BAE07403C72D";
name = Regular;
paths = (
{
closed = 1;
nodes = (
"389 313 OFFCURVE",
"372 320 OFFCURVE",
"349 320 CURVE SMOOTH",
"341 320 LINE",
"341 343 OFFCURVE",
"326 359 OFFCURVE",
"300 359 CURVE SMOOTH",
"255 359 LINE",
"222 498 LINE SMOOTH",
"213 535 OFFCURVE",
"197 550 OFFCURVE",
"182 562 CURVE SMOOTH",
"168 575 OFFCURVE",
"160 587 OFFCURVE",
"160 609 CURVE SMOOTH",
"160 618 LINE",
"165 619 OFFCURVE",
"181 631 OFFCURVE",
"181 648 CURVE SMOOTH",
"181 713 LINE SMOOTH",
"181 737 OFFCURVE",
"155 754 OFFCURVE",
"130 754 CURVE SMOOTH",
"106 754 OFFCURVE",
"82 737 OFFCURVE",
"82 713 CURVE SMOOTH",
"82 649 LINE SMOOTH",
"82 628 OFFCURVE",
"94 620 OFFCURVE",
"98 618 CURVE",
"98 600 LINE SMOOTH",
"98 581 OFFCURVE",
"84 548 OFFCURVE",
"73 528 CURVE",
"51 528 OFFCURVE",
"40 522 OFFCURVE",
"40 511 CURVE SMOOTH",
"40 501 OFFCURVE",
"44 468 OFFCURVE",
"47 447 CURVE SMOOTH",
"71 261 LINE SMOOTH",
"74 239 OFFCURVE",
"86 219 OFFCURVE",
"113 219 CURVE SMOOTH",
"332 219 LINE",
"397 14 LINE SMOOTH",
"401 3 OFFCURVE",
"411 0 OFFCURVE",
"437 0 CURVE SMOOTH",
"464 0 OFFCURVE",
"473 3 OFFCURVE",
"473 11 CURVE SMOOTH",
"473 12.464 OFFCURVE",
"471.392 18.215 OFFCURVE",
"469.354 25.508 CURVE SMOOTH",
"395 290 LINE SMOOTH"
);
},
{
closed = 1;
nodes = (
"529 700 OFFCURVE",
"580 750 OFFCURVE",
"580 815 CURVE SMOOTH",
"580 879 OFFCURVE",
"529 930 OFFCURVE",
"464 930 CURVE SMOOTH",
"400 930 OFFCURVE",
"350 879 OFFCURVE",
"350 815 CURVE SMOOTH",
"350 750 OFFCURVE",
"400 700 OFFCURVE",
"464 700 CURVE SMOOTH"
);
},
{
closed = 1;
nodes = (
"417 729 OFFCURVE",
"379 767 OFFCURVE",
"379 815 CURVE SMOOTH",
"379 862 OFFCURVE",
"417 900 OFFCURVE",
"464 900 CURVE SMOOTH",
"512 900 OFFCURVE",
"550 862 OFFCURVE",
"550 815 CURVE SMOOTH",
"550 767 OFFCURVE",
"512 729 OFFCURVE",
"464 729 CURVE SMOOTH"
);
},
{
closed = 1;
nodes = (
"514 823 OFFCURVE",
"507 827 OFFCURVE",
"500 827 CURVE SMOOTH",
"478 827 LINE",
"478 866 LINE SMOOTH",
"478 873 OFFCURVE",
"473 880 OFFCURVE",
"464 880 CURVE SMOOTH",
"455 880 OFFCURVE",
"451 873 OFFCURVE",
"451 866 CURVE SMOOTH",
"451 850 OFFCURVE",
"451 827 OFFCURVE",
"451 814 CURVE SMOOTH",
"451 806 OFFCURVE",
"457 801 OFFCURVE",
"464 801 CURVE SMOOTH",
"500 801 LINE SMOOTH",
"507 801 OFFCURVE",
"514 805 OFFCURVE",
"514 814 CURVE SMOOTH"
);
}
);
width = 530;
}
);
},
{
color = 0;
glyphname = M.ss01;
lastChange = "2014-11-22 01:41:43 +0000";
layers = (
{
background = {
paths = (
{
closed = 1;
nodes = (
"429 705 OFFCURVE",
"425 709 OFFCURVE",
"420 709 CURVE SMOOTH",
"415 709 OFFCURVE",
"411 705 OFFCURVE",
"411 700 CURVE SMOOTH",
"411 695 OFFCURVE",
"415 691 OFFCURVE",
"420 691 CURVE SMOOTH",
"425 691 OFFCURVE",
"429 695 OFFCURVE",
"429 700 CURVE SMOOTH"
);
},
{
closed = 1;
nodes = (
"452 684 OFFCURVE",
"448 688 OFFCURVE",
"444 688 CURVE SMOOTH",
"439 688 OFFCURVE",
"435 684 OFFCURVE",
"435 679 CURVE SMOOTH",
"435 674 OFFCURVE",
"439 670 OFFCURVE",
"444 670 CURVE SMOOTH",
"448 670 OFFCURVE",
"452 674 OFFCURVE",
"452 679 CURVE SMOOTH"
);
},
{
closed = 1;
nodes = (
"461 654 OFFCURVE",
"457 658 OFFCURVE",
"452 658 CURVE SMOOTH",
"448 658 OFFCURVE",
"444 654 OFFCURVE",
"444 648 CURVE SMOOTH",
"444 644 OFFCURVE",
"448 640 OFFCURVE",
"452 640 CURVE SMOOTH",
"457 640 OFFCURVE",
"461 644 OFFCURVE",
"461 648 CURVE SMOOTH"
);
},
{
closed = 1;
nodes = (
"461 621 OFFCURVE",
"457 625 OFFCURVE",
"452 625 CURVE SMOOTH",
"448 625 OFFCURVE",
"444 621 OFFCURVE",
"444 616 CURVE SMOOTH",
"444 611 OFFCURVE",
"448 607 OFFCURVE",
"452 607 CURVE SMOOTH",
"457 607 OFFCURVE",
"461 611 OFFCURVE",
"461 616 CURVE SMOOTH"
);
},
{
closed = 1;
nodes = (
"461 589 OFFCURVE",
"457 593 OFFCURVE",
"452 593 CURVE SMOOTH",
"448 593 OFFCURVE",
"444 589 OFFCURVE",
"444 584 CURVE SMOOTH",
"444 579 OFFCURVE",
"448 575 OFFCURVE",
"452 575 CURVE SMOOTH",
"457 575 OFFCURVE",
"461 579 OFFCURVE",
"461 584 CURVE SMOOTH"
);
},
{
closed = 1;
nodes = (
"446 523 LINE",
"446 540 OFFCURVE",
"431 556 OFFCURVE",
"414 556 CURVE",
"326 556 LINE SMOOTH",
"326 556 OFFCURVE",
"305 581 OFFCURVE",
"283 609 CURVE",
"293 629 OFFCURVE",
"301 654 OFFCURVE",
"302 675 CURVE SMOOTH",
"303 698 OFFCURVE",
"306 715 OFFCURVE",
"312 724 CURVE",
"315 729 LINE",
"317 728 OFFCURVE",
"325 724 OFFCURVE",
"330 724 CURVE SMOOTH",
"335 724 OFFCURVE",
"341 726 OFFCURVE",
"346 732 CURVE SMOOTH",
"394 795 LINE SMOOTH",
"398 801 OFFCURVE",
"400 807 OFFCURVE",
"400 815 CURVE SMOOTH",
"400 831 OFFCURVE",
"392 846 OFFCURVE",
"377 857 CURVE",
"365 866 OFFCURVE",
"355 868 OFFCURVE",
"344 868 CURVE SMOOTH",
"332 868 OFFCURVE",
"320 863 OFFCURVE",
"313 853 CURVE",
"274 793 LINE SMOOTH",
"263 777 OFFCURVE",
"266 769 OFFCURVE",
"268 765 CURVE",
"262 756 LINE",
"252 745 OFFCURVE",
"244 738 OFFCURVE",
"232 732 CURVE SMOOTH",
"197 715 OFFCURVE",
"184 705 OFFCURVE",
"166 678 CURVE SMOOTH",
"53 500 LINE SMOOTH",
"47 490 OFFCURVE",
"44 478 OFFCURVE",
"44 465 CURVE SMOOTH",
"44 434 OFFCURVE",
"61 385 OFFCURVE",
"70 362 CURVE SMOOTH",
"116 239 LINE",
"126 22 LINE SMOOTH",
"127 7 OFFCURVE",
"138 0 OFFCURVE",
"162 0 CURVE SMOOTH",
"186 0 OFFCURVE",
"201 8 OFFCURVE",
"201 22 CURVE",
"201 245 LINE",
"185 429 LINE",
"243 534 LINE",
"275 500 LINE",
"282 493 OFFCURVE",
"295 490 OFFCURVE",
"305 490 CURVE",
"404 490 LINE",
"422 429 LINE SMOOTH",
"431 399 OFFCURVE",
"440 388 OFFCURVE",
"464 388 CURVE SMOOTH",
"573 388 LINE",
"573 523 LINE"
);
},
{
closed = 1;
nodes = (
"394 688 OFFCURVE",
"398 692 OFFCURVE",
"398 696 CURVE SMOOTH",
"398 701 OFFCURVE",
"394 705 OFFCURVE",
"389 705 CURVE SMOOTH",
"384 705 OFFCURVE",
"380 701 OFFCURVE",
"380 696 CURVE SMOOTH",
"380 692 OFFCURVE",
"384 688 OFFCURVE",
"389 688 CURVE SMOOTH"
);
},
{
closed = 1;
nodes = (
"376 663 OFFCURVE",
"380 667 OFFCURVE",
"380 672 CURVE SMOOTH",
"380 677 OFFCURVE",
"376 681 OFFCURVE",
"371 681 CURVE SMOOTH",
"366 681 OFFCURVE",
"362 677 OFFCURVE",
"362 672 CURVE SMOOTH",
"362 667 OFFCURVE",
"366 663 OFFCURVE",
"371 663 CURVE SMOOTH"
);
},
{
closed = 1;
nodes = (
"494 542 OFFCURVE",
"498 546 OFFCURVE",
"498 551 CURVE SMOOTH",
"498 555 OFFCURVE",
"494 559 OFFCURVE",
"489 559 CURVE SMOOTH",
"484 559 OFFCURVE",
"480 555 OFFCURVE",
"480 551 CURVE SMOOTH",
"480 546 OFFCURVE",
"484 542 OFFCURVE",
"489 542 CURVE SMOOTH"
);
},
{
closed = 1;
nodes = (
"484 593 OFFCURVE",
"480 589 OFFCURVE",
"480 584 CURVE SMOOTH",
"480 579 OFFCURVE",
"484 575 OFFCURVE",
"489 575 CURVE SMOOTH",
"494 575 OFFCURVE",
"498 579 OFFCURVE",
"498 584 CURVE SMOOTH",
"498 589 OFFCURVE",
"494 593 OFFCURVE",
"489 593 CURVE SMOOTH"
);
},
{
closed = 1;
nodes = (
"507 618 OFFCURVE",
"503 622 OFFCURVE",
"498 622 CURVE SMOOTH",
"493 622 OFFCURVE",
"489 618 OFFCURVE",
"489 613 CURVE SMOOTH",
"489 608 OFFCURVE",
"493 604 OFFCURVE",
"498 604 CURVE SMOOTH",
"503 604 OFFCURVE",
"507 608 OFFCURVE",
"507 613 CURVE SMOOTH"
);
},
{
closed = 1;
nodes = (
"527 641 OFFCURVE",
"523 645 OFFCURVE",
"519 645 CURVE SMOOTH",
"514 645 OFFCURVE",
"510 641 OFFCURVE",
"510 636 CURVE SMOOTH",
"510 631 OFFCURVE",
"514 627 OFFCURVE",
"519 627 CURVE SMOOTH",
"523 627 OFFCURVE",
"527 631 OFFCURVE",
"527 636 CURVE SMOOTH"
);
},
{
closed = 1;
nodes = (
"557 634 OFFCURVE",
"553 638 OFFCURVE",
"548 638 CURVE SMOOTH",
"543 638 OFFCURVE",
"539 634 OFFCURVE",
"539 629 CURVE SMOOTH",
"539 624 OFFCURVE",
"543 620 OFFCURVE",
"548 620 CURVE SMOOTH",
"553 620 OFFCURVE",
"557 624 OFFCURVE",
"557 629 CURVE SMOOTH"
);
}
);
};
layerId = "166CCA77-1BE6-4372-BC61-BAE07403C72D";
name = Regular;
paths = (
{
closed = 1;
nodes = (
"429 705 OFFCURVE",
"425 709 OFFCURVE",
"420 709 CURVE SMOOTH",
"415 709 OFFCURVE",
"411 705 OFFCURVE",
"411 700 CURVE SMOOTH",
"411 695 OFFCURVE",
"415 691 OFFCURVE",
"420 691 CURVE SMOOTH",
"425 691 OFFCURVE",
"429 695 OFFCURVE",
"429 700 CURVE SMOOTH"
);
},
{
closed = 1;
nodes = (
"452 684 OFFCURVE",
"448 688 OFFCURVE",
"444 688 CURVE SMOOTH",
"439 688 OFFCURVE",
"435 684 OFFCURVE",
"435 679 CURVE SMOOTH",
"435 674 OFFCURVE",
"439 670 OFFCURVE",
"444 670 CURVE SMOOTH",
"448 670 OFFCURVE",
"452 674 OFFCURVE",
"452 679 CURVE SMOOTH"
);
},
{
closed = 1;
nodes = (
"461 654 OFFCURVE",
"457 658 OFFCURVE",
"452 658 CURVE SMOOTH",
"448 658 OFFCURVE",
"444 654 OFFCURVE",
"444 648 CURVE SMOOTH",
"444 644 OFFCURVE",
"448 640 OFFCURVE",
"452 640 CURVE SMOOTH",
"457 640 OFFCURVE",
"461 644 OFFCURVE",
"461 648 CURVE SMOOTH"
);
},
{
closed = 1;
nodes = (
"461 621 OFFCURVE",
"457 625 OFFCURVE",
"452 625 CURVE SMOOTH",
"448 625 OFFCURVE",
"444 621 OFFCURVE",
"444 616 CURVE SMOOTH",
"444 611 OFFCURVE",
"448 607 OFFCURVE",
"452 607 CURVE SMOOTH",
"457 607 OFFCURVE",
"461 611 OFFCURVE",
"461 616 CURVE SMOOTH"
);
},
{
closed = 1;
nodes = (
"461 589 OFFCURVE",
"457 593 OFFCURVE",
"452 593 CURVE SMOOTH",
"448 593 OFFCURVE",
"444 589 OFFCURVE",
"444 584 CURVE SMOOTH",
"444 579 OFFCURVE",
"448 575 OFFCURVE",
"452 575 CURVE SMOOTH",
"457 575 OFFCURVE",
"461 579 OFFCURVE",
"461 584 CURVE SMOOTH"
);
},
{
closed = 1;
nodes = (
"446 523 LINE",
"446 540 OFFCURVE",
"431 556 OFFCURVE",
"414 556 CURVE SMOOTH",
"326 556 LINE",
"283 609 LINE",
"293 629 OFFCURVE",
"301 654 OFFCURVE",
"302 675 CURVE SMOOTH",
"303 698 OFFCURVE",
"306 715 OFFCURVE",
"312 724 CURVE SMOOTH",
"315 729 LINE",
"317 728 OFFCURVE",
"325 724 OFFCURVE",
"330 724 CURVE SMOOTH",
"335 724 OFFCURVE",
"341 726 OFFCURVE",
"346 732 CURVE SMOOTH",
"394 795 LINE SMOOTH",
"398 801 OFFCURVE",
"400 807 OFFCURVE",
"400 815 CURVE SMOOTH",
"400 831 OFFCURVE",
"392 846 OFFCURVE",
"377 857 CURVE SMOOTH",
"365 866 OFFCURVE",
"355 868 OFFCURVE",
"344 868 CURVE SMOOTH",
"332 868 OFFCURVE",
"320 863 OFFCURVE",
"313 853 CURVE SMOOTH",
"274 793 LINE SMOOTH",
"267.816 784.006 OFFCURVE",
"266.057 777.539 OFFCURVE",
"266.057 772.891 CURVE SMOOTH",
"266.057 769.27 OFFCURVE",
"267.124 766.751 OFFCURVE",
"268 765 CURVE",
"262 756 LINE SMOOTH",
"253.292 742.938 OFFCURVE",
"244 738 OFFCURVE",
"232 732 CURVE SMOOTH",
"197 715 OFFCURVE",
"184 705 OFFCURVE",
"166 678 CURVE SMOOTH",
"53 500 LINE SMOOTH",
"47 490 OFFCURVE",
"44 478 OFFCURVE",
"44 465 CURVE SMOOTH",
"44 434 OFFCURVE",
"61 385 OFFCURVE",
"70 362 CURVE SMOOTH",
"116 239 LINE",
"126 22 LINE SMOOTH",
"127 7 OFFCURVE",
"138 0 OFFCURVE",
"162 0 CURVE SMOOTH",
"186 0 OFFCURVE",
"201 8 OFFCURVE",
"201 22 CURVE SMOOTH",
"201 245 LINE",
"185 429 LINE",
"243 534 LINE",
"275 500 LINE SMOOTH",
"282 493 OFFCURVE",
"295 490 OFFCURVE",
"305 490 CURVE SMOOTH",
"404 490 LINE",
"422 429 LINE SMOOTH",
"431 399 OFFCURVE",
"440 388 OFFCURVE",
"464 388 CURVE SMOOTH",
"573 388 LINE",
"573 523 LINE"
);
},
{
closed = 1;
nodes = (
"394 688 OFFCURVE",
"398 692 OFFCURVE",
"398 696 CURVE SMOOTH",
"398 701 OFFCURVE",
"394 705 OFFCURVE",
"389 705 CURVE SMOOTH",
"384 705 OFFCURVE",
"380 701 OFFCURVE",
"380 696 CURVE SMOOTH",
"380 692 OFFCURVE",
"384 688 OFFCURVE",
"389 688 CURVE SMOOTH"
);
},
{
closed = 1;
nodes = (
"376 663 OFFCURVE",
"380 667 OFFCURVE",
"380 672 CURVE SMOOTH",
"380 677 OFFCURVE",
"376 681 OFFCURVE",
"371 681 CURVE SMOOTH",
"366 681 OFFCURVE",
"362 677 OFFCURVE",
"362 672 CURVE SMOOTH",
"362 667 OFFCURVE",
"366 663 OFFCURVE",
"371 663 CURVE SMOOTH"
);
},
{
closed = 1;
nodes = (
"494 542 OFFCURVE",
"498 546 OFFCURVE",
"498 551 CURVE SMOOTH",
"498 555 OFFCURVE",
"494 559 OFFCURVE",
"489 559 CURVE SMOOTH",
"484 559 OFFCURVE",
"480 555 OFFCURVE",
"480 551 CURVE SMOOTH",
"480 546 OFFCURVE",
"484 542 OFFCURVE",
"489 542 CURVE SMOOTH"
);
},
{
closed = 1;
nodes = (
"484 593 OFFCURVE",
"480 589 OFFCURVE",
"480 584 CURVE SMOOTH",
"480 579 OFFCURVE",
"484 575 OFFCURVE",
"489 575 CURVE SMOOTH",
"494 575 OFFCURVE",
"498 579 OFFCURVE",
"498 584 CURVE SMOOTH",
"498 589 OFFCURVE",
"494 593 OFFCURVE",
"489 593 CURVE SMOOTH"
);
},
{
closed = 1;
nodes = (
"507 618 OFFCURVE",
"503 622 OFFCURVE",
"498 622 CURVE SMOOTH",
"493 622 OFFCURVE",
"489 618 OFFCURVE",
"489 613 CURVE SMOOTH",
"489 608 OFFCURVE",
"493 604 OFFCURVE",
"498 604 CURVE SMOOTH",
"503 604 OFFCURVE",
"507 608 OFFCURVE",
"507 613 CURVE SMOOTH"
);
},
{
closed = 1;
nodes = (
"527 641 OFFCURVE",
"523 645 OFFCURVE",
"519 645 CURVE SMOOTH",
"514 645 OFFCURVE",
"510 641 OFFCURVE",
"510 636 CURVE SMOOTH",
"510 631 OFFCURVE",
"514 627 OFFCURVE",
"519 627 CURVE SMOOTH",
"523 627 OFFCURVE",
"527 631 OFFCURVE",
"527 636 CURVE SMOOTH"
);
},
{
closed = 1;
nodes = (
"557 634 OFFCURVE",
"553 638 OFFCURVE",
"548 638 CURVE SMOOTH",
"543 638 OFFCURVE",
"539 634 OFFCURVE",
"539 629 CURVE SMOOTH",
"539 624 OFFCURVE",
"543 620 OFFCURVE",
"548 620 CURVE SMOOTH",
"553 620 OFFCURVE",
"557 624 OFFCURVE",
"557 629 CURVE SMOOTH"
);
}
);
width = 580;
}
);
},
{
color = 0;
glyphname = N.ss01;
lastChange = "2014-12-10 22:31:10 +0000";
layers = (
{
background = {
paths = (
{
closed = 1;
nodes = (
"232.306 872.366 OFFCURVE",
"231.094 843.419 OFFCURVE",
"230.414 826.443 CURVE",
"229.602 805.797 OFFCURVE",
"221.793 799.222 OFFCURVE",
"217.465 797.058 CURVE",
"217.465 781.579 LINE SMOOTH",
"217.465 762.097 OFFCURVE",
"257.443 739.692 OFFCURVE",
"285.817 729.57 CURVE SMOOTH",
"315.973 718.719 OFFCURVE",
"325.377 697.101 OFFCURVE",
"325.377 671.692 CURVE SMOOTH",
"319.425 431.24 LINE",
"317.799 411.853 OFFCURVE",
"309.724 392.916 OFFCURVE",
"284.795 392.916 CURVE SMOOTH",
"284.39 392.916 OFFCURVE",
"275.69 181.258 OFFCURVE",
"269.24 21.586 CURVE",
"268.686 7.139 OFFCURVE",
"257.173 -0.166 OFFCURVE",
"233.208 -0.166 CURVE SMOOTH",
"209.453 -0.166 OFFCURVE",
"193.304 7.741 OFFCURVE",
"193.304 21.534 CURVE SMOOTH",
"194.059 388.993 LINE",
"174.459 388.993 LINE",
"173.845 21.534 LINE SMOOTH",
"173.845 7.741 OFFCURVE",
"158.436 -0.165 OFFCURVE",
"134.714 -0.165 CURVE SMOOTH",
"110.884 -0.165 OFFCURVE",
"99.324 7.119 OFFCURVE",
"98.731 21.524 CURVE",
"94.194 138.104 OFFCURVE",
"87.82 301.888 OFFCURVE",
"84.277 392.916 CURVE SMOOTH",
"58.766 392.916 OFFCURVE",
"50.705 411.853 OFFCURVE",
"49.181 431.24 CURVE",
"43.23 671.692 LINE",
"43.23 697.101 OFFCURVE",
"52.606 718.719 OFFCURVE",
"82.817 729.57 CURVE SMOOTH",
"111.174 739.692 OFFCURVE",
"151.155 762.097 OFFCURVE",
"151.155 781.579 CURVE SMOOTH",
"151.155 797.058 LINE",
"146.786 799.222 OFFCURVE",
"138.991 805.797 OFFCURVE",
"138.179 826.443 CURVE",
"137.446 843.384 OFFCURVE",
"136.194 872.308 OFFCURVE",
"135.433 889.79 CURVE SMOOTH",
"134.433 913.764 OFFCURVE",
"157.811 929.891 OFFCURVE",
"184.317 929.891 CURVE SMOOTH",
"210.782 929.891 OFFCURVE",
"234.282 913.684 OFFCURVE",
"233.146 889.79 CURVE SMOOTH"
);
}
);
};
layerId = "166CCA77-1BE6-4372-BC61-BAE07403C72D";
name = Regular;
paths = (
{
closed = 1;
nodes = (
"321.333 511.333 OFFCURVE",
"326 636.667 OFFCURVE",
"326 672 CURVE SMOOTH",
"326 696.958 OFFCURVE",
"316 719 OFFCURVE",
"286 730 CURVE SMOOTH",
"258 740 OFFCURVE",
"218 762 OFFCURVE",
"218 782 CURVE SMOOTH",
"218 797 LINE",
"222 799 OFFCURVE",
"229.671 806.018 OFFCURVE",
"231 827 CURVE SMOOTH",
"232.043 843.467 OFFCURVE",
"233.031 873.548 OFFCURVE",
"233.031 891.503 CURVE SMOOTH",
"233.031 914.666 OFFCURVE",
"210.453 930 OFFCURVE",
"185 930 CURVE SMOOTH",
"158.567 930 OFFCURVE",
"135.969 914.665 OFFCURVE",
"135.969 891.503 CURVE SMOOTH",
"135.969 883.336 OFFCURVE",
"137.957 843.727 OFFCURVE",
"139 827 CURVE SMOOTH",
"140.307 806.041 OFFCURVE",
"147 799 OFFCURVE",
"151 797 CURVE",
"151 782 LINE SMOOTH",
"151 762 OFFCURVE",
"111 740 OFFCURVE",
"83 730 CURVE SMOOTH",
"53 719 OFFCURVE",
"44 697 OFFCURVE",
"44 672 CURVE SMOOTH",
"44 636.667 OFFCURVE",
"48 511.333 OFFCURVE",
"50 431 CURVE SMOOTH",
"51 412 OFFCURVE",
"59 393 OFFCURVE",
"84 393 CURVE",
"100 22 LINE SMOOTH",
"101 7 OFFCURVE",
"112 0 OFFCURVE",
"136 0 CURVE SMOOTH",
"159 0 OFFCURVE",
"175 8 OFFCURVE",
"175 22 CURVE SMOOTH",
"175 389 LINE",
"194 389 LINE",
"194 22 LINE SMOOTH",
"194 8 OFFCURVE",
"210 0 OFFCURVE",
"234 0 CURVE SMOOTH",
"258 0 OFFCURVE",
"269 7 OFFCURVE",
"270 22 CURVE SMOOTH",
"285 393 LINE",
"310 393 OFFCURVE",
"318 414 OFFCURVE",
"319 431 CURVE SMOOTH"
);
}
);
width = 370;
}
);
},
{
color = 0;
glyphname = O.ss01;
lastChange = "2014-11-22 01:57:59 +0000";
layers = (
{
background = {
paths = (
{
closed = 1;
nodes = (
"237 238 OFFCURVE",
"246 246 OFFCURVE",
"246 254 CURVE",
"246 258 OFFCURVE",
"245 268 OFFCURVE",
"245 268 CURVE",
"243 288 LINE",
"253 291 OFFCURVE",
"257 297 OFFCURVE",
"257 303 CURVE",
"257 309 OFFCURVE",
"255 325 OFFCURVE",
"255 325 CURVE",
"233 516 LINE",
"228 540 OFFCURVE",
"212 558 OFFCURVE",
"178 558 CURVE",
"177 581 LINE",
"183 584 OFFCURVE",
"191 590 OFFCURVE",
"193 607 CURVE SMOOTH",
"195 660 LINE",
"195 660 OFFCURVE",
"198 700 OFFCURVE",
"149 700 CURVE SMOOTH",
"100 700 OFFCURVE",
"103 660 OFFCURVE",
"103 660 CURVE SMOOTH",
"105 607 LINE SMOOTH",
"106 590 OFFCURVE",
"114 584 OFFCURVE",
"121 581 CURVE",
"120 558 LINE",
"86 558 OFFCURVE",
"70 540 OFFCURVE",
"65 516 CURVE",
"43 325 LINE",
"43 325 OFFCURVE",
"41 309 OFFCURVE",
"41 303 CURVE",
"41 297 OFFCURVE",
"45 291 OFFCURVE",
"55 288 CURVE",
"53 268 LINE",
"53 268 OFFCURVE",
"52 258 OFFCURVE",
"52 254 CURVE",
"52 246 OFFCURVE",
"61 238 OFFCURVE",
"70 238 CURVE",
"76 22 LINE",
"77 7 OFFCURVE",
"82 0 OFFCURVE",
"107 0 CURVE SMOOTH",
"130 0 OFFCURVE",
"140 8 OFFCURVE",
"140 22 CURVE SMOOTH",
"140 238 LINE",
"157 238 LINE",
"157 22 LINE SMOOTH",
"157 8 OFFCURVE",
"167 0 OFFCURVE",
"191 0 CURVE SMOOTH",
"215 0 OFFCURVE",
"219 7 OFFCURVE",
"220 22 CURVE",
"227 238 LINE"
);
}
);
};
guideLines = (
{
position = "{564, 286}";
}
);
layerId = "166CCA77-1BE6-4372-BC61-BAE07403C72D";
name = Regular;
paths = (
{
closed = 1;
nodes = (
"73 22 LINE SMOOTH",
"74 7 OFFCURVE",
"79 0 OFFCURVE",
"104 0 CURVE SMOOTH",
"127 0 OFFCURVE",
"137 8 OFFCURVE",
"137 22 CURVE SMOOTH",
"137 263 LINE",
"154 263 LINE",
"154 22 LINE SMOOTH",
"154 8 OFFCURVE",
"164 0 OFFCURVE",
"188 0 CURVE SMOOTH",
"212 0 OFFCURVE",
"216 7 OFFCURVE",
"217 22 CURVE SMOOTH",
"226 286 LINE",
"240.794 286 OFFCURVE",
"251.234 293.967 OFFCURVE",
"251.234 304.339 CURVE SMOOTH",
"251.234 306.601 OFFCURVE",
"249.831 319.193 OFFCURVE",
"230 516 CURVE SMOOTH",
"227.559 540.293 OFFCURVE",
"209 558 OFFCURVE",
"175 558 CURVE",
"174 581 LINE",
"180 584 OFFCURVE",
"189.336 589.896 OFFCURVE",
"190 607 CURVE SMOOTH",
"191.883 655.516 OFFCURVE",
"192.061 660.094 OFFCURVE",
"192.061 662.192 CURVE SMOOTH",
"192.061 678.909 OFFCURVE",
"180.474 700 OFFCURVE",
"146 700 CURVE SMOOTH",
"111.559 700 OFFCURVE",
"99.939 678.949 OFFCURVE",
"99.939 662.24 CURVE SMOOTH",
"99.939 660.249 OFFCURVE",
"100.122 655.392 OFFCURVE",
"102 607 CURVE SMOOTH",
"102.66 589.983 OFFCURVE",
"111 584 OFFCURVE",
"118 581 CURVE",
"117 558 LINE",
"83 558 OFFCURVE",
"64.472 540.29 OFFCURVE",
"62 516 CURVE SMOOTH",
"41.841 317.902 OFFCURVE",
"40.768 306.648 OFFCURVE",
"40.768 304.492 CURVE SMOOTH",
"40.768 294.075 OFFCURVE",
"51.136 286 OFFCURVE",
"66 286 CURVE"
);
}
);
width = 298;
}
);
},
{
color = 0;
glyphname = P.ss01;
lastChange = "2014-12-12 00:31:54 +0000";
layers = (
{
background = {
paths = (
{
closed = 1;
nodes = (
"95 382 OFFCURVE",
"20 292 OFFCURVE",
"20 192 CURVE SMOOTH",
"20 81 OFFCURVE",
"110 -8 OFFCURVE",
"220 -8 CURVE SMOOTH",
"330 -8 OFFCURVE",
"420 81 OFFCURVE",
"420 192 CURVE SMOOTH",
"420 204 OFFCURVE",
"419 214 OFFCURVE",
"417 226 CURVE",
"469 226 LINE",
"562 46 LINE",
"564 42 OFFCURVE",
"569 40 OFFCURVE",
"574 40 CURVE SMOOTH",
"583 40 OFFCURVE",
"608 50 OFFCURVE",
"615 57 CURVE SMOOTH",
"617 59 OFFCURVE",
"620 62 OFFCURVE",
"620 68 CURVE SMOOTH",
"620 72 OFFCURVE",
"616 82 OFFCURVE",
"608 101 CURVE",
"523 297 LINE SMOOTH",
"513 320 OFFCURVE",
"500 327 OFFCURVE",
"477 327 CURVE SMOOTH",
"477 327 OFFCURVE",
"472 327 OFFCURVE",
"469 327 CURVE",
"469 350 OFFCURVE",
"454 366 OFFCURVE",
"428 366 CURVE SMOOTH",
"380 366 LINE",
"350 490 LINE SMOOTH",
"341 527 OFFCURVE",
"331 542 OFFCURVE",
"316 554 CURVE SMOOTH",
"302 567 OFFCURVE",
"294 579 OFFCURVE",
"294 601 CURVE SMOOTH",
"294 610 LINE",
"299 611 OFFCURVE",
"315 623 OFFCURVE",
"315 640 CURVE SMOOTH",
"315 705 LINE SMOOTH",
"315 729 OFFCURVE",
"289 746 OFFCURVE",
"264 746 CURVE SMOOTH",
"240 746 OFFCURVE",
"216 729 OFFCURVE",
"216 705 CURVE SMOOTH",
"216 641 LINE SMOOTH",
"216 620 OFFCURVE",
"228 612 OFFCURVE",
"232 610 CURVE",
"232 592 LINE SMOOTH",
"232 566 OFFCURVE",
"212 525 OFFCURVE",
"210 515 CURVE SMOOTH",
"205 490 OFFCURVE",
"205 470 OFFCURVE",
"206 439 CURVE SMOOTH",
"207 392 LINE"
);
},
{
closed = 1;
nodes = (
"208 268 LINE SMOOTH",
"208 246 OFFCURVE",
"223 226 OFFCURVE",
"250 226 CURVE SMOOTH",
"262 226 LINE",
"380 226 LINE",
"383 214 OFFCURVE",
"384 204 OFFCURVE",
"384 192 CURVE SMOOTH",
"384 100 OFFCURVE",
"311 27 OFFCURVE",
"220 27 CURVE SMOOTH",
"128 27 OFFCURVE",
"55 100 OFFCURVE",
"55 192 CURVE SMOOTH",
"55 275 OFFCURVE",
"113 345 OFFCURVE",
"207 356 CURVE"
);
}
);
};
layerId = "166CCA77-1BE6-4372-BC61-BAE07403C72D";
name = Regular;
paths = (
{
closed = 1;
nodes = (
"95 382 OFFCURVE",
"20 292 OFFCURVE",
"20 192 CURVE SMOOTH",
"20 81 OFFCURVE",
"110 -8 OFFCURVE",
"220 -8 CURVE SMOOTH",
"330 -8 OFFCURVE",
"420 81 OFFCURVE",
"420 192 CURVE SMOOTH",
"420 204 OFFCURVE",
"419 214 OFFCURVE",
"417 226 CURVE",
"469 226 LINE",
"562 46 LINE SMOOTH",
"564 42 OFFCURVE",
"569 40 OFFCURVE",
"574 40 CURVE SMOOTH",
"583 40 OFFCURVE",
"608 50 OFFCURVE",
"615 57 CURVE SMOOTH",
"617 59 OFFCURVE",
"620 62 OFFCURVE",
"620 68 CURVE SMOOTH",
"620 72 OFFCURVE",
"616 82 OFFCURVE",
"608 101 CURVE SMOOTH",
"523 297 LINE SMOOTH",
"513 320 OFFCURVE",
"500 327 OFFCURVE",
"477 327 CURVE SMOOTH",
"389.37 327 LINE",
"350 490 LINE SMOOTH",
"341.048 527.012 OFFCURVE",
"331 542 OFFCURVE",
"316 554 CURVE SMOOTH",
"302 567 OFFCURVE",
"294 579 OFFCURVE",
"294 601 CURVE SMOOTH",
"294 610 LINE",
"299 611 OFFCURVE",
"315 623 OFFCURVE",
"315 640 CURVE SMOOTH",
"315 705 LINE SMOOTH",
"315 729 OFFCURVE",
"289 746 OFFCURVE",
"264 746 CURVE SMOOTH",
"240 746 OFFCURVE",
"216 729 OFFCURVE",
"216 705 CURVE SMOOTH",
"216 641 LINE SMOOTH",
"216 620 OFFCURVE",
"228 612 OFFCURVE",
"232 610 CURVE",
"232 592 LINE SMOOTH",
"232 573.805 OFFCURVE",
"222.206 548.265 OFFCURVE",
"215.64 531.143 CURVE SMOOTH",
"205.323 504.242 OFFCURVE",
"204.651 480.816 OFFCURVE",
"206 439 CURVE SMOOTH",
"207 392 LINE"
);
},
{
closed = 1;
nodes = (
"208 268 LINE SMOOTH",
"208 246 OFFCURVE",
"223 226 OFFCURVE",
"250 226 CURVE SMOOTH",
"380 226 LINE",
"383 214 OFFCURVE",
"384 204 OFFCURVE",
"384 192 CURVE SMOOTH",
"384 100 OFFCURVE",
"311 27 OFFCURVE",
"220 27 CURVE SMOOTH",
"128 27 OFFCURVE",
"55 100 OFFCURVE",
"55 192 CURVE SMOOTH",
"55 275 OFFCURVE",
"113 345 OFFCURVE",
"207 356 CURVE"
);
}
);
width = 620;
}
);
},
{
color = 0;
glyphname = Q.ss01;
lastChange = "2014-11-22 02:06:50 +0000";
layers = (
{
background = {
paths = (
{
closed = 1;
nodes = (
"129 751 OFFCURVE",
"124 769 OFFCURVE",
"124 777 CURVE SMOOTH",
"124 785 OFFCURVE",
"124 793 OFFCURVE",
"124 793 CURVE",
"127 795 OFFCURVE",
"142 802 OFFCURVE",
"142 821 CURVE SMOOTH",
"144 890 LINE SMOOTH",
"144 914 OFFCURVE",
"121 930 OFFCURVE",
"95 930 CURVE SMOOTH",
"69 930 OFFCURVE",
"46 914 OFFCURVE",
"46 890 CURVE SMOOTH",
"48 825 LINE SMOOTH",
"49 804 OFFCURVE",
"59 797 OFFCURVE",
"63 795 CURVE",
"63 784 LINE SMOOTH",
"63 764 OFFCURVE",
"59 748 OFFCURVE",
"54 733 CURVE SMOOTH",
"49 716 OFFCURVE",
"43 700 OFFCURVE",
"43 679 CURVE SMOOTH",
"43 671 OFFCURVE",
"44 662 OFFCURVE",
"46 653 CURVE SMOOTH",
"55 605 OFFCURVE",
"64 564 OFFCURVE",
"74 522 CURVE",
"49 486 OFFCURVE",
"34 453 OFFCURVE",
"34 418 CURVE SMOOTH",
"34 359 OFFCURVE",
"34 320 OFFCURVE",
"34 320 CURVE SMOOTH",
"34 301 OFFCURVE",
"42 292 OFFCURVE",
"60 292 CURVE SMOOTH",
"88 292 LINE",
"99 22 LINE",
"100 7 OFFCURVE",
"113 0 OFFCURVE",
"138 0 CURVE SMOOTH",
"162 0 OFFCURVE",
"171 8 OFFCURVE",
"171 22 CURVE SMOOTH",
"173 293 LINE",
"224 294 LINE SMOOTH",
"250 294 OFFCURVE",
"256 301 OFFCURVE",
"256 319 CURVE SMOOTH",
"256 333 OFFCURVE",
"256 360 OFFCURVE",
"257 401 CURVE SMOOTH",
"258 424 OFFCURVE",
"261 451 OFFCURVE",
"261 482 CURVE SMOOTH",
"261 551 OFFCURVE",
"241 575 OFFCURVE",
"193 623 CURVE",
"199 629 OFFCURVE",
"201 637 OFFCURVE",
"201 643 CURVE SMOOTH",
"201 649 OFFCURVE",
"199 654 OFFCURVE",
"195 659 CURVE SMOOTH",
"189 667 OFFCURVE",
"155 715 OFFCURVE",
"141 734 CURVE SMOOTH"
);
}
);
};
layerId = "166CCA77-1BE6-4372-BC61-BAE07403C72D";
name = Regular;
paths = (
{
closed = 1;
nodes = (
"129 751 OFFCURVE",
"124 769 OFFCURVE",
"124 777 CURVE SMOOTH",
"124 793 LINE",
"133.707 798.799 OFFCURVE",
"142 806.33 OFFCURVE",
"142 821 CURVE SMOOTH",
"144 890 LINE SMOOTH",
"144 914 OFFCURVE",
"121 930 OFFCURVE",
"95 930 CURVE SMOOTH",
"69 930 OFFCURVE",
"46 914 OFFCURVE",
"46 890 CURVE SMOOTH",
"48 825 LINE SMOOTH",
"49 804 OFFCURVE",
"59 797 OFFCURVE",
"63 795 CURVE",
"63 784 LINE SMOOTH",
"63 764 OFFCURVE",
"59 748 OFFCURVE",
"54 733 CURVE SMOOTH",
"47.013 712.039 OFFCURVE",
"43 694.419 OFFCURVE",
"43 679 CURVE SMOOTH",
"43 671 OFFCURVE",
"44 662 OFFCURVE",
"46 653 CURVE SMOOTH",
"74 522 LINE",
"49 486 OFFCURVE",
"34 453 OFFCURVE",
"34 418 CURVE SMOOTH",
"34 320 LINE SMOOTH",
"34 301 OFFCURVE",
"42 292 OFFCURVE",
"60 292 CURVE SMOOTH",
"88 292 LINE",
"99 22 LINE SMOOTH",
"100 7 OFFCURVE",
"113 0 OFFCURVE",
"138 0 CURVE SMOOTH",
"162 0 OFFCURVE",
"171 8 OFFCURVE",
"171 22 CURVE SMOOTH",
"173 293 LINE",
"224 294 LINE SMOOTH",
"250 294 OFFCURVE",
"256 301 OFFCURVE",
"256 319 CURVE SMOOTH",
"256 339.569 OFFCURVE",
"257.108 405.502 OFFCURVE",
"258.542 426.2 CURVE SMOOTH",
"259.711 443.082 OFFCURVE",
"261 461.682 OFFCURVE",
"261 482 CURVE SMOOTH",
"261 551 OFFCURVE",
"241 575 OFFCURVE",
"193 623 CURVE",
"199 629 OFFCURVE",
"201 637 OFFCURVE",
"201 643 CURVE SMOOTH",
"201 649 OFFCURVE",
"199 654 OFFCURVE",
"195 659 CURVE SMOOTH",
"141 734 LINE SMOOTH"
);
}
);
width = 290;
}
);
},
{
color = 0;
glyphname = R.ss01;
lastChange = "2014-11-22 02:13:09 +0000";
layers = (
{
background = {
paths = (
{
closed = 1;
nodes = (
"381 5 OFFCURVE",
"369 0 OFFCURVE",
"346 0 CURVE SMOOTH",
"320 0 OFFCURVE",
"309 4 OFFCURVE",
"308 16 CURVE",
"298 225 LINE",
"75 225 LINE SMOOTH",
"49 225 OFFCURVE",
"33 243 OFFCURVE",
"30 266 CURVE",
"10 521 LINE",
"10 533 OFFCURVE",
"16 538 OFFCURVE",
"35 538 CURVE",
"45.75 557.78 OFFCURVE",
"60 591.29 OFFCURVE",
"60 611 CURVE SMOOTH",
"60 625 LINE",
"56 627 OFFCURVE",
"44 635 OFFCURVE",
"44 657 CURVE SMOOTH",
"44 723 LINE SMOOTH",
"44 747 OFFCURVE",
"68 763 OFFCURVE",
"93 763 CURVE SMOOTH",
"118 763 OFFCURVE",
"143 747 OFFCURVE",
"143 723 CURVE SMOOTH",
"144 655 LINE SMOOTH",
"144 634.701 OFFCURVE",
"129.527 628.023 OFFCURVE",
"124.147 625.541 CURVE SMOOTH",
"123 625 LINE",
"123 619 LINE SMOOTH",
"123 598 OFFCURVE",
"131 587 OFFCURVE",
"146 572 CURVE SMOOTH",
"167 553 OFFCURVE",
"178 539 OFFCURVE",
"186 508 CURVE SMOOTH",
"219 377 LINE",
"263 377 LINE SMOOTH",
"285 377 OFFCURVE",
"304 352 OFFCURVE",
"304 328 CURVE",
"171 328 LINE",
"181 296 OFFCURVE",
"267 269 OFFCURVE",
"381 262 CURVE",
"381 16 LINE SMOOTH"
);
},
{
closed = 1;
nodes = (
"512 4 OFFCURVE",
"521 0 OFFCURVE",
"551 0 CURVE SMOOTH",
"578 0 OFFCURVE",
"585 4 OFFCURVE",
"586 14 CURVE",
"595 225 LINE",
"818 225 LINE SMOOTH",
"844 225 OFFCURVE",
"861 243 OFFCURVE",
"863 266 CURVE SMOOTH",
"883 521 LINE",
"883 533 OFFCURVE",
"877 538 OFFCURVE",
"858 538 CURVE SMOOTH",
"847.25 557.78 OFFCURVE",
"833 591.29 OFFCURVE",
"833 611 CURVE SMOOTH",
"833 625 LINE",
"837 627 OFFCURVE",
"849 635 OFFCURVE",
"849 657 CURVE SMOOTH",
"849 723 LINE SMOOTH",
"849 747 OFFCURVE",
"825 763 OFFCURVE",
"800 763 CURVE SMOOTH",
"775 763 OFFCURVE",
"750 747 OFFCURVE",
"750 723 CURVE SMOOTH",
"750 655 LINE SMOOTH",
"750 634.455 OFFCURVE",
"763.953 627.864 OFFCURVE",
"769.057 625.453 CURVE SMOOTH",
"770 625 LINE",
"770 619 LINE SMOOTH",
"770 598 OFFCURVE",
"762 587 OFFCURVE",
"747 572 CURVE SMOOTH",
"726 553 OFFCURVE",
"715 539 OFFCURVE",
"708 508 CURVE SMOOTH",
"674 377 LINE",
"630 377 LINE SMOOTH",
"607 377 OFFCURVE",
"589 352 OFFCURVE",
"589 328 CURVE",
"722 328 LINE",
"712 296 OFFCURVE",
"626 269 OFFCURVE",
"512 262 CURVE",
"512 16 LINE SMOOTH"
);
},
{
closed = 1;
nodes = (
"421 795 OFFCURVE",
"399 779 OFFCURVE",
"399 755 CURVE SMOOTH",
"401 691 LINE SMOOTH",
"402 670 OFFCURVE",
"411 663 OFFCURVE",
"415 661 CURVE",
"415 642 LINE SMOOTH",
"415 622 OFFCURVE",
"380 603 OFFCURVE",
"352 595 CURVE SMOOTH",
"325 587 OFFCURVE",
"312 563 OFFCURVE",
"312 537 CURVE SMOOTH",
"315 399 LINE",
"354 405 OFFCURVE",
"399 408 OFFCURVE",
"447 408 CURVE SMOOTH",
"496 408 OFFCURVE",
"541 405 OFFCURVE",
"581 399 CURVE",
"585 537 LINE SMOOTH",
"585 563 OFFCURVE",
"572 588 OFFCURVE",
"545 595 CURVE SMOOTH",
"516 603 OFFCURVE",
"482 622 OFFCURVE",
"482 642 CURVE SMOOTH",
"482 661 LINE",
"485 663 OFFCURVE",
"494 670 OFFCURVE",
"495 691 CURVE SMOOTH",
"497 755 LINE SMOOTH",
"497 779 OFFCURVE",
"475 795 OFFCURVE",
"448 795 CURVE SMOOTH"
);
}
);
};
layerId = "166CCA77-1BE6-4372-BC61-BAE07403C72D";
name = Regular;
paths = (
{
closed = 1;
nodes = (
"381 5 OFFCURVE",
"369 0 OFFCURVE",
"346 0 CURVE SMOOTH",
"320 0 OFFCURVE",
"308.528 4.97 OFFCURVE",
"308 16 CURVE SMOOTH",
"298 225 LINE",
"75 225 LINE SMOOTH",
"49 225 OFFCURVE",
"31.829 242.956 OFFCURVE",
"30 266 CURVE SMOOTH",
"23.333 350 OFFCURVE",
"10 508 OFFCURVE",
"10 521 CURVE SMOOTH",
"10 533 OFFCURVE",
"16 538 OFFCURVE",
"35 538 CURVE",
"45.75 557.78 OFFCURVE",
"60 591.29 OFFCURVE",
"60 611 CURVE SMOOTH",
"60 625 LINE",
"56 627 OFFCURVE",
"44 635 OFFCURVE",
"44 657 CURVE SMOOTH",
"44 723 LINE SMOOTH",
"44 747 OFFCURVE",
"68 763 OFFCURVE",
"93 763 CURVE SMOOTH",
"118 763 OFFCURVE",
"143 747 OFFCURVE",
"143 723 CURVE SMOOTH",
"144 655 LINE SMOOTH",
"144 641.171 OFFCURVE",
"137.078 630.52 OFFCURVE",
"123 625 CURVE",
"123 619 LINE SMOOTH",
"123 598 OFFCURVE",
"131 587 OFFCURVE",
"146 572 CURVE SMOOTH",
"167 553 OFFCURVE",
"178 539 OFFCURVE",
"186 508 CURVE SMOOTH",
"219 377 LINE",
"263 377 LINE SMOOTH",
"285 377 OFFCURVE",
"304 352 OFFCURVE",
"304 328 CURVE",
"171 328 LINE",
"181 296 OFFCURVE",
"267 269 OFFCURVE",
"381 262 CURVE",
"381 16 LINE SMOOTH"
);
},
{
closed = 1;
nodes = (
"512 4 OFFCURVE",
"521 0 OFFCURVE",
"551 0 CURVE SMOOTH",
"578 0 OFFCURVE",
"585.614 4.957 OFFCURVE",
"586 14 CURVE SMOOTH",
"595 225 LINE",
"818 225 LINE SMOOTH",
"844 225 OFFCURVE",
"861.173 242.986 OFFCURVE",
"863 266 CURVE SMOOTH",
"869.667 350 OFFCURVE",
"883 508 OFFCURVE",
"883 521 CURVE SMOOTH",
"883 533 OFFCURVE",
"877 538 OFFCURVE",
"858 538 CURVE SMOOTH",
"847.25 557.78 OFFCURVE",
"833 591.29 OFFCURVE",
"833 611 CURVE SMOOTH",
"833 625 LINE",
"837 627 OFFCURVE",
"849 635 OFFCURVE",
"849 657 CURVE SMOOTH",
"849 723 LINE SMOOTH",
"849 747 OFFCURVE",
"825 763 OFFCURVE",
"800 763 CURVE SMOOTH",
"775 763 OFFCURVE",
"750 747 OFFCURVE",
"750 723 CURVE SMOOTH",
"750 655 LINE SMOOTH",
"750 641.093 OFFCURVE",
"756.697 631.301 OFFCURVE",
"770 625 CURVE",
"770 619 LINE SMOOTH",
"770 598 OFFCURVE",
"762 587 OFFCURVE",
"747 572 CURVE SMOOTH",
"726 553 OFFCURVE",
"715 539 OFFCURVE",
"708 508 CURVE SMOOTH",
"674 377 LINE",
"630 377 LINE SMOOTH",
"607 377 OFFCURVE",
"589 352 OFFCURVE",
"589 328 CURVE",
"722 328 LINE",
"712 296 OFFCURVE",
"626 269 OFFCURVE",
"512 262 CURVE",
"512 16 LINE SMOOTH"
);
},
{
closed = 1;
nodes = (
"421 795 OFFCURVE",
"399 779 OFFCURVE",
"399 755 CURVE SMOOTH",
"401 691 LINE SMOOTH",
"402 670 OFFCURVE",
"411 663 OFFCURVE",
"415 661 CURVE",
"415 642 LINE SMOOTH",
"415 622 OFFCURVE",
"380 603 OFFCURVE",
"352 595 CURVE SMOOTH",
"325 587 OFFCURVE",
"312 563 OFFCURVE",
"312 537 CURVE SMOOTH",
"312 518 OFFCURVE",
"314 445 OFFCURVE",
"315 399 CURVE",
"354 405 OFFCURVE",
"399 408 OFFCURVE",
"447 408 CURVE SMOOTH",
"496 408 OFFCURVE",
"541 405 OFFCURVE",
"581 399 CURVE",
"582.333 445 OFFCURVE",
"585 518 OFFCURVE",
"585 537 CURVE SMOOTH",
"585 563 OFFCURVE",
"572 588 OFFCURVE",
"545 595 CURVE SMOOTH",
"516 603 OFFCURVE",
"482 622 OFFCURVE",
"482 642 CURVE SMOOTH",
"482 661 LINE",
"485 663 OFFCURVE",
"494 670 OFFCURVE",
"495 691 CURVE SMOOTH",
"497 755 LINE SMOOTH",
"497 779 OFFCURVE",
"475 795 OFFCURVE",
"448 795 CURVE SMOOTH"
);
}
);
width = 893;
}
);
},
{
color = 0;
glyphname = S.ss01;
lastChange = "2014-11-22 02:18:24 +0000";
layers = (
{
background = {
paths = (
{
closed = 1;
nodes = (
"821 89 OFFCURVE",
"762 30 OFFCURVE",
"695 30 CURVE SMOOTH",
"627 30 OFFCURVE",
"569 89 OFFCURVE",
"569 156 CURVE SMOOTH",
"569 204 OFFCURVE",
"597 249 OFFCURVE",
"638 269 CURVE",
"676 156 LINE",
"681 141 OFFCURVE",
"686 137 OFFCURVE",
"694 137 CURVE SMOOTH",
"702 137 OFFCURVE",
"709 143 OFFCURVE",
"709 152 CURVE",
"709 156 OFFCURVE",
"708 159 OFFCURVE",
"705 167 CURVE",
"667 279 LINE",
"678 281 OFFCURVE",
"687 282 OFFCURVE",
"695 282 CURVE SMOOTH",
"763 282 OFFCURVE",
"821 226 OFFCURVE",
"821 156 CURVE SMOOTH"
);
},
{
closed = 1;
nodes = (
"607 363 LINE",
"626 305 LINE",
"565 276 OFFCURVE",
"532 224 OFFCURVE",
"532 156 CURVE SMOOTH",
"532 59 OFFCURVE",
"608 -8 OFFCURVE",
"695 -8 CURVE SMOOTH",
"782 -8 OFFCURVE",
"859 59 OFFCURVE",
"859 156 CURVE SMOOTH",
"859 243 OFFCURVE",
"791 320 OFFCURVE",
"695 320 CURVE SMOOTH",
"685 320 OFFCURVE",
"667 318 OFFCURVE",
"655 315 CURVE",
"593 503 LINE",
"589 516 OFFCURVE",
"585 523 OFFCURVE",
"575 523 CURVE",
"485 523 LINE",
"476 523 OFFCURVE",
"469 516 OFFCURVE",
"469 508 CURVE",
"469 500 OFFCURVE",
"475 492 OFFCURVE",
"485 492 CURVE",
"564 492 LINE",
"595 398 LINE",
"407 185 LINE",
"404 187 OFFCURVE",
"402 188 OFFCURVE",
"398 189 CURVE",
"398 368 LINE",
"408 368 LINE",
"418 368 OFFCURVE",
"424 376 OFFCURVE",
"424 384 CURVE",
"424 392 OFFCURVE",
"417 399 OFFCURVE",
"408 399 CURVE",
"294 399 LINE",
"285 399 OFFCURVE",
"278 392 OFFCURVE",
"278 384 CURVE",
"278 376 OFFCURVE",
"284 368 OFFCURVE",
"294 368 CURVE",
"304 368 LINE",
"248 296 LINE",
"223 311 OFFCURVE",
"201 319 OFFCURVE",
"163 319 CURVE SMOOTH",
"76 319 OFFCURVE",
"0 248 OFFCURVE",
"0 156 CURVE SMOOTH",
"0 62 OFFCURVE",
"76 -8 OFFCURVE",
"163 -8 CURVE SMOOTH",
"258 -8 OFFCURVE",
"321 73 OFFCURVE",
"326 139 CURVE",
"357 139 LINE",
"361 128 OFFCURVE",
"375 120 OFFCURVE",
"390 120 CURVE",
"408 120 OFFCURVE",
"423 135 OFFCURVE",
"423 156 CURVE"
);
},
{
closed = 1;
nodes = (
"366 182 LINE",
"361 178 OFFCURVE",
"359 175 OFFCURVE",
"356 170 CURVE",
"326 170 LINE",
"323 208 OFFCURVE",
"302 251 OFFCURVE",
"272 277 CURVE",
"344 368 LINE",
"366 368 LINE"
);
},
{
closed = 1;
nodes = (
"272 228 OFFCURVE",
"287 198 OFFCURVE",
"289 170 CURVE",
"189 170 LINE",
"250 248 LINE"
);
},
{
closed = 1;
nodes = (
"187 282 OFFCURVE",
"207 277 OFFCURVE",
"225 267 CURVE",
"147 167 LINE",
"144 163 OFFCURVE",
"143 159 OFFCURVE",
"143 153 CURVE",
"143 144 OFFCURVE",
"152 139 OFFCURVE",
"163 139 CURVE",
"288 139 LINE",
"283 89 OFFCURVE",
"233 30 OFFCURVE",
"163 30 CURVE SMOOTH",
"96 30 OFFCURVE",
"37 89 OFFCURVE",
"37 156 CURVE SMOOTH",
"37 226 OFFCURVE",
"96 282 OFFCURVE",
"163 282 CURVE SMOOTH"
);
}
);
};
layerId = "166CCA77-1BE6-4372-BC61-BAE07403C72D";
name = Regular;
paths = (
{
closed = 1;
nodes = (
"567 481 LINE",
"431 481 LINE SMOOTH",
"402.917 481 OFFCURVE",
"397.657 483 OFFCURVE",
"393 491 CURVE SMOOTH",
"354 558 LINE",
"335 462 LINE",
"465 388 LINE SMOOTH",
"474 383 OFFCURVE",
"480 374 OFFCURVE",
"480 365 CURVE SMOOTH",
"480 356 OFFCURVE",
"477.47 344.13 OFFCURVE",
"476 337 CURVE SMOOTH",
"456 240 LINE",
"595 397 LINE"
);
},
{
closed = 1;
nodes = (
"273 355 LINE",
"244 294 LINE",
"289 272 OFFCURVE",
"320 218 OFFCURVE",
"324 169 CURVE",
"369 169 LINE",
"398 317 LINE"
);
},
{
closed = 1;
nodes = (
"188 169 LINE",
"287 169 LINE",
"284 205 OFFCURVE",
"259 243 OFFCURVE",
"229 260 CURVE"
);
},
{
closed = 1;
nodes = (
"95 280 OFFCURVE",
"37 224 OFFCURVE",
"37 155 CURVE SMOOTH",
"37 88 OFFCURVE",
"95 30 OFFCURVE",
"162 30 CURVE SMOOTH",
"231 30 OFFCURVE",
"281 86 OFFCURVE",
"286 136 CURVE",
"162 136 LINE SMOOTH",
"152 136 OFFCURVE",
"148 142 OFFCURVE",
"148 150 CURVE SMOOTH",
"148 154 OFFCURVE",
"149.456 159.34 OFFCURVE",
"152 165 CURVE SMOOTH",
"201 274 LINE",
"190 278 OFFCURVE",
"175 280 OFFCURVE",
"162 280 CURVE SMOOTH"
);
},
{
closed = 1;
nodes = (
"445 180 LINE",
"431 107 LINE SMOOTH",
"427 86 OFFCURVE",
"422 82 OFFCURVE",
"407 82 CURVE SMOOTH",
"404 82 OFFCURVE",
"388 85 OFFCURVE",
"377 88 CURVE SMOOTH",
"362.45 91.829 OFFCURVE",
"357.869 97.418 OFFCURVE",
"357.869 107.011 CURVE SMOOTH",
"357.869 109.945 OFFCURVE",
"358.297 113.253 OFFCURVE",
"359 117 CURVE SMOOTH",
"363 136 LINE",
"324 136 LINE",
"319 70 OFFCURVE",
"256 -8 OFFCURVE",
"162 -8 CURVE SMOOTH",
"75 -8 OFFCURVE",
"0 62 OFFCURVE",
"0 155 CURVE SMOOTH",
"0 246 OFFCURVE",
"75 317 OFFCURVE",
"162 317 CURVE SMOOTH",
"178 317 OFFCURVE",
"200 314 OFFCURVE",
"216 308 CURVE",
"244 366 LINE",
"220 375 OFFCURVE",
"187 393 OFFCURVE",
"186 433 CURVE SMOOTH",
"186 441 OFFCURVE",
"187 451 OFFCURVE",
"191 462 CURVE SMOOTH",
"268 663 LINE SMOOTH",
"279.18 689.831 OFFCURVE",
"296.296 704.788 OFFCURVE",
"309.219 716.082 CURVE SMOOTH",
"319.414 724.992 OFFCURVE",
"327 731.621 OFFCURVE",
"327 740 CURVE SMOOTH",
"327 749 LINE",
"324 755 OFFCURVE",
"323 761 OFFCURVE",
"323 769 CURVE SMOOTH",
"323 771.017 OFFCURVE",
"324.923 804.931 OFFCURVE",
"327 835 CURVE SMOOTH",
"328.659 859.026 OFFCURVE",
"345 874 OFFCURVE",
"372 874 CURVE SMOOTH",
"399 874 OFFCURVE",
"422 856 OFFCURVE",
"422 835 CURVE SMOOTH",
"422 826.741 OFFCURVE",
"419.029 803.443 OFFCURVE",
"414 762 CURVE SMOOTH",
"412.297 747.961 OFFCURVE",
"399 734 OFFCURVE",
"383 730 CURVE",
"380.826 725.411 OFFCURVE",
"379.022 718.364 OFFCURVE",
"379.022 710.61 CURVE SMOOTH",
"379.022 704.56 OFFCURVE",
"380.68 698.314 OFFCURVE",
"383 692 CURVE SMOOTH",
"431 548 LINE",
"525 548 LINE SMOOTH",
"544 548 OFFCURVE",
"556 536 OFFCURVE",
"556 523 CURVE",
"573 523 LINE SMOOTH",
"585 523 OFFCURVE",
"589 517 OFFCURVE",
"593 503 CURVE",
"655 315 LINE",
"667 318 OFFCURVE",
"685 320 OFFCURVE",
"695 320 CURVE SMOOTH",
"791 320 OFFCURVE",
"859 243 OFFCURVE",
"859 156 CURVE SMOOTH",
"859 59 OFFCURVE",
"782 -8 OFFCURVE",
"695 -8 CURVE SMOOTH",
"608 -8 OFFCURVE",
"532 59 OFFCURVE",
"532 156 CURVE SMOOTH",
"532 224 OFFCURVE",
"565 276 OFFCURVE",
"626 305 CURVE",
"607 362 LINE"
);
},
{
closed = 1;
nodes = (
"821 226 OFFCURVE",
"763 282 OFFCURVE",
"695 282 CURVE SMOOTH",
"687 282 OFFCURVE",
"678 281 OFFCURVE",
"667 279 CURVE",
"705 167 LINE SMOOTH",
"708 159 OFFCURVE",
"709 156 OFFCURVE",
"709 152 CURVE SMOOTH",
"709 143 OFFCURVE",
"702 137 OFFCURVE",
"694 137 CURVE SMOOTH",
"686 137 OFFCURVE",
"681 141 OFFCURVE",
"676 156 CURVE SMOOTH",
"638 269 LINE",
"597 249 OFFCURVE",
"569 204 OFFCURVE",
"569 156 CURVE SMOOTH",
"569 89 OFFCURVE",
"627 30 OFFCURVE",
"695 30 CURVE SMOOTH",
"762 30 OFFCURVE",
"821 89 OFFCURVE",
"821 156 CURVE SMOOTH"
);
}
);
width = 853;
}
);
},
{
color = 0;
glyphname = T.ss01;
lastChange = "2014-11-22 02:20:29 +0000";
layers = (
{
layerId = "166CCA77-1BE6-4372-BC61-BAE07403C72D";
name = Regular;
paths = (
{
closed = 1;
nodes = (
"484 21 LINE SMOOTH",
"484 6 OFFCURVE",
"470 0 OFFCURVE",
"444 0 CURVE SMOOTH",
"422 0 OFFCURVE",
"402.357 5.971 OFFCURVE",
"401 21 CURVE SMOOTH",
"387 176 LINE",
"312 176 LINE SMOOTH",
"272 176 OFFCURVE",
"219 185 OFFCURVE",
"171 206 CURVE",
"141 21 LINE SMOOTH",
"138.541 5.834 OFFCURVE",
"123 0 OFFCURVE",
"98 0 CURVE SMOOTH",
"75 0 OFFCURVE",
"62 6 OFFCURVE",
"62 21 CURVE SMOOTH",
"62 48.108 OFFCURVE",
"75.333 226.333 OFFCURVE",
"82 329 CURVE",
"59 338 OFFCURVE",
"40 369 OFFCURVE",
"40 391 CURVE",
"359 358 LINE",
"380.434 303.225 OFFCURVE",
"419.13 279 OFFCURVE",
"485 279 CURVE"
);
},
{
closed = 1;
nodes = (
"497 525 LINE SMOOTH",
"500.096 528.965 OFFCURVE",
"503 530 OFFCURVE",
"506 530 CURVE SMOOTH",
"510 530 OFFCURVE",
"513 527 OFFCURVE",
"513 524 CURVE SMOOTH",
"513 481 LINE",
"605 428 LINE SMOOTH",
"613 423 OFFCURVE",
"620 416.694 OFFCURVE",
"620 409 CURVE SMOOTH",
"620 401 OFFCURVE",
"616 391 OFFCURVE",
"610 378 CURVE SMOOTH",
"602 362 OFFCURVE",
"591 354 OFFCURVE",
"572 354 CURVE SMOOTH",
"509 354 LINE",
"488 299 LINE",
"433.396 299 OFFCURVE",
"390.026 322.775 OFFCURVE",
"375 370 CURVE"
);
}
);
width = 610;
}
);
},
{
color = 0;
glyphname = U.ss01;
lastChange = "2014-12-12 00:28:09 +0000";
layers = (
{
background = {
paths = (
{
closed = 1;
nodes = (
"47.381 115.941 OFFCURVE",
"43.284 101.791 OFFCURVE",
"54.182 86.36 CURVE",
"54.182 86.36 OFFCURVE",
"90.415 39.72 OFFCURVE",
"112.634 11.501 CURVE SMOOTH",
"120.799 0.481 OFFCURVE",
"130.309 -5.641 OFFCURVE",
"145.849 4.751 CURVE SMOOTH",
"166.974 19.714 OFFCURVE",
"173.924 29.236 OFFCURVE",
"166.921 41.37 CURVE",
"129.749 92.047 LINE",
"180.404 139.885 LINE",
"123.844 196.76 LINE",
"56.116 125.819 LINE"
);
},
{
closed = 1;
nodes = (
"338.156 115.894 OFFCURVE",
"342.233 101.75 OFFCURVE",
"331.342 86.346 CURVE",
"331.342 86.346 OFFCURVE",
"295.101 39.713 OFFCURVE",
"272.928 11.497 CURVE SMOOTH",
"264.767 0.481 OFFCURVE",
"255.271 -5.638 OFFCURVE",
"239.795 4.75 CURVE SMOOTH",
"218.595 19.719 OFFCURVE",
"211.671 29.243 OFFCURVE",
"218.637 41.381 CURVE",
"255.829 92.002 LINE",
"205.112 139.885 LINE",
"261.685 196.76 LINE",
"329.456 125.758 LINE"
);
},
{
closed = 1;
nodes = (
"258.11 223.644 LINE",
"250.013 306.204 LINE",
"305.96 255.181 LINE",
"320.992 240.162 OFFCURVE",
"337.171 242.882 OFFCURVE",
"350.409 256.081 CURVE SMOOTH",
"363.634 269.359 OFFCURVE",
"361.171 287.836 OFFCURVE",
"347.946 301.007 CURVE SMOOTH",
"268.367 380.628 LINE",
"268.367 380.628 OFFCURVE",
"246.148 404.165 OFFCURVE",
"222.881 404.165 CURVE",
"220.978 421.798 LINE",
"227.713 424.058 OFFCURVE",
"236.133 431.977 OFFCURVE",
"237.153 448.874 CURVE SMOOTH",
"239.399 494.48 LINE",
"239.399 494.48 OFFCURVE",
"242.244 535.026 OFFCURVE",
"192.935 535.026 CURVE SMOOTH",
"143.614 535.026 OFFCURVE",
"146.484 494.48 OFFCURVE",
"146.484 494.48 CURVE",
"148.688 448.874 LINE SMOOTH",
"149.722 431.977 OFFCURVE",
"158.16 424.058 OFFCURVE",
"164.908 421.798 CURVE",
"162.621 404.165 LINE",
"139.396 404.165 OFFCURVE",
"117.137 380.628 OFFCURVE",
"117.137 380.628 CURVE",
"36.034 299.536 LINE SMOOTH",
"22.82 286.284 OFFCURVE",
"20.385 267.809 OFFCURVE",
"33.585 254.582 CURVE SMOOTH",
"46.809 241.357 OFFCURVE",
"63.013 238.638 OFFCURVE",
"78.021 253.632 CURVE",
"135.547 306.204 LINE",
"127.464 223.699 LINE"
);
}
);
};
layerId = "166CCA77-1BE6-4372-BC61-BAE07403C72D";
name = Regular;
paths = (
{
closed = 1;
nodes = (
"263 197 LINE",
"206 140 LINE",
"256 93 LINE",
"219 41 LINE SMOOTH",
"217 38 OFFCURVE",
"216 36 OFFCURVE",
"216 33 CURVE SMOOTH",
"216 25 OFFCURVE",
"224 17 OFFCURVE",
"241 5 CURVE SMOOTH",
"246 2 OFFCURVE",
"251 0 OFFCURVE",
"255 0 CURVE SMOOTH",
"263 0 OFFCURVE",
"268 5 OFFCURVE",
"273 12 CURVE SMOOTH",
"332 87 LINE SMOOTH",
"337 94 OFFCURVE",
"339 100 OFFCURVE",
"339 106 CURVE SMOOTH",
"339 113 OFFCURVE",
"335 120 OFFCURVE",
"330 126 CURVE SMOOTH"
);
},
{
closed = 1;
nodes = (
"124 197 LINE",
"181 140 LINE",
"131 93 LINE",
"166 44 LINE SMOOTH",
"170 38 OFFCURVE",
"171 36 OFFCURVE",
"171 33 CURVE SMOOTH",
"171 25 OFFCURVE",
"163 18 OFFCURVE",
"146 5 CURVE SMOOTH",
"141 1 OFFCURVE",
"136 0 OFFCURVE",
"132 0 CURVE SMOOTH",
"124 0 OFFCURVE",
"119 5 OFFCURVE",
"113 12 CURVE SMOOTH",
"55 87 LINE SMOOTH",
"50 93 OFFCURVE",
"49 100 OFFCURVE",
"49 105 CURVE SMOOTH",
"49 113 OFFCURVE",
"52 120 OFFCURVE",
"57 126 CURVE SMOOTH"
);
},
{
closed = 1;
nodes = (
"220.803 535 OFFCURVE",
"239.088 520.556 OFFCURVE",
"239.088 497.428 CURVE SMOOTH",
"239.088 494.378 OFFCURVE",
"239.437 485.469 OFFCURVE",
"237 449 CURVE SMOOTH",
"236 432 OFFCURVE",
"228 424 OFFCURVE",
"221 422 CURVE",
"224 404 LINE",
"240.79 404 OFFCURVE",
"259.54 390.89 OFFCURVE",
"269 381 CURVE SMOOTH",
"350 300 LINE SMOOTH",
"357 293 OFFCURVE",
"362 284 OFFCURVE",
"362 276 CURVE SMOOTH",
"362 268 OFFCURVE",
"359 261 OFFCURVE",
"353 255 CURVE SMOOTH",
"346 248 OFFCURVE",
"337 243 OFFCURVE",
"329 243 CURVE SMOOTH",
"322 243 OFFCURVE",
"315 247 OFFCURVE",
"308 254 CURVE SMOOTH",
"250 307 LINE",
"259 224 LINE",
"128 224 LINE",
"137 307 LINE",
"81 256 LINE SMOOTH",
"73.638 249.296 OFFCURVE",
"66 245 OFFCURVE",
"59 245 CURVE SMOOTH",
"51 245 OFFCURVE",
"43 249 OFFCURVE",
"36 256 CURVE SMOOTH",
"30 263 OFFCURVE",
"27 270 OFFCURVE",
"27 278 CURVE SMOOTH",
"27 286 OFFCURVE",
"31 294 OFFCURVE",
"38 301 CURVE SMOOTH",
"118 381 LINE SMOOTH",
"127.46 390.89 OFFCURVE",
"146.21 404 OFFCURVE",
"163 404 CURVE",
"165 422 LINE",
"158 424 OFFCURVE",
"150 432 OFFCURVE",
"149 449 CURVE SMOOTH",
"147.618 470.608 OFFCURVE",
"147.017 485.002 OFFCURVE",
"147.017 497.428 CURVE SMOOTH",
"147.017 514.51 OFFCURVE",
"158.868 535 OFFCURVE",
"193.105 535 CURVE SMOOTH"
);
}
);
width = 389;
}
);
},
{
color = 1;
glyphname = A.ss02;
lastChange = "2014-11-22 02:23:56 +0000";
layers = (
{
background = {
paths = (
{
closed = 1;
nodes = (
"72 31 OFFCURVE",
"79 0 OFFCURVE",
"132 0 CURVE SMOOTH",
"185 0 OFFCURVE",
"200 31 OFFCURVE",
"246 31 CURVE SMOOTH",
"291 31 OFFCURVE",
"311 0 OFFCURVE",
"361 0 CURVE SMOOTH",
"410 0 OFFCURVE",
"430 31 OFFCURVE",
"476 31 CURVE SMOOTH",
"522 31 OFFCURVE",
"537 0 OFFCURVE",
"590 0 CURVE SMOOTH",
"643 0 OFFCURVE",
"650 31 OFFCURVE",
"701 31 CURVE SMOOTH",
"714 31 OFFCURVE",
"720 41 OFFCURVE",
"720 65 CURVE",
"720 78 LINE SMOOTH",
"720 99 OFFCURVE",
"716 113 OFFCURVE",
"701 113 CURVE SMOOTH",
"650 113 OFFCURVE",
"643 81 OFFCURVE",
"590 81 CURVE SMOOTH",
"537 81 OFFCURVE",
"522 113 OFFCURVE",
"476 113 CURVE SMOOTH",
"430 113 OFFCURVE",
"410 81 OFFCURVE",
"361 81 CURVE SMOOTH",
"311 81 OFFCURVE",
"291 113 OFFCURVE",
"246 113 CURVE SMOOTH",
"200 113 OFFCURVE",
"185 81 OFFCURVE",
"132 81 CURVE SMOOTH",
"79 81 OFFCURVE",
"72 113 OFFCURVE",
"19 113 CURVE",
"4 113 OFFCURVE",
"0 99 OFFCURVE",
"0 78 CURVE SMOOTH",
"0 65 LINE",
"0 41 OFFCURVE",
"6 31 OFFCURVE",
"19 31 CURVE"
);
},
{
closed = 1;
nodes = (
"144 495 LINE",
"129 487 OFFCURVE",
"123 480 OFFCURVE",
"123 471 CURVE SMOOTH",
"123 465 OFFCURVE",
"126 457 OFFCURVE",
"132 446 CURVE SMOOTH",
"148 419 OFFCURVE",
"160 402 OFFCURVE",
"179 331 CURVE",
"224 143 LINE",
"231 144 OFFCURVE",
"238 145 OFFCURVE",
"246 145 CURVE SMOOTH",
"289 145 OFFCURVE",
"306 119 OFFCURVE",
"347 114 CURVE",
"347 602 LINE"
);
},
{
closed = 1;
nodes = (
"536 592 LINE SMOOTH",
"536 605 OFFCURVE",
"529 606 OFFCURVE",
"509 606 CURVE",
"509 672 LINE SMOOTH",
"509 687 OFFCURVE",
"495 690 OFFCURVE",
"468 690 CURVE SMOOTH",
"409 690 LINE",
"409 734 LINE SMOOTH",
"409 758 OFFCURVE",
"386 763 OFFCURVE",
"361 763 CURVE SMOOTH",
"335 763 OFFCURVE",
"312 758 OFFCURVE",
"312 734 CURVE SMOOTH",
"312 690 LINE",
"253 690 LINE SMOOTH",
"226 690 OFFCURVE",
"213 687 OFFCURVE",
"213 672 CURVE SMOOTH",
"213 606 LINE",
"192 606 OFFCURVE",
"185 605 OFFCURVE",
"185 592 CURVE SMOOTH",
"185 546 LINE",
"361 638 LINE",
"536 546 LINE"
);
},
{
closed = 1;
nodes = (
"574 419 OFFCURVE",
"561 402 OFFCURVE",
"543 331 CURVE",
"497 143 LINE",
"491 144 OFFCURVE",
"483 145 OFFCURVE",
"475 145 CURVE SMOOTH",
"433 145 OFFCURVE",
"416 119 OFFCURVE",
"374 114 CURVE",
"374 602 LINE",
"374 602 OFFCURVE",
"558 504 OFFCURVE",
"577 495 CURVE",
"592 487 OFFCURVE",
"598 480 OFFCURVE",
"598 471 CURVE SMOOTH",
"598 465 OFFCURVE",
"595 457 OFFCURVE",
"589 446 CURVE"
);
}
);
};
layerId = "166CCA77-1BE6-4372-BC61-BAE07403C72D";
name = Regular;
paths = (
{
closed = 1;
nodes = (
"72 31 OFFCURVE",
"79 0 OFFCURVE",
"132 0 CURVE SMOOTH",
"159.438 0 OFFCURVE",
"176.692 8.308 OFFCURVE",
"193.334 16.323 CURVE SMOOTH",
"208.839 23.789 OFFCURVE",
"223.814 31 OFFCURVE",
"246 31 CURVE SMOOTH",
"267.907 31 OFFCURVE",
"283.89 23.653 OFFCURVE",
"300.293 16.112 CURVE SMOOTH",
"317.584 8.164 OFFCURVE",
"335.342 0 OFFCURVE",
"361 0 CURVE SMOOTH",
"385.887 0 OFFCURVE",
"403.293 7.997 OFFCURVE",
"420.424 15.867 CURVE SMOOTH",
"437.023 23.493 OFFCURVE",
"453.363 31 OFFCURVE",
"476 31 CURVE SMOOTH",
"498.186 31 OFFCURVE",
"513.161 23.789 OFFCURVE",
"528.666 16.323 CURVE SMOOTH",
"545.308 8.308 OFFCURVE",
"562.562 0 OFFCURVE",
"590 0 CURVE SMOOTH",
"616.755 0 OFFCURVE",
"631.787 7.9 OFFCURVE",
"646.675 15.724 CURVE SMOOTH",
"661.28 23.398 OFFCURVE",
"675.745 31 OFFCURVE",
"701 31 CURVE SMOOTH",
"714 31 OFFCURVE",
"720 41 OFFCURVE",
"720 65 CURVE SMOOTH",
"720 78 LINE SMOOTH",
"720 99 OFFCURVE",
"716 113 OFFCURVE",
"701 113 CURVE SMOOTH",
"675.745 113 OFFCURVE",
"661.28 105.153 OFFCURVE",
"646.675 97.231 CURVE SMOOTH",
"631.787 89.155 OFFCURVE",
"616.755 81 OFFCURVE",
"590 81 CURVE SMOOTH",
"562.562 81 OFFCURVE",
"545.308 89.576 OFFCURVE",
"528.666 97.849 CURVE SMOOTH",
"513.161 105.556 OFFCURVE",
"498.186 113 OFFCURVE",
"476 113 CURVE SMOOTH",
"453.363 113 OFFCURVE",
"437.023 105.251 OFFCURVE",
"420.424 97.379 CURVE SMOOTH",
"403.293 89.255 OFFCURVE",
"385.887 81 OFFCURVE",
"361 81 CURVE SMOOTH",
"335.342 81 OFFCURVE",
"317.584 89.427 OFFCURVE",
"300.293 97.632 CURVE SMOOTH",
"283.89 105.416 OFFCURVE",
"267.907 113 OFFCURVE",
"246 113 CURVE SMOOTH",
"223.814 113 OFFCURVE",
"208.839 105.556 OFFCURVE",
"193.334 97.849 CURVE SMOOTH",
"176.692 89.576 OFFCURVE",
"159.438 81 OFFCURVE",
"132 81 CURVE SMOOTH",
"105.5 81 OFFCURVE",
"90.5 89 OFFCURVE",
"75.5 97 CURVE SMOOTH",
"60.5 105 OFFCURVE",
"45.5 113 OFFCURVE",
"19 113 CURVE SMOOTH",
"4 113 OFFCURVE",
"0 99 OFFCURVE",
"0 78 CURVE SMOOTH",
"0 65 LINE SMOOTH",
"0 41 OFFCURVE",
"6 31 OFFCURVE",
"19 31 CURVE SMOOTH"
);
},
{
closed = 1;
nodes = (
"144 495 LINE SMOOTH",
"129 487 OFFCURVE",
"123 480 OFFCURVE",
"123 471 CURVE SMOOTH",
"123 463.935 OFFCURVE",
"130.023 449.292 OFFCURVE",
"135.425 440.254 CURVE SMOOTH",
"149.779 416.248 OFFCURVE",
"161.379 396.846 OFFCURVE",
"179 331 CURVE SMOOTH",
"224 143 LINE",
"231 144 OFFCURVE",
"238 145 OFFCURVE",
"246 145 CURVE SMOOTH",
"269.3 145 OFFCURVE",
"284.966 137.366 OFFCURVE",
"300.953 129.576 CURVE SMOOTH",
"314.47 122.989 OFFCURVE",
"328.216 116.291 OFFCURVE",
"347 114 CURVE",
"347 602 LINE"
);
},
{
closed = 1;
nodes = (
"536 592 LINE SMOOTH",
"536 605 OFFCURVE",
"529 606 OFFCURVE",
"509 606 CURVE",
"509 672 LINE SMOOTH",
"509 687 OFFCURVE",
"495 690 OFFCURVE",
"468 690 CURVE SMOOTH",
"409 690 LINE",
"409 734 LINE SMOOTH",
"409 758 OFFCURVE",
"386 763 OFFCURVE",
"361 763 CURVE SMOOTH",
"335 763 OFFCURVE",
"312 758 OFFCURVE",
"312 734 CURVE SMOOTH",
"312 690 LINE",
"253 690 LINE SMOOTH",
"226 690 OFFCURVE",
"213 687 OFFCURVE",
"213 672 CURVE SMOOTH",
"213 606 LINE",
"192 606 OFFCURVE",
"185 605 OFFCURVE",
"185 592 CURVE SMOOTH",
"185 546 LINE",
"361 638 LINE",
"536 546 LINE"
);
},
{
closed = 1;
nodes = (
"589.38 446.851 OFFCURVE",
"579.262 428.854 CURVE SMOOTH",
"568.003 408.834 OFFCURVE",
"557.017 386.291 OFFCURVE",
"543 331 CURVE SMOOTH",
"497 143 LINE",
"491 144 OFFCURVE",
"483 145 OFFCURVE",
"475 145 CURVE SMOOTH",
"452.527 145 OFFCURVE",
"437.212 137.556 OFFCURVE",
"421.395 129.869 CURVE SMOOTH",
"407.651 123.189 OFFCURVE",
"393.527 116.325 OFFCURVE",
"374 114 CURVE",
"374 602 LINE",
"577 495 LINE SMOOTH",
"592.039 487.073 OFFCURVE",
"598 480 OFFCURVE",
"598 471 CURVE SMOOTH",
"598 460.78 OFFCURVE"
);
}
);
width = 720;
}
);
},
{
color = 1;
glyphname = B.ss02;
lastChange = "2014-11-22 02:25:01 +0000";
layers = (
{
background = {
paths = (
{
closed = 1;
nodes = (
"533 272 LINE",
"456 272 LINE",
"456 204 LINE",
"533 204 LINE"
);
},
{
closed = 1;
nodes = (
"640 204 LINE",
"640 272 LINE",
"572 272 LINE",
"572 204 LINE",
"601 204 LINE"
);
},
{
closed = 1;
nodes = (
"679 204 LINE",
"776 204 LINE",
"737 272 LINE",
"679 272 LINE"
);
},
{
closed = 1;
nodes = (
"533 387 LINE",
"533 446 LINE",
"271 446 LINE",
"265 446 OFFCURVE",
"262 451 OFFCURVE",
"262 458 CURVE",
"262 472 LINE",
"262 479 OFFCURVE",
"265 484 OFFCURVE",
"271 484 CURVE",
"834 484 LINE",
"840 484 OFFCURVE",
"843 479 OFFCURVE",
"843 472 CURVE",
"843 458 LINE",
"843 451 OFFCURVE",
"840 446 OFFCURVE",
"834 446 CURVE",
"572 446 LINE",
"572 387 LINE",
"615 387 LINE",
"642 387 OFFCURVE",
"647 384 OFFCURVE",
"659 367 CURVE",
"670 349 LINE",
"730 349 LINE SMOOTH",
"757 349 OFFCURVE",
"764 346 OFFCURVE",
"776 329 CURVE",
"872 194 OFFCURVE",
"872 194 OFFCURVE",
"872 194 CURVE SMOOTH",
"872 145 OFFCURVE",
"795 97 OFFCURVE",
"727 97 CURVE SMOOTH",
"438 97 LINE SMOOTH",
"411 97 OFFCURVE",
"403 103 OFFCURVE",
"397 116 CURVE SMOOTH",
"369 174 LINE",
"40 281 LINE",
"22 287 OFFCURVE",
"10 302 OFFCURVE",
"10 320 CURVE",
"10 416 LINE",
"10 423 OFFCURVE",
"14 426 OFFCURVE",
"28 426 CURVE",
"45 426 OFFCURVE",
"57 420 OFFCURVE",
"61 411 CURVE",
"87 349 LINE",
"447 349 LINE",
"458 367 LINE",
"470 384 OFFCURVE",
"475 387 OFFCURVE",
"502 387 CURVE"
);
},
{
closed = 1;
nodes = (
"838 0 OFFCURVE",
"843 9 OFFCURVE",
"843 21 CURVE",
"843 47 LINE",
"843 59 OFFCURVE",
"838 68 OFFCURVE",
"827 68 CURVE",
"388 68 LINE",
"377 68 OFFCURVE",
"372 59 OFFCURVE",
"372 47 CURVE",
"372 21 LINE",
"372 9 OFFCURVE",
"377 0 OFFCURVE",
"388 0 CURVE",
"827 0 LINE"
);
}
);
};
guideLines = (
{
angle = 270;
position = "{533, 167}";
}
);
layerId = "166CCA77-1BE6-4372-BC61-BAE07403C72D";
name = Regular;
paths = (
{
closed = 1;
nodes = (
"533 272 LINE",
"456 272 LINE",
"456 204 LINE",
"533 204 LINE"
);
},
{
closed = 1;
nodes = (
"640 204 LINE",
"640 272 LINE",
"572 272 LINE",
"572 204 LINE"
);
},
{
closed = 1;
nodes = (
"679 204 LINE",
"776 204 LINE",
"737 272 LINE",
"679 272 LINE"
);
},
{
closed = 1;
nodes = (
"533 387 LINE",
"533 446 LINE",
"271 446 LINE SMOOTH",
"265 446 OFFCURVE",
"262 451 OFFCURVE",
"262 458 CURVE SMOOTH",
"262 472 LINE SMOOTH",
"262 479 OFFCURVE",
"265 484 OFFCURVE",
"271 484 CURVE SMOOTH",
"834 484 LINE SMOOTH",
"840 484 OFFCURVE",
"843 479 OFFCURVE",
"843 472 CURVE SMOOTH",
"843 458 LINE SMOOTH",
"843 451 OFFCURVE",
"840 446 OFFCURVE",
"834 446 CURVE SMOOTH",
"572 446 LINE",
"572 387 LINE",
"615 387 LINE SMOOTH",
"642 387 OFFCURVE",
"647 384 OFFCURVE",
"659 367 CURVE SMOOTH",
"670 349 LINE",
"730 349 LINE SMOOTH",
"757 349 OFFCURVE",
"764 346 OFFCURVE",
"776 329 CURVE SMOOTH",
"872 194 LINE",
"872 145 OFFCURVE",
"795 97 OFFCURVE",
"727 97 CURVE SMOOTH",
"438 97 LINE SMOOTH",
"411 97 OFFCURVE",
"403 103 OFFCURVE",
"397 116 CURVE SMOOTH",
"369 174 LINE",
"40 281 LINE SMOOTH",
"22 287 OFFCURVE",
"10 302 OFFCURVE",
"10 320 CURVE SMOOTH",
"10 416 LINE SMOOTH",
"10 423 OFFCURVE",
"14 426 OFFCURVE",
"28 426 CURVE SMOOTH",
"45 426 OFFCURVE",
"57 420 OFFCURVE",
"61 411 CURVE SMOOTH",
"87 349 LINE",
"447 349 LINE",
"458 367 LINE SMOOTH",
"470 384 OFFCURVE",
"475 387 OFFCURVE",
"502 387 CURVE SMOOTH"
);
},
{
closed = 1;
nodes = (
"838 0 OFFCURVE",
"843 9 OFFCURVE",
"843 21 CURVE SMOOTH",
"843 47 LINE SMOOTH",
"843 59 OFFCURVE",
"838 68 OFFCURVE",
"827 68 CURVE SMOOTH",
"388 68 LINE SMOOTH",
"377 68 OFFCURVE",
"372 59 OFFCURVE",
"372 47 CURVE SMOOTH",
"372 21 LINE SMOOTH",
"372 9 OFFCURVE",
"377 0 OFFCURVE",
"388 0 CURVE SMOOTH",
"827 0 LINE SMOOTH"
);
}
);
width = 882;
}
);
},
{
color = 1;
glyphname = C.ss02;
lastChange = "2014-11-22 02:30:17 +0000";
layers = (
{
background = {
paths = (
{
closed = 1;
nodes = (
"778 748 OFFCURVE",
"779 739 OFFCURVE",
"779 728 CURVE SMOOTH",
"779 693 OFFCURVE",
"760 654 OFFCURVE",
"715 609 CURVE",
"579 470 LINE",
"753 51 LINE",
"755 46 OFFCURVE",
"756 42 OFFCURVE",
"756 39 CURVE",
"756 29 OFFCURVE",
"745 17 OFFCURVE",
"727 7 CURVE",
"720 3 OFFCURVE",
"715 0 OFFCURVE",
"710 0 CURVE",
"706 0 OFFCURVE",
"701 2 OFFCURVE",
"696 7 CURVE SMOOTH",
"696 7 OFFCURVE",
"435 303 OFFCURVE",
"435 303 CURVE",
"183 116 LINE",
"183 37 LINE",
"183 26 LINE",
"183 19 OFFCURVE",
"182 13 OFFCURVE",
"175 8 CURVE SMOOTH",
"165 2 OFFCURVE",
"160 0 OFFCURVE",
"155 0 CURVE",
"153 0 OFFCURVE",
"149 2 OFFCURVE",
"145 8 CURVE",
"99 80 LINE",
"99 80 OFFCURVE",
"27 125 OFFCURVE",
"27 125 CURVE",
"22 129 OFFCURVE",
"20 133 OFFCURVE",
"20 138 CURVE SMOOTH",
"20 141 OFFCURVE",
"20 144 OFFCURVE",
"25 152 CURVE SMOOTH",
"32 161 OFFCURVE",
"36 164 OFFCURVE",
"43 164 CURVE",
"137 164 LINE",
"323 415 LINE",
"29 674 LINE",
"22 681 OFFCURVE",
"20 685 OFFCURVE",
"20 690 CURVE",
"20 693 OFFCURVE",
"23 700 OFFCURVE",
"25 704 CURVE",
"35 720 LINE",
"42 729 OFFCURVE",
"51 736 OFFCURVE",
"59 736 CURVE",
"62 736 OFFCURVE",
"66 735 OFFCURVE",
"68 734 CURVE",
"490 559 LINE",
"629 696 LINE",
"683 746 OFFCURVE",
"712 759 OFFCURVE",
"749 759 CURVE SMOOTH",
"760 759 OFFCURVE",
"768 758 OFFCURVE",
"773 753 CURVE SMOOTH"
);
}
);
};
layerId = "166CCA77-1BE6-4372-BC61-BAE07403C72D";
name = Regular;
paths = (
{
closed = 1;
nodes = (
"779 752.499 OFFCURVE",
"779 728 CURVE SMOOTH",
"779 693 OFFCURVE",
"760 654 OFFCURVE",
"715 609 CURVE SMOOTH",
"579 470 LINE",
"753 51 LINE SMOOTH",
"755 46 OFFCURVE",
"756 42 OFFCURVE",
"756 39 CURVE SMOOTH",
"756 29 OFFCURVE",
"743 17 OFFCURVE",
"727 7 CURVE SMOOTH",
"720.773 3.108 OFFCURVE",
"715.18 0 OFFCURVE",
"710 0 CURVE SMOOTH",
"706 0 OFFCURVE",
"701 2 OFFCURVE",
"696 7 CURVE SMOOTH",
"435 303 LINE",
"183 116 LINE",
"183 26 LINE SMOOTH",
"183 19 OFFCURVE",
"182 13 OFFCURVE",
"175 8 CURVE SMOOTH",
"165 2 OFFCURVE",
"160 0 OFFCURVE",
"155 0 CURVE SMOOTH",
"153 0 OFFCURVE",
"149 2 OFFCURVE",
"145 8 CURVE SMOOTH",
"99 80 LINE",
"27 125 LINE SMOOTH",
"21.65 129.28 OFFCURVE",
"20 132.344 OFFCURVE",
"20 138 CURVE SMOOTH",
"20 141 OFFCURVE",
"20 144 OFFCURVE",
"25 152 CURVE SMOOTH",
"32 161 OFFCURVE",
"36 164 OFFCURVE",
"43 164 CURVE SMOOTH",
"137 164 LINE",
"323 415 LINE",
"29 674 LINE SMOOTH",
"22 681 OFFCURVE",
"20 685 OFFCURVE",
"20 690 CURVE SMOOTH",
"20 693 OFFCURVE",
"21.899 699.039 OFFCURVE",
"25 704 CURVE SMOOTH",
"35 720 LINE SMOOTH",
"41.492 730.388 OFFCURVE",
"51 736 OFFCURVE",
"59 736 CURVE SMOOTH",
"62 736 OFFCURVE",
"66.288 734.71 OFFCURVE",
"68 734 CURVE SMOOTH",
"490 559 LINE",
"629 696 LINE SMOOTH",
"683 746 OFFCURVE",
"712 759 OFFCURVE",
"749 759 CURVE SMOOTH",
"773.555 759 OFFCURVE"
);
}
);
width = 799;
}
);
},
{
color = 1;
glyphname = D.ss02;
lastChange = "2014-11-22 02:32:22 +0000";
layers = (
{
background = {
paths = (
{
closed = 1;
nodes = (
"878 268 OFFCURVE",
"840 290 OFFCURVE",
"773 290 CURVE SMOOTH",
"756 290 OFFCURVE",
"745 288 OFFCURVE",
"722 281 CURVE",
"606 242 LINE",
"606 242 LINE SMOOTH",
"112 455 LINE",
"102 455 OFFCURVE",
"83 445 OFFCURVE",
"64 426 CURVE",
"61 423 OFFCURVE",
"59 420 OFFCURVE",
"59 418 CURVE SMOOTH",
"59 411 OFFCURVE",
"67 402 OFFCURVE",
"73 395 CURVE",
"332 148 LINE",
"141 78 LINE SMOOTH",
"73 116 LINE SMOOTH",
"63 121 OFFCURVE",
"57 123 OFFCURVE",
"53 123 CURVE SMOOTH",
"49 123 OFFCURVE",
"46 123 OFFCURVE",
"36 116 CURVE",
"27 110 OFFCURVE",
"20 101 OFFCURVE",
"20 95 CURVE SMOOTH",
"20 93 OFFCURVE",
"21 90 OFFCURVE",
"24 86 CURVE",
"73 26 LINE",
"82 14 OFFCURVE",
"91 8 OFFCURVE",
"104 8 CURVE",
"137 7 LINE",
"191 5 OFFCURVE",
"292 0 OFFCURVE",
"334 0 CURVE",
"352 0 OFFCURVE",
"363 2 OFFCURVE",
"383 9 CURVE",
"771 146 LINE",
"842 173 OFFCURVE",
"878 230 OFFCURVE",
"878 248 CURVE",
"878 250 LINE"
);
}
);
};
layerId = "166CCA77-1BE6-4372-BC61-BAE07403C72D";
name = Regular;
paths = (
{
closed = 1;
nodes = (
"878 268 OFFCURVE",
"840 290 OFFCURVE",
"773 290 CURVE SMOOTH",
"756 290 OFFCURVE",
"745 288 OFFCURVE",
"722 281 CURVE SMOOTH",
"606 242 LINE",
"125.802 449.049 LINE SMOOTH",
"118.256 452.302 OFFCURVE",
"112.781 454 OFFCURVE",
"109.834 454 CURVE SMOOTH",
"102 454 OFFCURVE",
"83 445 OFFCURVE",
"64 426 CURVE SMOOTH",
"60.179 422.179 OFFCURVE",
"59 419.935 OFFCURVE",
"59 416.481 CURVE SMOOTH",
"59 411.429 OFFCURVE",
"64.3 403.297 OFFCURVE",
"73 395 CURVE SMOOTH",
"332 148 LINE",
"141 78 LINE",
"73 116 LINE SMOOTH",
"63 121 OFFCURVE",
"57 123 OFFCURVE",
"53 123 CURVE SMOOTH",
"49 123 OFFCURVE",
"46 123 OFFCURVE",
"36 116 CURVE SMOOTH",
"27 110 OFFCURVE",
"20 101 OFFCURVE",
"20 95 CURVE SMOOTH",
"20 93 OFFCURVE",
"21 90 OFFCURVE",
"24 86 CURVE SMOOTH",
"73 26 LINE SMOOTH",
"82 14 OFFCURVE",
"91 8 OFFCURVE",
"104 8 CURVE SMOOTH",
"153.176 6.404 OFFCURVE",
"171.252 5.631 OFFCURVE",
"192.673 4.723 CURVE SMOOTH",
"244.169 2.54 OFFCURVE",
"304.068 0 OFFCURVE",
"334 0 CURVE SMOOTH",
"352 0 OFFCURVE",
"363 2 OFFCURVE",
"383 9 CURVE SMOOTH",
"771 146 LINE SMOOTH",
"825.161 166.596 OFFCURVE",
"878 218.464 OFFCURVE",
"878 250 CURVE SMOOTH"
);
}
);
width = 864;
}
);
},
{
color = 1;
glyphname = E.ss02;
lastChange = "2014-11-22 02:35:40 +0000";
layers = (
{
background = {
paths = (
{
closed = 1;
nodes = (
"395 10 OFFCURVE",
"406 -1 OFFCURVE",
"419 -1 CURVE SMOOTH",
"432 -1 OFFCURVE",
"443 10 OFFCURVE",
"443 23 CURVE SMOOTH",
"443 37 OFFCURVE",
"432 48 OFFCURVE",
"419 48 CURVE SMOOTH",
"406 48 OFFCURVE",
"395 37 OFFCURVE",
"395 23 CURVE SMOOTH"
);
},
{
closed = 1;
nodes = (
"314 41 OFFCURVE",
"325 30 OFFCURVE",
"339 30 CURVE SMOOTH",
"352 30 OFFCURVE",
"363 41 OFFCURVE",
"363 54 CURVE SMOOTH",
"363 67 OFFCURVE",
"352 78 OFFCURVE",
"339 78 CURVE SMOOTH",
"325 78 OFFCURVE",
"314 67 OFFCURVE",
"314 54 CURVE SMOOTH"
);
},
{
closed = 1;
nodes = (
"235 68 OFFCURVE",
"246 57 OFFCURVE",
"260 57 CURVE SMOOTH",
"273 57 OFFCURVE",
"284 68 OFFCURVE",
"284 81 CURVE SMOOTH",
"284 95 OFFCURVE",
"273 106 OFFCURVE",
"260 106 CURVE SMOOTH",
"246 106 OFFCURVE",
"235 95 OFFCURVE",
"235 81 CURVE SMOOTH"
);
},
{
closed = 1;
nodes = (
"588 155 OFFCURVE",
"541 177 OFFCURVE",
"507 193 CURVE",
"306 639 LINE SMOOTH",
"302 648 OFFCURVE",
"295 650 OFFCURVE",
"279 650 CURVE",
"253 650 LINE",
"240 650 OFFCURVE",
"234 640 OFFCURVE",
"235 628 CURVE",
"262 298 LINE",
"237 308 LINE",
"89 373 LINE",
"62 450 LINE",
"57 465 OFFCURVE",
"55 467 OFFCURVE",
"42 472 CURVE SMOOTH",
"32 476 OFFCURVE",
"28 477 OFFCURVE",
"25 477 CURVE SMOOTH",
"17 477 OFFCURVE",
"11 472 OFFCURVE",
"10 464 CURVE",
"9 458 OFFCURVE",
"0 396 OFFCURVE",
"0 388 CURVE SMOOTH",
"0 374 OFFCURVE",
"0 372 OFFCURVE",
"14 357 CURVE SMOOTH",
"69 298 OFFCURVE",
"124 240 OFFCURVE",
"175 190 CURVE SMOOTH",
"186 179 OFFCURVE",
"196 171 OFFCURVE",
"217 161 CURVE SMOOTH",
"288 129 OFFCURVE",
"473 56 OFFCURVE",
"538 28 CURVE SMOOTH",
"568 15 OFFCURVE",
"596 10 OFFCURVE",
"619 10 CURVE SMOOTH",
"659 10 OFFCURVE",
"686 24 OFFCURVE",
"690 33 CURVE SMOOTH",
"691 35 OFFCURVE",
"691 36 OFFCURVE",
"691 39 CURVE SMOOTH",
"691 62 OFFCURVE",
"661 120 OFFCURVE",
"587 155 CURVE"
);
}
);
};
layerId = "166CCA77-1BE6-4372-BC61-BAE07403C72D";
name = Regular;
paths = (
{
closed = 1;
nodes = (
"395 10 OFFCURVE",
"406 -1 OFFCURVE",
"419 -1 CURVE SMOOTH",
"432 -1 OFFCURVE",
"443 10 OFFCURVE",
"443 23 CURVE SMOOTH",
"443 37 OFFCURVE",
"432 48 OFFCURVE",
"419 48 CURVE SMOOTH",
"406 48 OFFCURVE",
"395 37 OFFCURVE",
"395 23 CURVE SMOOTH"
);
},
{
closed = 1;
nodes = (
"314 41 OFFCURVE",
"325 30 OFFCURVE",
"339 30 CURVE SMOOTH",
"352 30 OFFCURVE",
"363 41 OFFCURVE",
"363 54 CURVE SMOOTH",
"363 67 OFFCURVE",
"352 78 OFFCURVE",
"339 78 CURVE SMOOTH",
"325 78 OFFCURVE",
"314 67 OFFCURVE",
"314 54 CURVE SMOOTH"
);
},
{
closed = 1;
nodes = (
"235 68 OFFCURVE",
"246 57 OFFCURVE",
"260 57 CURVE SMOOTH",
"273 57 OFFCURVE",
"284 68 OFFCURVE",
"284 81 CURVE SMOOTH",
"284 95 OFFCURVE",
"273 106 OFFCURVE",
"260 106 CURVE SMOOTH",
"246 106 OFFCURVE",
"235 95 OFFCURVE",
"235 81 CURVE SMOOTH"
);
},
{
closed = 1;
nodes = (
"507 193 LINE",
"306 639 LINE SMOOTH",
"302 648 OFFCURVE",
"295 650 OFFCURVE",
"279 650 CURVE SMOOTH",
"253 650 LINE SMOOTH",
"240.929 650 OFFCURVE",
"234.893 641.378 OFFCURVE",
"234.893 630.538 CURVE SMOOTH",
"234.893 629.704 OFFCURVE",
"234.929 628.857 OFFCURVE",
"235 628 CURVE SMOOTH",
"262 298 LINE",
"237 308 LINE",
"89 373 LINE",
"62 450 LINE SMOOTH",
"57 465 OFFCURVE",
"55 467 OFFCURVE",
"42 472 CURVE SMOOTH",
"32 476 OFFCURVE",
"28 477 OFFCURVE",
"25 477 CURVE SMOOTH",
"17 477 OFFCURVE",
"11 472 OFFCURVE",
"10 464 CURVE SMOOTH",
"9 458 OFFCURVE",
"0 396 OFFCURVE",
"0 386.445 CURVE SMOOTH",
"0 374 OFFCURVE",
"2.274 369.564 OFFCURVE",
"14 357 CURVE SMOOTH",
"175 190 LINE SMOOTH",
"189.428 175.572 OFFCURVE",
"200.828 167.701 OFFCURVE",
"217 161 CURVE SMOOTH",
"538 28 LINE SMOOTH",
"569.059 15.131 OFFCURVE",
"596 10 OFFCURVE",
"619 10 CURVE SMOOTH",
"659 10 OFFCURVE",
"686 24 OFFCURVE",
"690 33 CURVE SMOOTH",
"691 35 OFFCURVE",
"691 36 OFFCURVE",
"691 39 CURVE SMOOTH",
"691 62 OFFCURVE",
"661 120 OFFCURVE",
"587 155 CURVE SMOOTH"
);
}
);
width = 691;
}
);
},
{
color = 1;
glyphname = F.ss02;
lastChange = "2014-11-19 06:06:20 +0000";
layers = (
{
background = {
paths = (
{
closed = 1;
nodes = (
"844 89 OFFCURVE",
"785 30 OFFCURVE",
"718 30 CURVE SMOOTH",
"650 30 OFFCURVE",
"592 89 OFFCURVE",
"592 156 CURVE SMOOTH",
"592 204 OFFCURVE",
"620 249 OFFCURVE",
"661 269 CURVE",
"699 156 LINE",
"704 141 OFFCURVE",
"709 137 OFFCURVE",
"717 137 CURVE SMOOTH",
"725 137 OFFCURVE",
"732 143 OFFCURVE",
"732 152 CURVE",
"732 156 OFFCURVE",
"731 159 OFFCURVE",
"728 167 CURVE",
"690 279 LINE",
"701 281 OFFCURVE",
"710 282 OFFCURVE",
"718 282 CURVE SMOOTH",
"786 282 OFFCURVE",
"844 226 OFFCURVE",
"844 156 CURVE SMOOTH"
);
},
{
closed = 1;
nodes = (
"630 363 LINE",
"649 305 LINE",
"588 276 OFFCURVE",
"555 224 OFFCURVE",
"555 156 CURVE SMOOTH",
"555 59 OFFCURVE",
"631 -8 OFFCURVE",
"718 -8 CURVE SMOOTH",
"805 -8 OFFCURVE",
"882 59 OFFCURVE",
"882 156 CURVE SMOOTH",
"882 243 OFFCURVE",
"814 320 OFFCURVE",
"718 320 CURVE SMOOTH",
"708 320 OFFCURVE",
"690 318 OFFCURVE",
"678 315 CURVE",
"616 503 LINE",
"612 516 OFFCURVE",
"608 523 OFFCURVE",
"598 523 CURVE",
"508 523 LINE",
"499 523 OFFCURVE",
"492 516 OFFCURVE",
"492 508 CURVE",
"492 500 OFFCURVE",
"498 492 OFFCURVE",
"508 492 CURVE",
"587 492 LINE",
"618 398 LINE",
"430 185 LINE",
"427 187 OFFCURVE",
"425 188 OFFCURVE",
"421 189 CURVE",
"421 368 LINE",
"431 368 LINE",
"441 368 OFFCURVE",
"447 376 OFFCURVE",
"447 384 CURVE",
"447 392 OFFCURVE",
"440 399 OFFCURVE",
"431 399 CURVE",
"317 399 LINE",
"308 399 OFFCURVE",
"301 392 OFFCURVE",
"301 384 CURVE",
"301 376 OFFCURVE",
"307 368 OFFCURVE",
"317 368 CURVE",
"327 368 LINE",
"271 296 LINE",
"246 311 OFFCURVE",
"224 319 OFFCURVE",
"186 319 CURVE SMOOTH",
"99 319 OFFCURVE",
"23 248 OFFCURVE",
"23 156 CURVE SMOOTH",
"23 62 OFFCURVE",
"99 -8 OFFCURVE",
"186 -8 CURVE SMOOTH",
"281 -8 OFFCURVE",
"344 73 OFFCURVE",
"349 139 CURVE",
"380 139 LINE",
"384 128 OFFCURVE",
"398 120 OFFCURVE",
"413 120 CURVE",
"431 120 OFFCURVE",
"446 135 OFFCURVE",
"446 156 CURVE"
);
},
{
closed = 1;
nodes = (
"389 182 LINE",
"384 178 OFFCURVE",
"382 175 OFFCURVE",
"379 170 CURVE",
"349 170 LINE",
"346 208 OFFCURVE",
"325 251 OFFCURVE",
"295 277 CURVE",
"367 368 LINE",
"389 368 LINE"
);
},
{
closed = 1;
nodes = (
"295 228 OFFCURVE",
"310 198 OFFCURVE",
"312 170 CURVE",
"212 170 LINE",
"273 248 LINE"
);
},
{
closed = 1;
nodes = (
"210 282 OFFCURVE",
"230 277 OFFCURVE",
"248 267 CURVE",
"170 167 LINE",
"167 163 OFFCURVE",
"166 159 OFFCURVE",
"166 153 CURVE",
"166 144 OFFCURVE",
"175 139 OFFCURVE",
"186 139 CURVE",
"311 139 LINE",
"306 89 OFFCURVE",
"256 30 OFFCURVE",
"186 30 CURVE SMOOTH",
"119 30 OFFCURVE",
"60 89 OFFCURVE",
"60 156 CURVE SMOOTH",
"60 226 OFFCURVE",
"119 282 OFFCURVE",
"186 282 CURVE SMOOTH"
);
}
);
};
layerId = "166CCA77-1BE6-4372-BC61-BAE07403C72D";
name = Regular;
paths = (
{
closed = 1;
nodes = (
"844 89 OFFCURVE",
"785 30 OFFCURVE",
"718 30 CURVE SMOOTH",
"650 30 OFFCURVE",
"592 89 OFFCURVE",
"592 156 CURVE SMOOTH",
"592 204 OFFCURVE",
"620 249 OFFCURVE",
"661 269 CURVE",
"699 156 LINE SMOOTH",
"704 141 OFFCURVE",
"709 137 OFFCURVE",
"717 137 CURVE SMOOTH",
"725 137 OFFCURVE",
"732 143 OFFCURVE",
"732 152 CURVE SMOOTH",
"732 156 OFFCURVE",
"731 159 OFFCURVE",
"728 167 CURVE SMOOTH",
"690 279 LINE",
"701 281 OFFCURVE",
"710 282 OFFCURVE",
"718 282 CURVE SMOOTH",
"786 282 OFFCURVE",
"844 226 OFFCURVE",
"844 156 CURVE SMOOTH"
);
},
{
closed = 1;
nodes = (
"630 363 LINE",
"649 305 LINE",
"588 276 OFFCURVE",
"555 224 OFFCURVE",
"555 156 CURVE SMOOTH",
"555 59 OFFCURVE",
"631 -8 OFFCURVE",
"718 -8 CURVE SMOOTH",
"805 -8 OFFCURVE",
"882 59 OFFCURVE",
"882 156 CURVE SMOOTH",
"882 243 OFFCURVE",
"814 320 OFFCURVE",
"718 320 CURVE SMOOTH",
"708 320 OFFCURVE",
"690 318 OFFCURVE",
"678 315 CURVE",
"616 503 LINE SMOOTH",
"612 516 OFFCURVE",
"608 523 OFFCURVE",
"598 523 CURVE SMOOTH",
"508 523 LINE SMOOTH",
"499 523 OFFCURVE",
"492 516 OFFCURVE",
"492 508 CURVE SMOOTH",
"492 500 OFFCURVE",
"498 492 OFFCURVE",
"508 492 CURVE SMOOTH",
"587 492 LINE",
"618 398 LINE",
"430 185 LINE",
"427 187 OFFCURVE",
"425 188 OFFCURVE",
"421 189 CURVE",
"421 368 LINE",
"431 368 LINE SMOOTH",
"441 368 OFFCURVE",
"447 376 OFFCURVE",
"447 384 CURVE SMOOTH",
"447 392 OFFCURVE",
"440 399 OFFCURVE",
"431 399 CURVE SMOOTH",
"317 399 LINE SMOOTH",
"308 399 OFFCURVE",
"301 392 OFFCURVE",
"301 384 CURVE SMOOTH",
"301 376 OFFCURVE",
"307 368 OFFCURVE",
"317 368 CURVE SMOOTH",
"327 368 LINE",
"271 296 LINE",
"246 311 OFFCURVE",
"224 319 OFFCURVE",
"186 319 CURVE SMOOTH",
"99 319 OFFCURVE",
"23 248 OFFCURVE",
"23 156 CURVE SMOOTH",
"23 62 OFFCURVE",
"99 -8 OFFCURVE",
"186 -8 CURVE SMOOTH",
"281 -8 OFFCURVE",
"344 73 OFFCURVE",
"349 139 CURVE",
"380 139 LINE",
"384 128 OFFCURVE",
"398 120 OFFCURVE",
"413 120 CURVE SMOOTH",
"431 120 OFFCURVE",
"446 135 OFFCURVE",
"446 156 CURVE"
);
},
{
closed = 1;
nodes = (
"389 182 LINE",
"384 178 OFFCURVE",
"382 175 OFFCURVE",
"379 170 CURVE",
"349 170 LINE",
"346 208 OFFCURVE",
"325 251 OFFCURVE",
"295 277 CURVE",
"367 368 LINE",
"389 368 LINE"
);
},
{
closed = 1;
nodes = (
"295 228 OFFCURVE",
"310 198 OFFCURVE",
"312 170 CURVE",
"212 170 LINE",
"273 248 LINE"
);
},
{
closed = 1;
nodes = (
"210 282 OFFCURVE",
"230 277 OFFCURVE",
"248 267 CURVE",
"170 167 LINE SMOOTH",
"167 163 OFFCURVE",
"166 159 OFFCURVE",
"166 153 CURVE SMOOTH",
"166 144 OFFCURVE",
"175 139 OFFCURVE",
"186 139 CURVE SMOOTH",
"311 139 LINE",
"306 89 OFFCURVE",
"256 30 OFFCURVE",
"186 30 CURVE SMOOTH",
"119 30 OFFCURVE",
"60 89 OFFCURVE",
"60 156 CURVE SMOOTH",
"60 226 OFFCURVE",
"119 282 OFFCURVE",
"186 282 CURVE SMOOTH"
);
}
);
width = 903;
}
);
},
{
color = 1;
glyphname = G.ss02;
lastChange = "2014-11-22 02:38:39 +0000";
layers = (
{
background = {
paths = (
{
closed = 1;
nodes = (
"644 178 OFFCURVE",
"628 195 OFFCURVE",
"607 195 CURVE SMOOTH",
"587 195 OFFCURVE",
"571 178 OFFCURVE",
"571 158 CURVE SMOOTH",
"571 138 OFFCURVE",
"587 122 OFFCURVE",
"607 122 CURVE SMOOTH",
"628 122 OFFCURVE",
"644 138 OFFCURVE",
"644 158 CURVE SMOOTH"
);
},
{
closed = 1;
nodes = (
"549 449 LINE",
"209 449 LINE",
"151 248 LINE",
"603 248 LINE"
);
},
{
closed = 1;
nodes = (
"181 178 OFFCURVE",
"165 195 OFFCURVE",
"145 195 CURVE SMOOTH",
"124 195 OFFCURVE",
"107 178 OFFCURVE",
"107 158 CURVE SMOOTH",
"107 138 OFFCURVE",
"124 122 OFFCURVE",
"145 122 CURVE SMOOTH",
"165 122 OFFCURVE",
"181 138 OFFCURVE",
"181 158 CURVE SMOOTH"
);
},
{
closed = 1;
nodes = (
"711 31 LINE SMOOTH",
"711 10 OFFCURVE",
"696 0 OFFCURVE",
"660 0 CURVE SMOOTH",
"608 0 LINE SMOOTH",
"570 0 OFFCURVE",
"557 10 OFFCURVE",
"557 43 CURVE",
"196 42 LINE",
"196 9 OFFCURVE",
"185 -1 OFFCURVE",
"146 -1 CURVE SMOOTH",
"96 -1 LINE SMOOTH",
"56 -1 OFFCURVE",
"42 9 OFFCURVE",
"42 30 CURVE SMOOTH",
"42 103 LINE",
"31 198 LINE",
"30 208 LINE",
"30 223 OFFCURVE",
"37 236 OFFCURVE",
"51 248 CURVE",
"67 262 LINE",
"141 506 LINE SMOOTH",
"145 516 OFFCURVE",
"158 522 OFFCURVE",
"181 522 CURVE SMOOTH",
"571 522 LINE SMOOTH",
"594 522 OFFCURVE",
"607 516 OFFCURVE",
"611 506 CURVE SMOOTH",
"685 262 LINE",
"701 248 LINE",
"715 236 OFFCURVE",
"722 223 OFFCURVE",
"722 208 CURVE",
"721 198 LINE",
"711 105 LINE"
);
}
);
};
layerId = "166CCA77-1BE6-4372-BC61-BAE07403C72D";
name = Regular;
paths = (
{
closed = 1;
nodes = (
"644 178 OFFCURVE",
"628 195 OFFCURVE",
"607 195 CURVE SMOOTH",
"587 195 OFFCURVE",
"571 178 OFFCURVE",
"571 158 CURVE SMOOTH",
"571 138 OFFCURVE",
"587 122 OFFCURVE",
"607 122 CURVE SMOOTH",
"628 122 OFFCURVE",
"644 138 OFFCURVE",
"644 158 CURVE SMOOTH"
);
},
{
closed = 1;
nodes = (
"549 449 LINE",
"209 449 LINE",
"151 248 LINE",
"603 248 LINE"
);
},
{
closed = 1;
nodes = (
"181 178 OFFCURVE",
"165 195 OFFCURVE",
"145 195 CURVE SMOOTH",
"124 195 OFFCURVE",
"107 178 OFFCURVE",
"107 158 CURVE SMOOTH",
"107 138 OFFCURVE",
"124 122 OFFCURVE",
"145 122 CURVE SMOOTH",
"165 122 OFFCURVE",
"181 138 OFFCURVE",
"181 158 CURVE SMOOTH"
);
},
{
closed = 1;
nodes = (
"711 31 LINE SMOOTH",
"711 10 OFFCURVE",
"696 0 OFFCURVE",
"660 0 CURVE SMOOTH",
"608 0 LINE SMOOTH",
"570 0 OFFCURVE",
"557 10 OFFCURVE",
"557 43 CURVE",
"196 42 LINE",
"196 9 OFFCURVE",
"185 -1 OFFCURVE",
"146 -1 CURVE SMOOTH",
"96 -1 LINE SMOOTH",
"56 -1 OFFCURVE",
"42 9 OFFCURVE",
"42 30 CURVE SMOOTH",
"42 103 LINE",
"33.807 174.088 OFFCURVE",
"30 199.696 OFFCURVE",
"30 208 CURVE SMOOTH",
"30 223 OFFCURVE",
"37 236 OFFCURVE",
"51 248 CURVE SMOOTH",
"67 262 LINE",
"141 506 LINE SMOOTH",
"144.116 516.275 OFFCURVE",
"158 522 OFFCURVE",
"181 522 CURVE SMOOTH",
"571 522 LINE SMOOTH",
"594 522 OFFCURVE",
"607.863 516.345 OFFCURVE",
"611 506 CURVE SMOOTH",
"685 262 LINE",
"701 248 LINE SMOOTH",
"715 236 OFFCURVE",
"722 223 OFFCURVE",
"722 208 CURVE SMOOTH",
"722 204.189 OFFCURVE",
"718.732 177.086 OFFCURVE",
"711 105 CURVE"
);
}
);
width = 752;
}
);
},
{
color = 1;
glyphname = H.ss02;
lastChange = "2014-11-22 02:39:32 +0000";
layers = (
{
background = {
paths = (
{
closed = 1;
nodes = (
"644 178 OFFCURVE",
"628 195 OFFCURVE",
"607 195 CURVE SMOOTH",
"587 195 OFFCURVE",
"571 178 OFFCURVE",
"571 158 CURVE SMOOTH",
"571 138 OFFCURVE",
"587 122 OFFCURVE",
"607 122 CURVE SMOOTH",
"628 122 OFFCURVE",
"644 138 OFFCURVE",
"644 158 CURVE SMOOTH"
);
},
{
closed = 1;
nodes = (
"549 449 LINE",
"209 449 LINE",
"151 248 LINE",
"603 248 LINE"
);
},
{
closed = 1;
nodes = (
"181 178 OFFCURVE",
"165 195 OFFCURVE",
"145 195 CURVE SMOOTH",
"124 195 OFFCURVE",
"107 178 OFFCURVE",
"107 158 CURVE SMOOTH",
"107 138 OFFCURVE",
"124 122 OFFCURVE",
"145 122 CURVE SMOOTH",
"165 122 OFFCURVE",
"181 138 OFFCURVE",
"181 158 CURVE SMOOTH"
);
},
{
closed = 1;
nodes = (
"711 31 LINE SMOOTH",
"711 10 OFFCURVE",
"696 0 OFFCURVE",
"660 0 CURVE SMOOTH",
"608 0 LINE SMOOTH",
"570 0 OFFCURVE",
"557 10 OFFCURVE",
"557 43 CURVE",
"196 42 LINE",
"196 9 OFFCURVE",
"185 -1 OFFCURVE",
"146 -1 CURVE SMOOTH",
"96 -1 LINE SMOOTH",
"56 -1 OFFCURVE",
"42 9 OFFCURVE",
"42 30 CURVE SMOOTH",
"42 103 LINE",
"31 198 LINE",
"30 208 LINE",
"30 223 OFFCURVE",
"37 236 OFFCURVE",
"51 248 CURVE",
"67 262 LINE",
"141 506 LINE SMOOTH",
"145 516 OFFCURVE",
"158 522 OFFCURVE",
"181 522 CURVE SMOOTH",
"273 522 LINE",
"280 546 LINE",
"283 554 OFFCURVE",
"292 558 OFFCURVE",
"306 558 CURVE SMOOTH",
"451 558 LINE SMOOTH",
"465 558 OFFCURVE",
"474 554 OFFCURVE",
"478 546 CURVE",
"484 522 LINE",
"571 522 LINE SMOOTH",
"594 522 OFFCURVE",
"607 516 OFFCURVE",
"611 506 CURVE SMOOTH",
"685 262 LINE",
"701 248 LINE",
"715 236 OFFCURVE",
"722 223 OFFCURVE",
"722 208 CURVE",
"721 198 LINE",
"711 105 LINE"
);
}
);
};
layerId = "166CCA77-1BE6-4372-BC61-BAE07403C72D";
name = Regular;
paths = (
{
closed = 1;
nodes = (
"146 -1 LINE SMOOTH",
"185 -1 OFFCURVE",
"196 9 OFFCURVE",
"196 42 CURVE",
"557 43 LINE",
"557 10 OFFCURVE",
"570 0 OFFCURVE",
"608 0 CURVE SMOOTH",
"660 0 LINE SMOOTH",
"696 0 OFFCURVE",
"711 10 OFFCURVE",
"711 31 CURVE SMOOTH",
"711 105 LINE",
"718.732 177.086 OFFCURVE",
"722 204.189 OFFCURVE",
"722 208 CURVE SMOOTH",
"722 223 OFFCURVE",
"715 236 OFFCURVE",
"701 248 CURVE SMOOTH",
"685 262 LINE",
"611 506 LINE SMOOTH",
"607.948 516.064 OFFCURVE",
"594 522 OFFCURVE",
"571 522 CURVE SMOOTH",
"484 522 LINE",
"478 546 LINE SMOOTH",
"475.779 554.884 OFFCURVE",
"465 558 OFFCURVE",
"451 558 CURVE SMOOTH",
"306 558 LINE SMOOTH",
"292 558 OFFCURVE",
"282.399 554.225 OFFCURVE",
"280 546 CURVE SMOOTH",
"273 522 LINE",
"181 522 LINE SMOOTH",
"158 522 OFFCURVE",
"144.137 516.345 OFFCURVE",
"141 506 CURVE SMOOTH",
"67 262 LINE",
"51 248 LINE SMOOTH",
"37 236 OFFCURVE",
"30 223 OFFCURVE",
"30 208 CURVE SMOOTH",
"30 199.696 OFFCURVE",
"33.807 174.088 OFFCURVE",
"42 103 CURVE",
"42 30 LINE SMOOTH",
"42 9 OFFCURVE",
"56 -1 OFFCURVE",
"96 -1 CURVE SMOOTH"
);
},
{
closed = 1;
nodes = (
"124 122 OFFCURVE",
"107 138 OFFCURVE",
"107 158 CURVE SMOOTH",
"107 178 OFFCURVE",
"124 195 OFFCURVE",
"145 195 CURVE SMOOTH",
"165 195 OFFCURVE",
"181 178 OFFCURVE",
"181 158 CURVE SMOOTH",
"181 138 OFFCURVE",
"165 122 OFFCURVE",
"145 122 CURVE SMOOTH"
);
},
{
closed = 1;
nodes = (
"209 449 LINE",
"549 449 LINE",
"603 248 LINE",
"151 248 LINE"
);
},
{
closed = 1;
nodes = (
"587 122 OFFCURVE",
"571 138 OFFCURVE",
"571 158 CURVE SMOOTH",
"571 178 OFFCURVE",
"587 195 OFFCURVE",
"607 195 CURVE SMOOTH",
"628 195 OFFCURVE",
"644 178 OFFCURVE",
"644 158 CURVE SMOOTH",
"644 138 OFFCURVE",
"628 122 OFFCURVE",
"607 122 CURVE SMOOTH"
);
}
);
width = 752;
}
);
},
{
color = 1;
glyphname = I.ss02;
lastChange = "2014-11-22 02:49:42 +0000";
layers = (
{
background = {
paths = (
{
closed = 1;
nodes = (
"226 627 OFFCURVE",
"222 620 OFFCURVE",
"215 620 CURVE SMOOTH",
"196 620 LINE SMOOTH",
"189 620 OFFCURVE",
"185 627 OFFCURVE",
"185 640 CURVE SMOOTH",
"185 691 LINE SMOOTH",
"185 705 OFFCURVE",
"189 711 OFFCURVE",
"196 711 CURVE SMOOTH",
"215 711 LINE SMOOTH",
"222 711 OFFCURVE",
"226 705 OFFCURVE",
"226 691 CURVE SMOOTH",
"226 640 LINE SMOOTH"
);
},
{
closed = 1;
nodes = (
"566 695 LINE",
"566 695 OFFCURVE",
"563 699 OFFCURVE",
"557 699 CURVE SMOOTH",
"355 699 LINE",
"355 722 OFFCURVE",
"339 740 OFFCURVE",
"310 742 CURVE SMOOTH",
"197 751 LINE",
"175 751 OFFCURVE",
"159 744 OFFCURVE",
"150 725 CURVE SMOOTH",
"147 717 OFFCURVE",
"141 691 OFFCURVE",
"141 666 CURVE SMOOTH",
"141 640 OFFCURVE",
"147 614 OFFCURVE",
"150 606 CURVE SMOOTH",
"159 587 OFFCURVE",
"175 581 OFFCURVE",
"197 581 CURVE",
"310 590 LINE SMOOTH",
"339 592 OFFCURVE",
"355 609 OFFCURVE",
"355 632 CURVE",
"453 632 LINE",
"453 632 OFFCURVE",
"459 632 OFFCURVE",
"462 636 CURVE SMOOTH",
"478 656 LINE",
"478 656 OFFCURVE",
"482 662 OFFCURVE",
"485 656 CURVE SMOOTH",
"502 634 LINE",
"502 634 OFFCURVE",
"505 629 OFFCURVE",
"509 634 CURVE SMOOTH",
"525 656 LINE",
"525 656 OFFCURVE",
"528 662 OFFCURVE",
"532 656 CURVE SMOOTH",
"548 635 LINE",
"548 635 OFFCURVE",
"551 630 OFFCURVE",
"556 634 CURVE SMOOTH",
"585 660 LINE",
"585 660 OFFCURVE",
"589 664 OFFCURVE",
"586 669 CURVE SMOOTH"
);
},
{
closed = 1;
nodes = (
"644 178 OFFCURVE",
"628 195 OFFCURVE",
"607 195 CURVE SMOOTH",
"587 195 OFFCURVE",
"571 178 OFFCURVE",
"571 158 CURVE SMOOTH",
"571 138 OFFCURVE",
"587 122 OFFCURVE",
"607 122 CURVE SMOOTH",
"628 122 OFFCURVE",
"644 138 OFFCURVE",
"644 158 CURVE SMOOTH"
);
},
{
closed = 1;
nodes = (
"549 449 LINE",
"209 449 LINE",
"151 248 LINE",
"603 248 LINE"
);
},
{
closed = 1;
nodes = (
"181 178 OFFCURVE",
"165 195 OFFCURVE",
"145 195 CURVE SMOOTH",
"124 195 OFFCURVE",
"107 178 OFFCURVE",
"107 158 CURVE SMOOTH",
"107 138 OFFCURVE",
"124 122 OFFCURVE",
"145 122 CURVE SMOOTH",
"165 122 OFFCURVE",
"181 138 OFFCURVE",
"181 158 CURVE SMOOTH"
);
},
{
closed = 1;
nodes = (
"711 31 LINE SMOOTH",
"711 10 OFFCURVE",
"696 0 OFFCURVE",
"660 0 CURVE SMOOTH",
"608 0 LINE SMOOTH",
"570 0 OFFCURVE",
"557 10 OFFCURVE",
"557 43 CURVE",
"196 42 LINE",
"196 9 OFFCURVE",
"185 -1 OFFCURVE",
"146 -1 CURVE SMOOTH",
"96 -1 LINE SMOOTH",
"56 -1 OFFCURVE",
"42 9 OFFCURVE",
"42 30 CURVE SMOOTH",
"42 103 LINE",
"31 198 LINE",
"30 208 LINE",
"30 223 OFFCURVE",
"37 236 OFFCURVE",
"51 248 CURVE",
"67 262 LINE",
"141 506 LINE SMOOTH",
"145 516 OFFCURVE",
"158 522 OFFCURVE",
"181 522 CURVE",
"571 522 LINE",
"594 522 OFFCURVE",
"607 516 OFFCURVE",
"611 506 CURVE SMOOTH",
"685 262 LINE",
"701 248 LINE",
"715 236 OFFCURVE",
"722 223 OFFCURVE",
"722 208 CURVE",
"721 198 LINE",
"711 105 LINE"
);
}
);
};
components = (
{
name = G.ss02;
transform = "{1, 0, 0, 1, 0, 0}";
}
);
guideLines = (
{
position = "{375, 105}";
},
{
position = "{70, 248}";
}
);
layerId = "166CCA77-1BE6-4372-BC61-BAE07403C72D";
name = Regular;
paths = (
{
closed = 1;
nodes = (
"226 627 OFFCURVE",
"222 620 OFFCURVE",
"215 620 CURVE SMOOTH",
"196 620 LINE SMOOTH",
"189 620 OFFCURVE",
"185 627 OFFCURVE",
"185 640 CURVE SMOOTH",
"185 691 LINE SMOOTH",
"185 705 OFFCURVE",
"189 711 OFFCURVE",
"196 711 CURVE SMOOTH",
"215 711 LINE SMOOTH",
"222 711 OFFCURVE",
"226 705 OFFCURVE",
"226 691 CURVE SMOOTH",
"226 640 LINE SMOOTH"
);
},
{
closed = 1;
nodes = (
"566 695 LINE SMOOTH",
"565 697 OFFCURVE",
"561 699 OFFCURVE",
"557 699 CURVE SMOOTH",
"355 699 LINE",
"355 722 OFFCURVE",
"339 740 OFFCURVE",
"310 742 CURVE SMOOTH",
"272.333 745 OFFCURVE",
"205.667 751 OFFCURVE",
"197 751 CURVE SMOOTH",
"175 751 OFFCURVE",
"159 744 OFFCURVE",
"150 725 CURVE SMOOTH",
"146.342 717.278 OFFCURVE",
"141 691 OFFCURVE",
"141 666 CURVE SMOOTH",
"141 640 OFFCURVE",
"147 614 OFFCURVE",
"150 606 CURVE SMOOTH",
"159 587 OFFCURVE",
"175 581 OFFCURVE",
"197 581 CURVE SMOOTH",
"205.667 581 OFFCURVE",
"272.333 587 OFFCURVE",
"310 590 CURVE SMOOTH",
"339 592 OFFCURVE",
"355 609 OFFCURVE",
"355 632 CURVE",
"453 632 LINE SMOOTH",
"456 632 OFFCURVE",
"460 633 OFFCURVE",
"462 636 CURVE SMOOTH",
"478 656 LINE SMOOTH",
"479.197 657.496 OFFCURVE",
"480.35 658.289 OFFCURVE",
"481.508 658.289 CURVE SMOOTH",
"482.651 658.289 OFFCURVE",
"483.799 657.555 OFFCURVE",
"485 656 CURVE SMOOTH",
"502 634 LINE SMOOTH",
"503.225 632.415 OFFCURVE",
"504.372 631.611 OFFCURVE",
"505.511 631.611 CURVE SMOOTH",
"506.66 631.611 OFFCURVE",
"507.8 632.4 OFFCURVE",
"509 634 CURVE SMOOTH",
"525 656 LINE SMOOTH",
"526.136 657.562 OFFCURVE",
"527.248 658.468 OFFCURVE",
"528.436 658.468 CURVE SMOOTH",
"529.534 658.468 OFFCURVE",
"530.696 657.712 OFFCURVE",
"532 656 CURVE SMOOTH",
"548 635 LINE SMOOTH",
"549.331 633.252 OFFCURVE",
"550.697 632.416 OFFCURVE",
"552.21 632.416 CURVE SMOOTH",
"553.37 632.416 OFFCURVE",
"554.712 632.845 OFFCURVE",
"556 634 CURVE SMOOTH",
"585 660 LINE SMOOTH",
"586.257 661.257 OFFCURVE",
"587.089 663.093 OFFCURVE",
"587.089 664.837 CURVE SMOOTH",
"587.089 666.239 OFFCURVE",
"586.83 667.921 OFFCURVE",
"586 669 CURVE SMOOTH"
);
}
);
width = 752;
}
);
},
{
color = 1;
glyphname = J.ss02;
lastChange = "2014-11-22 02:49:56 +0000";
layers = (
{
background = {
paths = (
{
closed = 1;
nodes = (
"660 137 OFFCURVE",
"643 121 OFFCURVE",
"623 121 CURVE SMOOTH",
"603 121 OFFCURVE",
"587 137 OFFCURVE",
"587 157 CURVE SMOOTH",
"587 178 OFFCURVE",
"603 194 OFFCURVE",
"623 194 CURVE SMOOTH",
"643 194 OFFCURVE",
"660 178 OFFCURVE",
"660 157 CURVE SMOOTH"
);
},
{
closed = 1;
nodes = (
"121 248 LINE",
"145 605 LINE",
"630 605 LINE",
"655 248 LINE"
);
},
{
closed = 1;
nodes = (
"467 660 OFFCURVE",
"461 657 OFFCURVE",
"447 657 CURVE SMOOTH",
"332 657 LINE SMOOTH",
"319 657 OFFCURVE",
"313 660 OFFCURVE",
"313 668 CURVE SMOOTH",
"313 686 LINE SMOOTH",
"313 693 OFFCURVE",
"319 697 OFFCURVE",
"332 697 CURVE SMOOTH",
"447 697 LINE SMOOTH",
"461 697 OFFCURVE",
"467 693 OFFCURVE",
"467 686 CURVE SMOOTH",
"467 668 LINE SMOOTH"
);
},
{
closed = 1;
nodes = (
"123 178 OFFCURVE",
"139 194 OFFCURVE",
"159 194 CURVE SMOOTH",
"180 194 OFFCURVE",
"196 178 OFFCURVE",
"196 157 CURVE SMOOTH",
"196 137 OFFCURVE",
"180 121 OFFCURVE",
"159 121 CURVE SMOOTH",
"139 121 OFFCURVE",
"123 137 OFFCURVE",
"123 157 CURVE SMOOTH"
);
},
{
closed = 1;
nodes = (
"740 248 LINE",
"740 257 OFFCURVE",
"739 271 OFFCURVE",
"738 280 CURVE",
"699 718 LINE",
"697 742 OFFCURVE",
"694 746 OFFCURVE",
"667 746 CURVE SMOOTH",
"119 746 LINE SMOOTH",
"85 746 OFFCURVE",
"82 743 OFFCURVE",
"80 718 CURVE",
"42 280 LINE",
"41 271 OFFCURVE",
"40 257 OFFCURVE",
"40 248 CURVE",
"40 177 LINE",
"40 169 OFFCURVE",
"41 164 OFFCURVE",
"43 156 CURVE",
"58 94 LINE",
"58 31 LINE SMOOTH",
"58 10 OFFCURVE",
"72 0 OFFCURVE",
"112 0 CURVE SMOOTH",
"162 0 LINE SMOOTH",
"201 0 OFFCURVE",
"212 10 OFFCURVE",
"212 43 CURVE",
"568 43 LINE",
"568 10 OFFCURVE",
"581 0 OFFCURVE",
"619 0 CURVE SMOOTH",
"671 0 LINE SMOOTH",
"707 0 OFFCURVE",
"722 10 OFFCURVE",
"722 31 CURVE SMOOTH",
"722 94 LINE",
"737 157 LINE",
"739 164 OFFCURVE",
"740 169 OFFCURVE",
"740 177 CURVE"
);
}
);
};
guideLines = (
{
position = "{90, 718}";
}
);
layerId = "166CCA77-1BE6-4372-BC61-BAE07403C72D";
name = Regular;
paths = (
{
closed = 1;
nodes = (
"660 137 OFFCURVE",
"643 121 OFFCURVE",
"623 121 CURVE SMOOTH",
"603 121 OFFCURVE",
"587 137 OFFCURVE",
"587 157 CURVE SMOOTH",
"587 178 OFFCURVE",
"603 194 OFFCURVE",
"623 194 CURVE SMOOTH",
"643 194 OFFCURVE",
"660 178 OFFCURVE",
"660 157 CURVE SMOOTH"
);
},
{
closed = 1;
nodes = (
"121 248 LINE",
"145 605 LINE",
"630 605 LINE",
"655 248 LINE"
);
},
{
closed = 1;
nodes = (
"467 660 OFFCURVE",
"461 657 OFFCURVE",
"447 657 CURVE SMOOTH",
"332 657 LINE SMOOTH",
"319 657 OFFCURVE",
"313 660 OFFCURVE",
"313 668 CURVE SMOOTH",
"313 686 LINE SMOOTH",
"313 693 OFFCURVE",
"319 697 OFFCURVE",
"332 697 CURVE SMOOTH",
"447 697 LINE SMOOTH",
"461 697 OFFCURVE",
"467 693 OFFCURVE",
"467 686 CURVE SMOOTH",
"467 668 LINE SMOOTH"
);
},
{
closed = 1;
nodes = (
"123 178 OFFCURVE",
"139 194 OFFCURVE",
"159 194 CURVE SMOOTH",
"180 194 OFFCURVE",
"196 178 OFFCURVE",
"196 157 CURVE SMOOTH",
"196 137 OFFCURVE",
"180 121 OFFCURVE",
"159 121 CURVE SMOOTH",
"139 121 OFFCURVE",
"123 137 OFFCURVE",
"123 157 CURVE SMOOTH"
);
},
{
closed = 1;
nodes = (
"740 248 LINE SMOOTH",
"740 257 OFFCURVE",
"739 271 OFFCURVE",
"738 280 CURVE SMOOTH",
"699 718 LINE SMOOTH",
"697 742 OFFCURVE",
"694 746 OFFCURVE",
"667 746 CURVE SMOOTH",
"119 746 LINE SMOOTH",
"85 746 OFFCURVE",
"82 743 OFFCURVE",
"80 718 CURVE SMOOTH",
"42 280 LINE SMOOTH",
"41 271 OFFCURVE",
"40 257 OFFCURVE",
"40 248 CURVE SMOOTH",
"40 177 LINE SMOOTH",
"40 169 OFFCURVE",
"41 164 OFFCURVE",
"43 156 CURVE SMOOTH",
"58 94 LINE",
"58 31 LINE SMOOTH",
"58 10 OFFCURVE",
"72 0 OFFCURVE",
"112 0 CURVE SMOOTH",
"162 0 LINE SMOOTH",
"201 0 OFFCURVE",
"212 10 OFFCURVE",
"212 43 CURVE",
"568 43 LINE",
"568 10 OFFCURVE",
"581 0 OFFCURVE",
"619 0 CURVE SMOOTH",
"671 0 LINE SMOOTH",
"707 0 OFFCURVE",
"722 10 OFFCURVE",
"722 31 CURVE SMOOTH",
"722 94 LINE",
"737 157 LINE",
"739 164 OFFCURVE",
"740 169 OFFCURVE",
"740 177 CURVE SMOOTH"
);
}
);
width = 780;
}
);
},
{
color = 1;
glyphname = K.ss02;
lastChange = "2014-11-22 02:41:39 +0000";
layers = (
{
background = {
paths = (
{
closed = 1;
nodes = (
"465 257 OFFCURVE",
"449 274 OFFCURVE",
"449 294 CURVE SMOOTH",
"449 314 OFFCURVE",
"465 330 OFFCURVE",
"485 330 CURVE SMOOTH",
"505 330 OFFCURVE",
"523 314 OFFCURVE",
"523 294 CURVE SMOOTH",
"523 274 OFFCURVE",
"505 257 OFFCURVE",
"485 257 CURVE SMOOTH"
);
},
{
closed = 1;
nodes = (
"182 385 LINE",
"199 603 LINE",
"504 603 LINE",
"523 385 LINE"
);
},
{
closed = 1;
nodes = (
"410 659 OFFCURVE",
"403 655 OFFCURVE",
"390 655 CURVE SMOOTH",
"315 655 LINE SMOOTH",
"302 655 OFFCURVE",
"296 659 OFFCURVE",
"296 666 CURVE SMOOTH",
"296 685 LINE SMOOTH",
"296 692 OFFCURVE",
"302 696 OFFCURVE",
"315 696 CURVE SMOOTH",
"390 696 LINE SMOOTH",
"403 696 OFFCURVE",
"410 692 OFFCURVE",
"410 685 CURVE SMOOTH",
"410 666 LINE SMOOTH"
);
},
{
closed = 1;
nodes = (
"180 314 OFFCURVE",
"196 330 OFFCURVE",
"216 330 CURVE SMOOTH",
"238 330 OFFCURVE",
"254 314 OFFCURVE",
"254 294 CURVE SMOOTH",
"254 274 OFFCURVE",
"238 257 OFFCURVE",
"216 257 CURVE SMOOTH",
"196 257 OFFCURVE",
"180 274 OFFCURVE",
"180 294 CURVE SMOOTH"
);
},
{
closed = 1;
nodes = (
"696 18 OFFCURVE",
"557 133 OFFCURVE",
"503 177 CURVE",
"524 177 LINE SMOOTH",
"548 177 OFFCURVE",
"566 188 OFFCURVE",
"571 212 CURVE",
"571 212 OFFCURVE",
"585 285 OFFCURVE",
"599 357 CURVE SMOOTH",
"600 362 OFFCURVE",
"600 368 OFFCURVE",
"600 375 CURVE SMOOTH",
"600 382 OFFCURVE",
"600 388 OFFCURVE",
"599 395 CURVE",
"570 720 LINE",
"568 740 OFFCURVE",
"562 745 OFFCURVE",
"530 745 CURVE SMOOTH",
"169 745 LINE SMOOTH",
"142 745 OFFCURVE",
"137 740 OFFCURVE",
"134 719 CURVE",
"106 395 LINE",
"105 387 OFFCURVE",
"105 383 OFFCURVE",
"105 375 CURVE SMOOTH",
"105 369 OFFCURVE",
"105 365 OFFCURVE",
"106 357 CURVE",
"133 212 LINE",
"138 188 OFFCURVE",
"155 177 OFFCURVE",
"181 177 CURVE SMOOTH",
"199 177 LINE",
"148 133 OFFCURVE",
"9 18 OFFCURVE",
"7 16 CURVE SMOOTH",
"1 11 OFFCURVE",
"0 9 OFFCURVE",
"0 6 CURVE SMOOTH",
"0 1 OFFCURVE",
"6 0 OFFCURVE",
"20 0 CURVE SMOOTH",
"91 0 LINE SMOOTH",
"110 0 OFFCURVE",
"114 4 OFFCURVE",
"126 16 CURVE SMOOTH",
"295 177 LINE",
"410 177 LINE",
"578 16 LINE SMOOTH",
"590 4 OFFCURVE",
"595 0 OFFCURVE",
"614 0 CURVE SMOOTH",
"685 0 LINE SMOOTH",
"698 0 OFFCURVE",
"704 1 OFFCURVE",
"704 6 CURVE SMOOTH",
"704 9 OFFCURVE",
"702 12 OFFCURVE",
"698 16 CURVE SMOOTH"
);
}
);
};
guideLines = (
{
position = "{443, 719}";
},
{
position = "{619, 375}";
}
);
layerId = "166CCA77-1BE6-4372-BC61-BAE07403C72D";
name = Regular;
paths = (
{
closed = 1;
nodes = (
"465 257 OFFCURVE",
"449 274 OFFCURVE",
"449 294 CURVE SMOOTH",
"449 314 OFFCURVE",
"465 330 OFFCURVE",
"485 330 CURVE SMOOTH",
"505 330 OFFCURVE",
"523 314 OFFCURVE",
"523 294 CURVE SMOOTH",
"523 274 OFFCURVE",
"505 257 OFFCURVE",
"485 257 CURVE SMOOTH"
);
},
{
closed = 1;
nodes = (
"182 385 LINE",
"199 603 LINE",
"504 603 LINE",
"523 385 LINE"
);
},
{
closed = 1;
nodes = (
"410 659 OFFCURVE",
"403 655 OFFCURVE",
"390 655 CURVE SMOOTH",
"315 655 LINE SMOOTH",
"302 655 OFFCURVE",
"296 659 OFFCURVE",
"296 666 CURVE SMOOTH",
"296 685 LINE SMOOTH",
"296 692 OFFCURVE",
"302 696 OFFCURVE",
"315 696 CURVE SMOOTH",
"390 696 LINE SMOOTH",
"403 696 OFFCURVE",
"410 692 OFFCURVE",
"410 685 CURVE SMOOTH",
"410 666 LINE SMOOTH"
);
},
{
closed = 1;
nodes = (
"180 314 OFFCURVE",
"196 330 OFFCURVE",
"216 330 CURVE SMOOTH",
"238 330 OFFCURVE",
"254 314 OFFCURVE",
"254 294 CURVE SMOOTH",
"254 274 OFFCURVE",
"238 257 OFFCURVE",
"216 257 CURVE SMOOTH",
"196 257 OFFCURVE",
"180 274 OFFCURVE",
"180 294 CURVE SMOOTH"
);
},
{
closed = 1;
nodes = (
"503 177 LINE",
"524 177 LINE SMOOTH",
"548 177 OFFCURVE",
"566 188 OFFCURVE",
"571 212 CURVE SMOOTH",
"599 357 LINE SMOOTH",
"600 363 OFFCURVE",
"600 368 OFFCURVE",
"600 375 CURVE SMOOTH",
"600 382 OFFCURVE",
"599.629 387.947 OFFCURVE",
"599 395 CURVE SMOOTH",
"570 720 LINE SMOOTH",
"568 740 OFFCURVE",
"562 745 OFFCURVE",
"530 745 CURVE SMOOTH",
"169 745 LINE SMOOTH",
"142 745 OFFCURVE",
"137 740 OFFCURVE",
"134 719 CURVE SMOOTH",
"106 395 LINE SMOOTH",
"105.306 386.968 OFFCURVE",
"105 383 OFFCURVE",
"105 375 CURVE SMOOTH",
"105 369 OFFCURVE",
"104.697 363 OFFCURVE",
"106 357 CURVE SMOOTH",
"133 212 LINE SMOOTH",
"138 188 OFFCURVE",
"155 177 OFFCURVE",
"181 177 CURVE SMOOTH",
"199 177 LINE",
"7 16 LINE SMOOTH",
"1 11 OFFCURVE",
"0 9 OFFCURVE",
"0 6 CURVE SMOOTH",
"0 1 OFFCURVE",
"6 0 OFFCURVE",
"20 0 CURVE SMOOTH",
"91 0 LINE SMOOTH",
"110 0 OFFCURVE",
"114 4 OFFCURVE",
"126 16 CURVE SMOOTH",
"295 177 LINE",
"410 177 LINE",
"578 16 LINE SMOOTH",
"590 4 OFFCURVE",
"595 0 OFFCURVE",
"614 0 CURVE SMOOTH",
"685 0 LINE SMOOTH",
"698 0 OFFCURVE",
"704 1 OFFCURVE",
"704 6 CURVE SMOOTH",
"704 9 OFFCURVE",
"702 12 OFFCURVE",
"698 16 CURVE SMOOTH"
);
}
);
width = 704;
}
);
},
